  0
SECTION
  2
BLOCKS
  0
ENDSEC
  0
SECTION
  2
ENTITIES
  0
LINE
  8
0
 10
112.814
 20
83.652
 11
130.572
 21
83.652
  0
LINE
  8
0
 10
130.572
 20
83.652
 11
130.572
 21
89.652
  0
LINE
  8
0
 10
130.572
 20
89.652
 11
127.572
 21
89.652
  0
LINE
  8
0
 10
127.572
 20
89.652
 11
127.572
 21
101.652
  0
LINE
  8
0
 10
127.572
 20
101.652
 11
130.572
 21
101.652
  0
LINE
  8
0
 10
130.572
 20
101.652
 11
130.572
 21
107.652
  0
LINE
  8
0
 10
130.572
 20
107.652
 11
112.814
 21
107.652
  0
LINE
  8
0
 10
112.814
 20
107.652
 11
112.814
 21
110.652
  0
LINE
  8
0
 10
112.814
 20
110.652
 11
84.314
 21
110.652
  0
LINE
  8
0
 10
84.314
 20
110.652
 11
84.314
 21
107.652
  0
LINE
  8
0
 10
84.314
 20
107.652
 11
69.556
 21
107.652
  0
LINE
  8
0
 10
69.556
 20
107.652
 11
69.556
 21
101.652
  0
LINE
  8
0
 10
69.556
 20
101.652
 11
66.556
 21
101.652
  0
LINE
  8
0
 10
66.556
 20
101.652
 11
66.556
 21
89.652
  0
LINE
  8
0
 10
66.556
 20
89.652
 11
69.556
 21
89.652
  0
LINE
  8
0
 10
69.556
 20
89.652
 11
69.556
 21
83.652
  0
LINE
  8
0
 10
69.556
 20
83.652
 11
84.314
 21
83.652
  0
LINE
  8
0
 10
84.314
 20
83.652
 11
84.314
 21
80.652
  0
LINE
  8
0
 10
84.314
 20
80.652
 11
112.814
 21
80.652
  0
LINE
  8
0
 10
112.814
 20
80.652
 11
112.814
 21
83.652
  0
LINE
  8
0
 10
46.258
 20
83.652
 11
64.016
 21
83.652
  0
LINE
  8
0
 10
64.016
 20
83.652
 11
64.016
 21
89.652
  0
LINE
  8
0
 10
64.016
 20
89.652
 11
61.016
 21
89.652
  0
LINE
  8
0
 10
61.016
 20
89.652
 11
61.016
 21
101.652
  0
LINE
  8
0
 10
61.016
 20
101.652
 11
64.016
 21
101.652
  0
LINE
  8
0
 10
64.016
 20
101.652
 11
64.016
 21
107.652
  0
LINE
  8
0
 10
64.016
 20
107.652
 11
46.258
 21
107.652
  0
LINE
  8
0
 10
46.258
 20
107.652
 11
46.258
 21
110.652
  0
LINE
  8
0
 10
46.258
 20
110.652
 11
17.758
 21
110.652
  0
LINE
  8
0
 10
17.758
 20
110.652
 11
17.758
 21
107.652
  0
LINE
  8
0
 10
17.758
 20
107.652
 11
3
 21
107.652
  0
LINE
  8
0
 10
3
 20
107.652
 11
3
 21
101.652
  0
LINE
  8
0
 10
3
 20
101.652
 11
0
 21
101.652
  0
LINE
  8
0
 10
0
 20
101.652
 11
0
 21
89.652
  0
LINE
  8
0
 10
0
 20
89.652
 11
3
 21
89.652
  0
LINE
  8
0
 10
3
 20
89.652
 11
3
 21
83.652
  0
LINE
  8
0
 10
3
 20
83.652
 11
17.758
 21
83.652
  0
LINE
  8
0
 10
17.758
 20
83.652
 11
17.758
 21
80.652
  0
LINE
  8
0
 10
17.758
 20
80.652
 11
46.258
 21
80.652
  0
LINE
  8
0
 10
46.258
 20
80.652
 11
46.258
 21
83.652
  0
LINE
  8
0
 10
12.744
 20
92.7
 11
12.744
 21
106.7
  0
LINE
  8
0
 10
12.744
 20
106.7
 11
27.744
 21
106.7
  0
LINE
  8
0
 10
27.744
 20
106.7
 11
27.744
 21
92.7
  0
LINE
  8
0
 10
27.744
 20
92.7
 11
12.744
 21
92.7
  0
LINE
  8
0
 10
45.986
 20
92.7
 11
45.986
 21
106.7
  0
LINE
  8
0
 10
45.986
 20
106.7
 11
55.986
 21
106.7
  0
LINE
  8
0
 10
55.986
 20
106.7
 11
55.986
 21
92.7
  0
LINE
  8
0
 10
55.986
 20
92.7
 11
45.986
 21
92.7
  0
LINE
  8
0
 10
81.3
 20
-0.699997
 11
82.6
 21
-0.699997
  0
LINE
  8
0
 10
82.6
 20
-0.699997
 11
83.3416
 21
-0.582535
  0
LINE
  8
0
 10
83.3416
 20
-0.582535
 11
84.0107
 21
-0.241638
  0
LINE
  8
0
 10
84.0107
 20
-0.241638
 11
84.5416
 21
0.289307
  0
LINE
  8
0
 10
84.5416
 20
0.289307
 11
84.8825
 21
0.958359
  0
LINE
  8
0
 10
84.8825
 20
0.958359
 11
84.958
 21
1.43481
  0
LINE
  8
0
 10
84.958
 20
1.43481
 11
84.958
 21
60.056
  0
LINE
  8
0
 10
84.958
 20
60.056
 11
85.1048
 21
60.983
  0
LINE
  8
0
 10
85.1048
 20
60.983
 11
85.5309
 21
61.8194
  0
LINE
  8
0
 10
85.5309
 20
61.8194
 11
86.1946
 21
62.483
  0
LINE
  8
0
 10
86.1946
 20
62.483
 11
87.0309
 21
62.9092
  0
LINE
  8
0
 10
87.0309
 20
62.9092
 11
87.958
 21
63.056
  0
LINE
  8
0
 10
87.958
 20
63.056
 11
126.958
 21
63.056
  0
LINE
  8
0
 10
126.958
 20
63.056
 11
127.885
 21
62.9092
  0
LINE
  8
0
 10
127.885
 20
62.9092
 11
128.721
 21
62.483
  0
LINE
  8
0
 10
128.721
 20
62.483
 11
129.385
 21
61.8194
  0
LINE
  8
0
 10
129.385
 20
61.8194
 11
129.811
 21
60.983
  0
LINE
  8
0
 10
129.811
 20
60.983
 11
129.958
 21
60.056
  0
LINE
  8
0
 10
129.958
 20
60.056
 11
129.958
 21
1.3338
  0
LINE
  8
0
 10
129.958
 20
1.3338
 11
130.017
 21
0.958359
  0
LINE
  8
0
 10
130.017
 20
0.958359
 11
130.358
 21
0.289307
  0
LINE
  8
0
 10
130.358
 20
0.289307
 11
130.889
 21
-0.241638
  0
LINE
  8
0
 10
130.889
 20
-0.241638
 11
131.558
 21
-0.582535
  0
LINE
  8
0
 10
131.558
 20
-0.582535
 11
132.3
 21
-0.699997
  0
LINE
  8
0
 10
132.3
 20
-0.699997
 11
133.6
 21
-0.699997
  0
LINE
  8
0
 10
133.6
 20
-0.699997
 11
133.6
 21
-0.761993
  0
LINE
  8
0
 10
133.6
 20
-0.761993
 11
142.002
 21
-0.761993
  0
LINE
  8
0
 10
142.002
 20
-0.761993
 11
142.473
 21
-0.687408
  0
LINE
  8
0
 10
142.473
 20
-0.687408
 11
142.898
 21
-0.470932
  0
LINE
  8
0
 10
142.898
 20
-0.470932
 11
143.235
 21
-0.133774
  0
LINE
  8
0
 10
143.235
 20
-0.133774
 11
143.451
 21
0.291046
  0
LINE
  8
0
 10
143.451
 20
0.291046
 11
143.526
 21
0.761993
  0
LINE
  8
0
 10
143.526
 20
0.761993
 11
143.526
 21
77.35
  0
LINE
  8
0
 10
143.526
 20
77.35
 11
143.451
 21
77.8209
  0
LINE
  8
0
 10
143.451
 20
77.8209
 11
143.235
 21
78.2458
  0
LINE
  8
0
 10
143.235
 20
78.2458
 11
142.898
 21
78.5829
  0
LINE
  8
0
 10
142.898
 20
78.5829
 11
142.473
 21
78.7994
  0
LINE
  8
0
 10
142.473
 20
78.7994
 11
142.002
 21
78.874
  0
LINE
  8
0
 10
142.002
 20
78.874
 11
73.414
 21
78.874
  0
LINE
  8
0
 10
73.414
 20
78.874
 11
72.9431
 21
78.7994
  0
LINE
  8
0
 10
72.9431
 20
78.7994
 11
72.5182
 21
78.5829
  0
LINE
  8
0
 10
72.5182
 20
78.5829
 11
72.181
 21
78.2458
  0
LINE
  8
0
 10
72.181
 20
78.2458
 11
71.9646
 21
77.8209
  0
LINE
  8
0
 10
71.9646
 20
77.8209
 11
71.89
 21
77.35
  0
LINE
  8
0
 10
71.89
 20
77.35
 11
71.89
 21
0.761993
  0
LINE
  8
0
 10
71.89
 20
0.761993
 11
71.9646
 21
0.291046
  0
LINE
  8
0
 10
71.9646
 20
0.291046
 11
72.181
 21
-0.133774
  0
LINE
  8
0
 10
72.181
 20
-0.133774
 11
72.5182
 21
-0.470932
  0
LINE
  8
0
 10
72.5182
 20
-0.470932
 11
72.9431
 21
-0.687408
  0
LINE
  8
0
 10
72.9431
 20
-0.687408
 11
73.414
 21
-0.761993
  0
LINE
  8
0
 10
73.414
 20
-0.761993
 11
81.3
 21
-0.761993
  0
LINE
  8
0
 10
81.3
 20
-0.761993
 11
81.3
 21
-0.699997
  0
LINE
  8
0
 10
93.458
 20
72.064
 11
93.458
 21
75.064
  0
LINE
  8
0
 10
93.458
 20
75.064
 11
121.958
 21
75.064
  0
LINE
  8
0
 10
121.958
 20
75.064
 11
121.958
 21
72.064
  0
LINE
  8
0
 10
121.958
 20
72.064
 11
93.458
 21
72.064
  0
LINE
  8
0
 10
75.7
 20
22.806
 11
75.7
 21
55.306
  0
LINE
  8
0
 10
75.7
 20
55.306
 11
78.7
 21
55.306
  0
LINE
  8
0
 10
78.7
 20
55.306
 11
78.7
 21
22.806
  0
LINE
  8
0
 10
78.7
 20
22.806
 11
75.7
 21
22.806
  0
LINE
  8
0
 10
136.716
 20
22.806
 11
136.716
 21
55.306
  0
LINE
  8
0
 10
136.716
 20
55.306
 11
139.716
 21
55.306
  0
LINE
  8
0
 10
139.716
 20
55.306
 11
139.716
 21
22.806
  0
LINE
  8
0
 10
139.716
 20
22.806
 11
136.716
 21
22.806
  0
LINE
  8
0
 10
69.8209
 20
-0.687408
 11
70.2458
 21
-0.470932
  0
LINE
  8
0
 10
70.2458
 20
-0.470932
 11
70.5829
 21
-0.133774
  0
LINE
  8
0
 10
70.5829
 20
-0.133774
 11
70.7994
 21
0.291046
  0
LINE
  8
0
 10
70.7994
 20
0.291046
 11
70.874
 21
0.761993
  0
LINE
  8
0
 10
70.874
 20
0.761993
 11
70.874
 21
77.35
  0
LINE
  8
0
 10
70.874
 20
77.35
 11
70.7994
 21
77.8209
  0
LINE
  8
0
 10
70.7994
 20
77.8209
 11
70.5829
 21
78.2458
  0
LINE
  8
0
 10
70.5829
 20
78.2458
 11
70.2458
 21
78.5829
  0
LINE
  8
0
 10
70.2458
 20
78.5829
 11
69.8209
 21
78.7994
  0
LINE
  8
0
 10
69.8209
 20
78.7994
 11
69.35
 21
78.874
  0
LINE
  8
0
 10
69.35
 20
78.874
 11
0.761993
 21
78.874
  0
LINE
  8
0
 10
0.761993
 20
78.874
 11
0.291046
 21
78.7994
  0
LINE
  8
0
 10
0.291046
 20
78.7994
 11
-0.133774
 21
78.5829
  0
LINE
  8
0
 10
-0.133774
 20
78.5829
 11
-0.470932
 21
78.2458
  0
LINE
  8
0
 10
-0.470932
 20
78.2458
 11
-0.687408
 21
77.8209
  0
LINE
  8
0
 10
-0.687408
 20
77.8209
 11
-0.761993
 21
77.35
  0
LINE
  8
0
 10
-0.761993
 20
77.35
 11
-0.761993
 21
0.761993
  0
LINE
  8
0
 10
-0.761993
 20
0.761993
 11
-0.687408
 21
0.291046
  0
LINE
  8
0
 10
-0.687408
 20
0.291046
 11
-0.470932
 21
-0.133774
  0
LINE
  8
0
 10
-0.470932
 20
-0.133774
 11
-0.133774
 21
-0.470932
  0
LINE
  8
0
 10
-0.133774
 20
-0.470932
 11
0.291046
 21
-0.687408
  0
LINE
  8
0
 10
0.291046
 20
-0.687408
 11
0.761993
 21
-0.761993
  0
LINE
  8
0
 10
0.761993
 20
-0.761993
 11
69.35
 21
-0.761993
  0
LINE
  8
0
 10
69.35
 20
-0.761993
 11
69.8209
 21
-0.687408
  0
LINE
  8
0
 10
20.806
 20
72.064
 11
20.806
 21
75.064
  0
LINE
  8
0
 10
20.806
 20
75.064
 11
49.306
 21
75.064
  0
LINE
  8
0
 10
49.306
 20
75.064
 11
49.306
 21
72.064
  0
LINE
  8
0
 10
49.306
 20
72.064
 11
20.806
 21
72.064
  0
LINE
  8
0
 10
25.4485
 20
66.1694
 11
25.0303
 21
66.3825
  0
LINE
  8
0
 10
25.0303
 20
66.3825
 11
24.6985
 21
66.7143
  0
LINE
  8
0
 10
24.6985
 20
66.7143
 11
24.4854
 21
67.1325
  0
LINE
  8
0
 10
24.4854
 20
67.1325
 11
24.412
 21
67.596
  0
LINE
  8
0
 10
24.412
 20
67.596
 11
24.4854
 21
68.0595
  0
LINE
  8
0
 10
24.4854
 20
68.0595
 11
24.6985
 21
68.4777
  0
LINE
  8
0
 10
24.6985
 20
68.4777
 11
25.0303
 21
68.8095
  0
LINE
  8
0
 10
25.0303
 20
68.8095
 11
25.4485
 21
69.0226
  0
LINE
  8
0
 10
25.4485
 20
69.0226
 11
25.912
 21
69.096
  0
LINE
  8
0
 10
25.912
 20
69.096
 11
26.3755
 21
69.0226
  0
LINE
  8
0
 10
26.3755
 20
69.0226
 11
26.7937
 21
68.8095
  0
LINE
  8
0
 10
26.7937
 20
68.8095
 11
27.1255
 21
68.4777
  0
LINE
  8
0
 10
27.1255
 20
68.4777
 11
27.3386
 21
68.0595
  0
LINE
  8
0
 10
27.3386
 20
68.0595
 11
27.412
 21
67.596
  0
LINE
  8
0
 10
27.412
 20
67.596
 11
27.3386
 21
67.1325
  0
LINE
  8
0
 10
27.3386
 20
67.1325
 11
27.1255
 21
66.7143
  0
LINE
  8
0
 10
27.1255
 20
66.7143
 11
26.7937
 21
66.3825
  0
LINE
  8
0
 10
26.7937
 20
66.3825
 11
26.3755
 21
66.1694
  0
LINE
  8
0
 10
26.3755
 20
66.1694
 11
25.912
 21
66.096
  0
LINE
  8
0
 10
25.912
 20
66.096
 11
25.4485
 21
66.1694
  0
LINE
  8
0
 10
53.2615
 20
66.1694
 11
52.8433
 21
66.3825
  0
LINE
  8
0
 10
52.8433
 20
66.3825
 11
52.5115
 21
66.7143
  0
LINE
  8
0
 10
52.5115
 20
66.7143
 11
52.2984
 21
67.1325
  0
LINE
  8
0
 10
52.2984
 20
67.1325
 11
52.225
 21
67.596
  0
LINE
  8
0
 10
52.225
 20
67.596
 11
52.2984
 21
68.0595
  0
LINE
  8
0
 10
52.2984
 20
68.0595
 11
52.5115
 21
68.4777
  0
LINE
  8
0
 10
52.5115
 20
68.4777
 11
52.8433
 21
68.8095
  0
LINE
  8
0
 10
52.8433
 20
68.8095
 11
53.2615
 21
69.0226
  0
LINE
  8
0
 10
53.2615
 20
69.0226
 11
53.725
 21
69.096
  0
LINE
  8
0
 10
53.725
 20
69.096
 11
54.1885
 21
69.0226
  0
LINE
  8
0
 10
54.1885
 20
69.0226
 11
54.6067
 21
68.8095
  0
LINE
  8
0
 10
54.6067
 20
68.8095
 11
54.9385
 21
68.4777
  0
LINE
  8
0
 10
54.9385
 20
68.4777
 11
55.1516
 21
68.0595
  0
LINE
  8
0
 10
55.1516
 20
68.0595
 11
55.225
 21
67.596
  0
LINE
  8
0
 10
55.225
 20
67.596
 11
55.1516
 21
67.1325
  0
LINE
  8
0
 10
55.1516
 20
67.1325
 11
54.9385
 21
66.7143
  0
LINE
  8
0
 10
54.9385
 20
66.7143
 11
54.6067
 21
66.3825
  0
LINE
  8
0
 10
54.6067
 20
66.3825
 11
54.1885
 21
66.1694
  0
LINE
  8
0
 10
54.1885
 20
66.1694
 11
53.725
 21
66.096
  0
LINE
  8
0
 10
53.725
 20
66.096
 11
53.2615
 21
66.1694
  0
LINE
  8
0
 10
64.064
 20
22.806
 11
64.064
 21
55.306
  0
LINE
  8
0
 10
64.064
 20
55.306
 11
67.064
 21
55.306
  0
LINE
  8
0
 10
67.064
 20
55.306
 11
67.064
 21
22.806
  0
LINE
  8
0
 10
67.064
 20
22.806
 11
64.064
 21
22.806
  0
LINE
  8
0
 10
3.04799
 20
22.806
 11
3.04799
 21
55.306
  0
LINE
  8
0
 10
3.04799
 20
55.306
 11
6.04799
 21
55.306
  0
LINE
  8
0
 10
6.04799
 20
55.306
 11
6.04799
 21
22.806
  0
LINE
  8
0
 10
6.04799
 20
22.806
 11
3.04799
 21
22.806
  0
LINE
  8
0
 10
10.2085
 20
15.3694
 11
9.79031
 21
15.5825
  0
LINE
  8
0
 10
9.79031
 20
15.5825
 11
9.45847
 21
15.9143
  0
LINE
  8
0
 10
9.45847
 20
15.9143
 11
9.24541
 21
16.3325
  0
LINE
  8
0
 10
9.24541
 20
16.3325
 11
9.172
 21
16.796
  0
LINE
  8
0
 10
9.172
 20
16.796
 11
9.24541
 21
17.2595
  0
LINE
  8
0
 10
9.24541
 20
17.2595
 11
9.45847
 21
17.6777
  0
LINE
  8
0
 10
9.45847
 20
17.6777
 11
9.79031
 21
18.0095
  0
LINE
  8
0
 10
9.79031
 20
18.0095
 11
10.2085
 21
18.2226
  0
LINE
  8
0
 10
10.2085
 20
18.2226
 11
10.672
 21
18.296
  0
LINE
  8
0
 10
10.672
 20
18.296
 11
11.1355
 21
18.2226
  0
LINE
  8
0
 10
11.1355
 20
18.2226
 11
11.5537
 21
18.0095
  0
LINE
  8
0
 10
11.5537
 20
18.0095
 11
11.8855
 21
17.6777
  0
LINE
  8
0
 10
11.8855
 20
17.6777
 11
12.0986
 21
17.2595
  0
LINE
  8
0
 10
12.0986
 20
17.2595
 11
12.172
 21
16.796
  0
LINE
  8
0
 10
12.172
 20
16.796
 11
12.0986
 21
16.3325
  0
LINE
  8
0
 10
12.0986
 20
16.3325
 11
11.8855
 21
15.9143
  0
LINE
  8
0
 10
11.8855
 20
15.9143
 11
11.5537
 21
15.5825
  0
LINE
  8
0
 10
11.5537
 20
15.5825
 11
11.1355
 21
15.3694
  0
LINE
  8
0
 10
11.1355
 20
15.3694
 11
10.672
 21
15.296
  0
LINE
  8
0
 10
10.672
 20
15.296
 11
10.2085
 21
15.3694
  0
LINE
  8
0
 10
58.3415
 20
13.8454
 11
57.9233
 21
14.0585
  0
LINE
  8
0
 10
57.9233
 20
14.0585
 11
57.5915
 21
14.3903
  0
LINE
  8
0
 10
57.5915
 20
14.3903
 11
57.3784
 21
14.8085
  0
LINE
  8
0
 10
57.3784
 20
14.8085
 11
57.305
 21
15.272
  0
LINE
  8
0
 10
57.305
 20
15.272
 11
57.3784
 21
15.7355
  0
LINE
  8
0
 10
57.3784
 20
15.7355
 11
57.5915
 21
16.1537
  0
LINE
  8
0
 10
57.5915
 20
16.1537
 11
57.9233
 21
16.4855
  0
LINE
  8
0
 10
57.9233
 20
16.4855
 11
58.3415
 21
16.6986
  0
LINE
  8
0
 10
58.3415
 20
16.6986
 11
58.805
 21
16.772
  0
LINE
  8
0
 10
58.805
 20
16.772
 11
59.2685
 21
16.6986
  0
LINE
  8
0
 10
59.2685
 20
16.6986
 11
59.6867
 21
16.4855
  0
LINE
  8
0
 10
59.6867
 20
16.4855
 11
60.0185
 21
16.1537
  0
LINE
  8
0
 10
60.0185
 20
16.1537
 11
60.2316
 21
15.7355
  0
LINE
  8
0
 10
60.2316
 20
15.7355
 11
60.305
 21
15.272
  0
LINE
  8
0
 10
60.305
 20
15.272
 11
60.2316
 21
14.8085
  0
LINE
  8
0
 10
60.2316
 20
14.8085
 11
60.0185
 21
14.3903
  0
LINE
  8
0
 10
60.0185
 20
14.3903
 11
59.6867
 21
14.0585
  0
LINE
  8
0
 10
59.6867
 20
14.0585
 11
59.2685
 21
13.8454
  0
LINE
  8
0
 10
59.2685
 20
13.8454
 11
58.805
 21
13.772
  0
LINE
  8
0
 10
58.805
 20
13.772
 11
58.3415
 21
13.8454
  0
LINE
  8
0
 10
204.844
 20
19.758
 11
207.844
 21
19.758
  0
LINE
  8
0
 10
207.844
 20
19.758
 11
207.844
 21
52.258
  0
LINE
  8
0
 10
207.844
 20
52.258
 11
204.844
 21
52.258
  0
LINE
  8
0
 10
204.844
 20
52.258
 11
204.844
 21
72.016
  0
LINE
  8
0
 10
204.844
 20
72.016
 11
198.844
 21
72.016
  0
LINE
  8
0
 10
198.844
 20
72.016
 11
198.844
 21
69.016
  0
LINE
  8
0
 10
198.844
 20
69.016
 11
186.844
 21
69.016
  0
LINE
  8
0
 10
186.844
 20
69.016
 11
186.844
 21
72.016
  0
LINE
  8
0
 10
186.844
 20
72.016
 11
180.844
 21
72.016
  0
LINE
  8
0
 10
180.844
 20
72.016
 11
180.844
 21
52.258
  0
LINE
  8
0
 10
180.844
 20
52.258
 11
177.844
 21
52.258
  0
LINE
  8
0
 10
177.844
 20
52.258
 11
177.844
 21
19.758
  0
LINE
  8
0
 10
177.844
 20
19.758
 11
180.844
 21
19.758
  0
LINE
  8
0
 10
180.844
 20
19.758
 11
180.844
 21
0
  0
LINE
  8
0
 10
180.844
 20
0
 11
204.844
 21
0
  0
LINE
  8
0
 10
204.844
 20
0
 11
204.844
 21
19.758
  0
LINE
  8
0
 10
166.304
 20
3
 11
172.304
 21
3
  0
LINE
  8
0
 10
172.304
 20
3
 11
172.304
 21
19.758
  0
LINE
  8
0
 10
172.304
 20
19.758
 11
175.304
 21
19.758
  0
LINE
  8
0
 10
175.304
 20
19.758
 11
175.304
 21
52.258
  0
LINE
  8
0
 10
175.304
 20
52.258
 11
172.304
 21
52.258
  0
LINE
  8
0
 10
172.304
 20
52.258
 11
172.304
 21
72.016
  0
LINE
  8
0
 10
172.304
 20
72.016
 11
148.304
 21
72.016
  0
LINE
  8
0
 10
148.304
 20
72.016
 11
148.304
 21
52.258
  0
LINE
  8
0
 10
148.304
 20
52.258
 11
145.304
 21
52.258
  0
LINE
  8
0
 10
145.304
 20
52.258
 11
145.304
 21
19.758
  0
LINE
  8
0
 10
145.304
 20
19.758
 11
148.304
 21
19.758
  0
LINE
  8
0
 10
148.304
 20
19.758
 11
148.304
 21
3
  0
LINE
  8
0
 10
148.304
 20
3
 11
154.304
 21
3
  0
LINE
  8
0
 10
154.304
 20
3
 11
154.304
 21
0
  0
LINE
  8
0
 10
154.304
 20
0
 11
166.304
 21
0
  0
LINE
  8
0
 10
166.304
 20
0
 11
166.304
 21
3
  0
ENDSEC
  0
SECTION
  2
OBJECTS
  0
DICTIONARY
  0
ENDSEC
  0
EOF
