G04 #@! TF.GenerationSoftware,KiCad,Pcbnew,5.1.5+dfsg1-2build2*
G04 #@! TF.CreationDate,2021-11-30T21:55:48+00:00*
G04 #@! TF.ProjectId,shield,73686965-6c64-42e6-9b69-6361645f7063,rev?*
G04 #@! TF.SameCoordinates,Original*
G04 #@! TF.FileFunction,Legend,Top*
G04 #@! TF.FilePolarity,Positive*
%FSLAX46Y46*%
G04 Gerber Fmt 4.6, Leading zero omitted, Abs format (unit mm)*
G04 Created by KiCad (PCBNEW 5.1.5+dfsg1-2build2) date 2021-11-30 21:55:48*
%MOMM*%
%LPD*%
G04 APERTURE LIST*
%ADD10C,0.150000*%
%ADD11C,0.400000*%
%ADD12C,0.010000*%
%ADD13C,0.120000*%
%ADD14C,0.254000*%
%ADD15C,0.250000*%
G04 APERTURE END LIST*
D10*
X37152380Y29880953D02*
X37152380Y30452381D01*
X38152380Y30166667D02*
X37152380Y30166667D01*
X38152380Y30785715D02*
X37152380Y30785715D01*
X37152380Y32214286D02*
X37152380Y32404762D01*
X37200000Y32500000D01*
X37295238Y32595239D01*
X37485714Y32642858D01*
X37819047Y32642858D01*
X38009523Y32595239D01*
X38104761Y32500000D01*
X38152380Y32404762D01*
X38152380Y32214286D01*
X38104761Y32119048D01*
X38009523Y32023810D01*
X37819047Y31976191D01*
X37485714Y31976191D01*
X37295238Y32023810D01*
X37200000Y32119048D01*
X37152380Y32214286D01*
X37152380Y33071429D02*
X37961904Y33071429D01*
X38057142Y33119048D01*
X38104761Y33166667D01*
X38152380Y33261905D01*
X38152380Y33452381D01*
X38104761Y33547620D01*
X38057142Y33595239D01*
X37961904Y33642858D01*
X37152380Y33642858D01*
X37152380Y33976191D02*
X37152380Y34547620D01*
X38152380Y34261905D02*
X37152380Y34261905D01*
X37866666Y35595239D02*
X37866666Y36071429D01*
X38152380Y35500000D02*
X37152380Y35833334D01*
X38152380Y36166667D01*
X37485714Y36928572D02*
X38152380Y36928572D01*
X37104761Y36690477D02*
X37819047Y36452381D01*
X37819047Y37071429D01*
D11*
X32950000Y39000000D02*
G75*
G03X32950000Y39000000I-150000J0D01*
G01*
X19155000Y44605000D02*
G75*
G03X19155000Y44605000I-150000J0D01*
G01*
X39955000Y24205000D02*
G75*
G03X39955000Y24205000I-150000J0D01*
G01*
D10*
X33880952Y25947620D02*
X34452380Y25947620D01*
X34166666Y24947620D02*
X34166666Y25947620D01*
X34785714Y24947620D02*
X34785714Y25947620D01*
X36214285Y25947620D02*
X36404761Y25947620D01*
X36500000Y25900000D01*
X36595238Y25804762D01*
X36642857Y25614286D01*
X36642857Y25280953D01*
X36595238Y25090477D01*
X36500000Y24995239D01*
X36404761Y24947620D01*
X36214285Y24947620D01*
X36119047Y24995239D01*
X36023809Y25090477D01*
X35976190Y25280953D01*
X35976190Y25614286D01*
X36023809Y25804762D01*
X36119047Y25900000D01*
X36214285Y25947620D01*
X36928571Y25614286D02*
X37309523Y25614286D01*
X37071428Y24947620D02*
X37071428Y25804762D01*
X37119047Y25900000D01*
X37214285Y25947620D01*
X37309523Y25947620D01*
X37500000Y25614286D02*
X37880952Y25614286D01*
X37642857Y24947620D02*
X37642857Y25804762D01*
X37690476Y25900000D01*
X37785714Y25947620D01*
X37880952Y25947620D01*
X38166666Y24995239D02*
X38261904Y24947620D01*
X38452380Y24947620D01*
X38547619Y24995239D01*
X38595238Y25090477D01*
X38595238Y25138096D01*
X38547619Y25233334D01*
X38452380Y25280953D01*
X38309523Y25280953D01*
X38214285Y25328572D01*
X38166666Y25423810D01*
X38166666Y25471429D01*
X38214285Y25566667D01*
X38309523Y25614286D01*
X38452380Y25614286D01*
X38547619Y25566667D01*
X39404761Y24995239D02*
X39309523Y24947620D01*
X39119047Y24947620D01*
X39023809Y24995239D01*
X38976190Y25090477D01*
X38976190Y25471429D01*
X39023809Y25566667D01*
X39119047Y25614286D01*
X39309523Y25614286D01*
X39404761Y25566667D01*
X39452380Y25471429D01*
X39452380Y25376191D01*
X38976190Y25280953D01*
X39738095Y25614286D02*
X40119047Y25614286D01*
X39880952Y25947620D02*
X39880952Y25090477D01*
X39928571Y24995239D01*
X40023809Y24947620D01*
X40119047Y24947620D01*
X17828571Y36747620D02*
X17352380Y36747620D01*
X17352380Y37747620D01*
X18161904Y37271429D02*
X18495238Y37271429D01*
X18638095Y36747620D02*
X18161904Y36747620D01*
X18161904Y37747620D01*
X18638095Y37747620D01*
X19066666Y36747620D02*
X19066666Y37747620D01*
X19304761Y37747620D01*
X19447619Y37700000D01*
X19542857Y37604762D01*
X19590476Y37509524D01*
X19638095Y37319048D01*
X19638095Y37176191D01*
X19590476Y36985715D01*
X19542857Y36890477D01*
X19447619Y36795239D01*
X19304761Y36747620D01*
X19066666Y36747620D01*
X20828571Y36747620D02*
X20828571Y37747620D01*
X21209523Y37747620D01*
X21304761Y37700000D01*
X21352380Y37652381D01*
X21400000Y37557143D01*
X21400000Y37414286D01*
X21352380Y37319048D01*
X21304761Y37271429D01*
X21209523Y37223810D01*
X20828571Y37223810D01*
X22019047Y37747620D02*
X22209523Y37747620D01*
X22304761Y37700000D01*
X22400000Y37604762D01*
X22447619Y37414286D01*
X22447619Y37080953D01*
X22400000Y36890477D01*
X22304761Y36795239D01*
X22209523Y36747620D01*
X22019047Y36747620D01*
X21923809Y36795239D01*
X21828571Y36890477D01*
X21780952Y37080953D01*
X21780952Y37414286D01*
X21828571Y37604762D01*
X21923809Y37700000D01*
X22019047Y37747620D01*
X22780952Y37747620D02*
X23019047Y36747620D01*
X23209523Y37461905D01*
X23400000Y36747620D01*
X23638095Y37747620D01*
X24019047Y37271429D02*
X24352380Y37271429D01*
X24495238Y36747620D02*
X24019047Y36747620D01*
X24019047Y37747620D01*
X24495238Y37747620D01*
X25495238Y36747620D02*
X25161904Y37223810D01*
X24923809Y36747620D02*
X24923809Y37747620D01*
X25304761Y37747620D01*
X25400000Y37700000D01*
X25447619Y37652381D01*
X25495238Y37557143D01*
X25495238Y37414286D01*
X25447619Y37319048D01*
X25400000Y37271429D01*
X25304761Y37223810D01*
X24923809Y37223810D01*
X2087976Y10670239D02*
X2230833Y10622620D01*
X2468928Y10622620D01*
X2564166Y10670239D01*
X2611785Y10717858D01*
X2659404Y10813096D01*
X2659404Y10908334D01*
X2611785Y11003572D01*
X2564166Y11051191D01*
X2468928Y11098810D01*
X2278452Y11146429D01*
X2183214Y11194048D01*
X2135595Y11241667D01*
X2087976Y11336905D01*
X2087976Y11432143D01*
X2135595Y11527381D01*
X2183214Y11575000D01*
X2278452Y11622620D01*
X2516547Y11622620D01*
X2659404Y11575000D01*
X3468928Y10670239D02*
X3373690Y10622620D01*
X3183214Y10622620D01*
X3087976Y10670239D01*
X3040357Y10765477D01*
X3040357Y11146429D01*
X3087976Y11241667D01*
X3183214Y11289286D01*
X3373690Y11289286D01*
X3468928Y11241667D01*
X3516547Y11146429D01*
X3516547Y11051191D01*
X3040357Y10955953D01*
X3945119Y11289286D02*
X3945119Y10622620D01*
X3945119Y11194048D02*
X3992738Y11241667D01*
X4087976Y11289286D01*
X4230833Y11289286D01*
X4326071Y11241667D01*
X4373690Y11146429D01*
X4373690Y10622620D01*
X4802261Y10670239D02*
X4897500Y10622620D01*
X5087976Y10622620D01*
X5183214Y10670239D01*
X5230833Y10765477D01*
X5230833Y10813096D01*
X5183214Y10908334D01*
X5087976Y10955953D01*
X4945119Y10955953D01*
X4849880Y11003572D01*
X4802261Y11098810D01*
X4802261Y11146429D01*
X4849880Y11241667D01*
X4945119Y11289286D01*
X5087976Y11289286D01*
X5183214Y11241667D01*
X5802261Y10622620D02*
X5707023Y10670239D01*
X5659404Y10717858D01*
X5611785Y10813096D01*
X5611785Y11098810D01*
X5659404Y11194048D01*
X5707023Y11241667D01*
X5802261Y11289286D01*
X5945119Y11289286D01*
X6040357Y11241667D01*
X6087976Y11194048D01*
X6135595Y11098810D01*
X6135595Y10813096D01*
X6087976Y10717858D01*
X6040357Y10670239D01*
X5945119Y10622620D01*
X5802261Y10622620D01*
X6564166Y10622620D02*
X6564166Y11289286D01*
X6564166Y11098810D02*
X6611785Y11194048D01*
X6659404Y11241667D01*
X6754642Y11289286D01*
X6849880Y11289286D01*
X7945119Y10622620D02*
X7945119Y11622620D01*
X8183214Y11622620D01*
X8326071Y11575000D01*
X8421309Y11479762D01*
X8468928Y11384524D01*
X8516547Y11194048D01*
X8516547Y11051191D01*
X8468928Y10860715D01*
X8421309Y10765477D01*
X8326071Y10670239D01*
X8183214Y10622620D01*
X7945119Y10622620D01*
X9326071Y10670239D02*
X9230833Y10622620D01*
X9040357Y10622620D01*
X8945119Y10670239D01*
X8897500Y10765477D01*
X8897500Y11146429D01*
X8945119Y11241667D01*
X9040357Y11289286D01*
X9230833Y11289286D01*
X9326071Y11241667D01*
X9373690Y11146429D01*
X9373690Y11051191D01*
X8897500Y10955953D01*
X9754642Y10670239D02*
X9849880Y10622620D01*
X10040357Y10622620D01*
X10135595Y10670239D01*
X10183214Y10765477D01*
X10183214Y10813096D01*
X10135595Y10908334D01*
X10040357Y10955953D01*
X9897500Y10955953D01*
X9802261Y11003572D01*
X9754642Y11098810D01*
X9754642Y11146429D01*
X9802261Y11241667D01*
X9897500Y11289286D01*
X10040357Y11289286D01*
X10135595Y11241667D01*
X10611785Y10622620D02*
X10611785Y11289286D01*
X10611785Y11622620D02*
X10564166Y11575000D01*
X10611785Y11527381D01*
X10659404Y11575000D01*
X10611785Y11622620D01*
X10611785Y11527381D01*
X11516547Y11289286D02*
X11516547Y10479762D01*
X11468928Y10384524D01*
X11421309Y10336905D01*
X11326071Y10289286D01*
X11183214Y10289286D01*
X11087976Y10336905D01*
X11516547Y10670239D02*
X11421309Y10622620D01*
X11230833Y10622620D01*
X11135595Y10670239D01*
X11087976Y10717858D01*
X11040357Y10813096D01*
X11040357Y11098810D01*
X11087976Y11194048D01*
X11135595Y11241667D01*
X11230833Y11289286D01*
X11421309Y11289286D01*
X11516547Y11241667D01*
X11992738Y11289286D02*
X11992738Y10622620D01*
X11992738Y11194048D02*
X12040357Y11241667D01*
X12135595Y11289286D01*
X12278452Y11289286D01*
X12373690Y11241667D01*
X12421309Y11146429D01*
X12421309Y10622620D01*
X13659404Y10622620D02*
X13659404Y11622620D01*
X14040357Y11622620D01*
X14135595Y11575000D01*
X14183214Y11527381D01*
X14230833Y11432143D01*
X14230833Y11289286D01*
X14183214Y11194048D01*
X14135595Y11146429D01*
X14040357Y11098810D01*
X13659404Y11098810D01*
X14659404Y10622620D02*
X14659404Y11289286D01*
X14659404Y11098810D02*
X14707023Y11194048D01*
X14754642Y11241667D01*
X14849880Y11289286D01*
X14945119Y11289286D01*
X15421309Y10622620D02*
X15326071Y10670239D01*
X15278452Y10717858D01*
X15230833Y10813096D01*
X15230833Y11098810D01*
X15278452Y11194048D01*
X15326071Y11241667D01*
X15421309Y11289286D01*
X15564166Y11289286D01*
X15659404Y11241667D01*
X15707023Y11194048D01*
X15754642Y11098810D01*
X15754642Y10813096D01*
X15707023Y10717858D01*
X15659404Y10670239D01*
X15564166Y10622620D01*
X15421309Y10622620D01*
X16183214Y11289286D02*
X16183214Y10432143D01*
X16135595Y10336905D01*
X16040357Y10289286D01*
X15992738Y10289286D01*
X16183214Y11622620D02*
X16135595Y11575000D01*
X16183214Y11527381D01*
X16230833Y11575000D01*
X16183214Y11622620D01*
X16183214Y11527381D01*
X17040357Y10670239D02*
X16945119Y10622620D01*
X16754642Y10622620D01*
X16659404Y10670239D01*
X16611785Y10765477D01*
X16611785Y11146429D01*
X16659404Y11241667D01*
X16754642Y11289286D01*
X16945119Y11289286D01*
X17040357Y11241667D01*
X17087976Y11146429D01*
X17087976Y11051191D01*
X16611785Y10955953D01*
X17945119Y10670239D02*
X17849880Y10622620D01*
X17659404Y10622620D01*
X17564166Y10670239D01*
X17516547Y10717858D01*
X17468928Y10813096D01*
X17468928Y11098810D01*
X17516547Y11194048D01*
X17564166Y11241667D01*
X17659404Y11289286D01*
X17849880Y11289286D01*
X17945119Y11241667D01*
X18230833Y11289286D02*
X18611785Y11289286D01*
X18373690Y11622620D02*
X18373690Y10765477D01*
X18421309Y10670239D01*
X18516547Y10622620D01*
X18611785Y10622620D01*
X19659404Y11527381D02*
X19707023Y11575000D01*
X19802261Y11622620D01*
X20040357Y11622620D01*
X20135595Y11575000D01*
X20183214Y11527381D01*
X20230833Y11432143D01*
X20230833Y11336905D01*
X20183214Y11194048D01*
X19611785Y10622620D01*
X20230833Y10622620D01*
X20849880Y11622620D02*
X20945119Y11622620D01*
X21040357Y11575000D01*
X21087976Y11527381D01*
X21135595Y11432143D01*
X21183214Y11241667D01*
X21183214Y11003572D01*
X21135595Y10813096D01*
X21087976Y10717858D01*
X21040357Y10670239D01*
X20945119Y10622620D01*
X20849880Y10622620D01*
X20754642Y10670239D01*
X20707023Y10717858D01*
X20659404Y10813096D01*
X20611785Y11003572D01*
X20611785Y11241667D01*
X20659404Y11432143D01*
X20707023Y11527381D01*
X20754642Y11575000D01*
X20849880Y11622620D01*
X21564166Y11527381D02*
X21611785Y11575000D01*
X21707023Y11622620D01*
X21945119Y11622620D01*
X22040357Y11575000D01*
X22087976Y11527381D01*
X22135595Y11432143D01*
X22135595Y11336905D01*
X22087976Y11194048D01*
X21516547Y10622620D01*
X22135595Y10622620D01*
X23087976Y10622620D02*
X22516547Y10622620D01*
X22802261Y10622620D02*
X22802261Y11622620D01*
X22707023Y11479762D01*
X22611785Y11384524D01*
X22516547Y11336905D01*
X2468928Y9496429D02*
X2135595Y9496429D01*
X2135595Y8972620D02*
X2135595Y9972620D01*
X2611785Y9972620D01*
X2992738Y8972620D02*
X2992738Y9639286D01*
X2992738Y9972620D02*
X2945119Y9925000D01*
X2992738Y9877381D01*
X3040357Y9925000D01*
X2992738Y9972620D01*
X2992738Y9877381D01*
X3611785Y8972620D02*
X3516547Y9020239D01*
X3468928Y9115477D01*
X3468928Y9972620D01*
X3992738Y8972620D02*
X3992738Y9639286D01*
X3992738Y9972620D02*
X3945119Y9925000D01*
X3992738Y9877381D01*
X4040357Y9925000D01*
X3992738Y9972620D01*
X3992738Y9877381D01*
X4468928Y9639286D02*
X4468928Y8639286D01*
X4468928Y9591667D02*
X4564166Y9639286D01*
X4754642Y9639286D01*
X4849880Y9591667D01*
X4897500Y9544048D01*
X4945119Y9448810D01*
X4945119Y9163096D01*
X4897500Y9067858D01*
X4849880Y9020239D01*
X4754642Y8972620D01*
X4564166Y8972620D01*
X4468928Y9020239D01*
X6087976Y9258334D02*
X6564166Y9258334D01*
X5992738Y8972620D02*
X6326071Y9972620D01*
X6659404Y8972620D01*
X6897500Y9639286D02*
X7135595Y8972620D01*
X7373690Y9639286D02*
X7135595Y8972620D01*
X7040357Y8734524D01*
X6992738Y8686905D01*
X6897500Y8639286D01*
X8183214Y8972620D02*
X8183214Y9496429D01*
X8135595Y9591667D01*
X8040357Y9639286D01*
X7849880Y9639286D01*
X7754642Y9591667D01*
X8183214Y9020239D02*
X8087976Y8972620D01*
X7849880Y8972620D01*
X7754642Y9020239D01*
X7707023Y9115477D01*
X7707023Y9210715D01*
X7754642Y9305953D01*
X7849880Y9353572D01*
X8087976Y9353572D01*
X8183214Y9401191D01*
X8564166Y9639286D02*
X9087976Y9639286D01*
X8564166Y8972620D01*
X9087976Y8972620D01*
X9468928Y8972620D02*
X9468928Y9639286D01*
X9468928Y9972620D02*
X9421309Y9925000D01*
X9468928Y9877381D01*
X9516547Y9925000D01*
X9468928Y9972620D01*
X9468928Y9877381D01*
X2087976Y7370239D02*
X2230833Y7322620D01*
X2468928Y7322620D01*
X2564166Y7370239D01*
X2611785Y7417858D01*
X2659404Y7513096D01*
X2659404Y7608334D01*
X2611785Y7703572D01*
X2564166Y7751191D01*
X2468928Y7798810D01*
X2278452Y7846429D01*
X2183214Y7894048D01*
X2135595Y7941667D01*
X2087976Y8036905D01*
X2087976Y8132143D01*
X2135595Y8227381D01*
X2183214Y8275000D01*
X2278452Y8322620D01*
X2516547Y8322620D01*
X2659404Y8275000D01*
X2945119Y7989286D02*
X3326071Y7989286D01*
X3087976Y8322620D02*
X3087976Y7465477D01*
X3135595Y7370239D01*
X3230833Y7322620D01*
X3326071Y7322620D01*
X4040357Y7370239D02*
X3945119Y7322620D01*
X3754642Y7322620D01*
X3659404Y7370239D01*
X3611785Y7465477D01*
X3611785Y7846429D01*
X3659404Y7941667D01*
X3754642Y7989286D01*
X3945119Y7989286D01*
X4040357Y7941667D01*
X4087976Y7846429D01*
X4087976Y7751191D01*
X3611785Y7655953D01*
X4516547Y7989286D02*
X4516547Y6989286D01*
X4516547Y7941667D02*
X4611785Y7989286D01*
X4802261Y7989286D01*
X4897500Y7941667D01*
X4945119Y7894048D01*
X4992738Y7798810D01*
X4992738Y7513096D01*
X4945119Y7417858D01*
X4897500Y7370239D01*
X4802261Y7322620D01*
X4611785Y7322620D01*
X4516547Y7370239D01*
X5421309Y7322620D02*
X5421309Y8322620D01*
X5849880Y7322620D02*
X5849880Y7846429D01*
X5802261Y7941667D01*
X5707023Y7989286D01*
X5564166Y7989286D01*
X5468928Y7941667D01*
X5421309Y7894048D01*
X6707023Y7370239D02*
X6611785Y7322620D01*
X6421309Y7322620D01*
X6326071Y7370239D01*
X6278452Y7465477D01*
X6278452Y7846429D01*
X6326071Y7941667D01*
X6421309Y7989286D01*
X6611785Y7989286D01*
X6707023Y7941667D01*
X6754642Y7846429D01*
X6754642Y7751191D01*
X6278452Y7655953D01*
X7183214Y7989286D02*
X7183214Y7322620D01*
X7183214Y7894048D02*
X7230833Y7941667D01*
X7326071Y7989286D01*
X7468928Y7989286D01*
X7564166Y7941667D01*
X7611785Y7846429D01*
X7611785Y7322620D01*
X8849880Y7322620D02*
X8849880Y8322620D01*
X9087976Y8322620D01*
X9230833Y8275000D01*
X9326071Y8179762D01*
X9373690Y8084524D01*
X9421309Y7894048D01*
X9421309Y7751191D01*
X9373690Y7560715D01*
X9326071Y7465477D01*
X9230833Y7370239D01*
X9087976Y7322620D01*
X8849880Y7322620D01*
X10230833Y7370239D02*
X10135595Y7322620D01*
X9945119Y7322620D01*
X9849880Y7370239D01*
X9802261Y7465477D01*
X9802261Y7846429D01*
X9849880Y7941667D01*
X9945119Y7989286D01*
X10135595Y7989286D01*
X10230833Y7941667D01*
X10278452Y7846429D01*
X10278452Y7751191D01*
X9802261Y7655953D01*
X11802261Y7846429D02*
X11945119Y7798810D01*
X11992738Y7751191D01*
X12040357Y7655953D01*
X12040357Y7513096D01*
X11992738Y7417858D01*
X11945119Y7370239D01*
X11849880Y7322620D01*
X11468928Y7322620D01*
X11468928Y8322620D01*
X11802261Y8322620D01*
X11897500Y8275000D01*
X11945119Y8227381D01*
X11992738Y8132143D01*
X11992738Y8036905D01*
X11945119Y7941667D01*
X11897500Y7894048D01*
X11802261Y7846429D01*
X11468928Y7846429D01*
X12897500Y7322620D02*
X12897500Y7846429D01*
X12849880Y7941667D01*
X12754642Y7989286D01*
X12564166Y7989286D01*
X12468928Y7941667D01*
X12897500Y7370239D02*
X12802261Y7322620D01*
X12564166Y7322620D01*
X12468928Y7370239D01*
X12421309Y7465477D01*
X12421309Y7560715D01*
X12468928Y7655953D01*
X12564166Y7703572D01*
X12802261Y7703572D01*
X12897500Y7751191D01*
X13373690Y7989286D02*
X13373690Y7322620D01*
X13373690Y7894048D02*
X13421309Y7941667D01*
X13516547Y7989286D01*
X13659404Y7989286D01*
X13754642Y7941667D01*
X13802261Y7846429D01*
X13802261Y7322620D01*
X14278452Y7322620D02*
X14278452Y8322620D01*
X14373690Y7703572D02*
X14659404Y7322620D01*
X14659404Y7989286D02*
X14278452Y7608334D01*
X2135595Y5672620D02*
X2135595Y6672620D01*
X2135595Y6196429D02*
X2707023Y6196429D01*
X2707023Y5672620D02*
X2707023Y6672620D01*
X3611785Y5672620D02*
X3611785Y6196429D01*
X3564166Y6291667D01*
X3468928Y6339286D01*
X3278452Y6339286D01*
X3183214Y6291667D01*
X3611785Y5720239D02*
X3516547Y5672620D01*
X3278452Y5672620D01*
X3183214Y5720239D01*
X3135595Y5815477D01*
X3135595Y5910715D01*
X3183214Y6005953D01*
X3278452Y6053572D01*
X3516547Y6053572D01*
X3611785Y6101191D01*
X3992738Y6339286D02*
X4230833Y5672620D01*
X4468928Y6339286D02*
X4230833Y5672620D01*
X4135595Y5434524D01*
X4087976Y5386905D01*
X3992738Y5339286D01*
X4992738Y5672620D02*
X4897500Y5720239D01*
X4849880Y5815477D01*
X4849880Y6672620D01*
X5754642Y5720239D02*
X5659404Y5672620D01*
X5468928Y5672620D01*
X5373690Y5720239D01*
X5326071Y5815477D01*
X5326071Y6196429D01*
X5373690Y6291667D01*
X5468928Y6339286D01*
X5659404Y6339286D01*
X5754642Y6291667D01*
X5802261Y6196429D01*
X5802261Y6101191D01*
X5326071Y6005953D01*
X6135595Y6339286D02*
X6373690Y5672620D01*
X6611785Y6339286D02*
X6373690Y5672620D01*
X6278452Y5434524D01*
X6230833Y5386905D01*
X6135595Y5339286D01*
X8278452Y6625000D02*
X8183214Y6672620D01*
X8040357Y6672620D01*
X7897500Y6625000D01*
X7802261Y6529762D01*
X7754642Y6434524D01*
X7707023Y6244048D01*
X7707023Y6101191D01*
X7754642Y5910715D01*
X7802261Y5815477D01*
X7897500Y5720239D01*
X8040357Y5672620D01*
X8135595Y5672620D01*
X8278452Y5720239D01*
X8326071Y5767858D01*
X8326071Y6101191D01*
X8135595Y6101191D01*
X8754642Y5672620D02*
X8754642Y6339286D01*
X8754642Y6672620D02*
X8707023Y6625000D01*
X8754642Y6577381D01*
X8802261Y6625000D01*
X8754642Y6672620D01*
X8754642Y6577381D01*
X9373690Y5672620D02*
X9278452Y5720239D01*
X9230833Y5815477D01*
X9230833Y6672620D01*
X9754642Y5672620D02*
X9754642Y6672620D01*
X9754642Y6291667D02*
X9849880Y6339286D01*
X10040357Y6339286D01*
X10135595Y6291667D01*
X10183214Y6244048D01*
X10230833Y6148810D01*
X10230833Y5863096D01*
X10183214Y5767858D01*
X10135595Y5720239D01*
X10040357Y5672620D01*
X9849880Y5672620D01*
X9754642Y5720239D01*
X11040357Y5720239D02*
X10945119Y5672620D01*
X10754642Y5672620D01*
X10659404Y5720239D01*
X10611785Y5815477D01*
X10611785Y6196429D01*
X10659404Y6291667D01*
X10754642Y6339286D01*
X10945119Y6339286D01*
X11040357Y6291667D01*
X11087976Y6196429D01*
X11087976Y6101191D01*
X10611785Y6005953D01*
X11516547Y5672620D02*
X11516547Y6339286D01*
X11516547Y6148810D02*
X11564166Y6244048D01*
X11611785Y6291667D01*
X11707023Y6339286D01*
X11802261Y6339286D01*
X11992738Y6339286D02*
X12373690Y6339286D01*
X12135595Y6672620D02*
X12135595Y5815477D01*
X12183214Y5720239D01*
X12278452Y5672620D01*
X12373690Y5672620D01*
X36566666Y30976191D02*
X36566666Y31452381D01*
X36852380Y30880953D02*
X35852380Y31214286D01*
X36852380Y31547620D01*
X36852380Y31880953D02*
X35852380Y31880953D01*
X36566666Y32214286D01*
X35852380Y32547620D01*
X36852380Y32547620D01*
X36852380Y33023810D02*
X35852380Y33023810D01*
X35852380Y33404762D01*
X35900000Y33500000D01*
X35947619Y33547620D01*
X36042857Y33595239D01*
X36185714Y33595239D01*
X36280952Y33547620D01*
X36328571Y33500000D01*
X36376190Y33404762D01*
X36376190Y33023810D01*
X36757142Y35357143D02*
X36804761Y35309524D01*
X36852380Y35166667D01*
X36852380Y35071429D01*
X36804761Y34928572D01*
X36709523Y34833334D01*
X36614285Y34785715D01*
X36423809Y34738096D01*
X36280952Y34738096D01*
X36090476Y34785715D01*
X35995238Y34833334D01*
X35900000Y34928572D01*
X35852380Y35071429D01*
X35852380Y35166667D01*
X35900000Y35309524D01*
X35947619Y35357143D01*
X36566666Y35738096D02*
X36566666Y36214286D01*
X36852380Y35642858D02*
X35852380Y35976191D01*
X36852380Y36309524D01*
X36852380Y37119048D02*
X36852380Y36642858D01*
X35852380Y36642858D01*
X35452380Y31533334D02*
X34452380Y31533334D01*
X34452380Y31914286D01*
X34500000Y32009524D01*
X34547619Y32057143D01*
X34642857Y32104762D01*
X34785714Y32104762D01*
X34880952Y32057143D01*
X34928571Y32009524D01*
X34976190Y31914286D01*
X34976190Y31533334D01*
X35452380Y32533334D02*
X34452380Y32533334D01*
X34452380Y32771429D01*
X34500000Y32914286D01*
X34595238Y33009524D01*
X34690476Y33057143D01*
X34880952Y33104762D01*
X35023809Y33104762D01*
X35214285Y33057143D01*
X35309523Y33009524D01*
X35404761Y32914286D01*
X35452380Y32771429D01*
X35452380Y32533334D01*
X35452380Y35057143D02*
X34452380Y35057143D01*
X35452380Y35533334D02*
X34452380Y35533334D01*
X35452380Y36104762D01*
X34452380Y36104762D01*
X34452380Y36438096D02*
X34452380Y37009524D01*
X35452380Y36723810D02*
X34452380Y36723810D01*
X34027380Y32033334D02*
X34027380Y31557143D01*
X33027380Y31557143D01*
X33503571Y32366667D02*
X33503571Y32700000D01*
X34027380Y32842858D02*
X34027380Y32366667D01*
X33027380Y32366667D01*
X33027380Y32842858D01*
X34027380Y33271429D02*
X33027380Y33271429D01*
X33027380Y33509524D01*
X33075000Y33652381D01*
X33170238Y33747620D01*
X33265476Y33795239D01*
X33455952Y33842858D01*
X33598809Y33842858D01*
X33789285Y33795239D01*
X33884523Y33747620D01*
X33979761Y33652381D01*
X34027380Y33509524D01*
X34027380Y33271429D01*
X34027380Y35033334D02*
X33027380Y35033334D01*
X34027380Y35509524D02*
X33027380Y35509524D01*
X34027380Y36080953D01*
X33027380Y36080953D01*
X33027380Y36414286D02*
X33027380Y36985715D01*
X34027380Y36700000D02*
X33027380Y36700000D01*
D11*
X58650000Y26500000D02*
G75*
G03X58650000Y26500000I-150000J0D01*
G01*
X52650000Y24500000D02*
G75*
G03X52650000Y24500000I-150000J0D01*
G01*
X34150000Y12750000D02*
G75*
G03X34150000Y12750000I-150000J0D01*
G01*
D10*
X54452380Y27630953D02*
X55166666Y27630953D01*
X55309523Y27583334D01*
X55404761Y27488096D01*
X55452380Y27345239D01*
X55452380Y27250000D01*
X55452380Y28583334D02*
X55452380Y28107143D01*
X54452380Y28107143D01*
X55357142Y29488096D02*
X55404761Y29440477D01*
X55452380Y29297620D01*
X55452380Y29202381D01*
X55404761Y29059524D01*
X55309523Y28964286D01*
X55214285Y28916667D01*
X55023809Y28869048D01*
X54880952Y28869048D01*
X54690476Y28916667D01*
X54595238Y28964286D01*
X54500000Y29059524D01*
X54452380Y29202381D01*
X54452380Y29297620D01*
X54500000Y29440477D01*
X54547619Y29488096D01*
X54452380Y30202381D02*
X55166666Y30202381D01*
X55309523Y30154762D01*
X55404761Y30059524D01*
X55452380Y29916667D01*
X55452380Y29821429D01*
X55452380Y31154762D02*
X55452380Y30678572D01*
X54452380Y30678572D01*
X55357142Y32059524D02*
X55404761Y32011905D01*
X55452380Y31869048D01*
X55452380Y31773810D01*
X55404761Y31630953D01*
X55309523Y31535715D01*
X55214285Y31488096D01*
X55023809Y31440477D01*
X54880952Y31440477D01*
X54690476Y31488096D01*
X54595238Y31535715D01*
X54500000Y31630953D01*
X54452380Y31773810D01*
X54452380Y31869048D01*
X54500000Y32011905D01*
X54547619Y32059524D01*
X54452380Y32773810D02*
X55166666Y32773810D01*
X55309523Y32726191D01*
X55404761Y32630953D01*
X55452380Y32488096D01*
X55452380Y32392858D01*
X55452380Y33726191D02*
X55452380Y33250000D01*
X54452380Y33250000D01*
X55357142Y34630953D02*
X55404761Y34583334D01*
X55452380Y34440477D01*
X55452380Y34345239D01*
X55404761Y34202381D01*
X55309523Y34107143D01*
X55214285Y34059524D01*
X55023809Y34011905D01*
X54880952Y34011905D01*
X54690476Y34059524D01*
X54595238Y34107143D01*
X54500000Y34202381D01*
X54452380Y34345239D01*
X54452380Y34440477D01*
X54500000Y34583334D01*
X54547619Y34630953D01*
X54452380Y35345239D02*
X55166666Y35345239D01*
X55309523Y35297620D01*
X55404761Y35202381D01*
X55452380Y35059524D01*
X55452380Y34964286D01*
X55452380Y36297620D02*
X55452380Y35821429D01*
X54452380Y35821429D01*
X55357142Y37202381D02*
X55404761Y37154762D01*
X55452380Y37011905D01*
X55452380Y36916667D01*
X55404761Y36773810D01*
X55309523Y36678572D01*
X55214285Y36630953D01*
X55023809Y36583334D01*
X54880952Y36583334D01*
X54690476Y36630953D01*
X54595238Y36678572D01*
X54500000Y36773810D01*
X54452380Y36916667D01*
X54452380Y37011905D01*
X54500000Y37154762D01*
X54547619Y37202381D01*
X7819047Y27528572D02*
X8580952Y27528572D01*
X8200000Y27147620D02*
X8200000Y27909524D01*
X7419047Y29728572D02*
X8180952Y29728572D01*
X7800000Y29347620D02*
X7800000Y30109524D01*
X50619047Y43928572D02*
X51380952Y43928572D01*
X51000000Y43547620D02*
X51000000Y44309524D01*
X48869047Y43928572D02*
X49630952Y43928572D01*
X49250000Y43547620D02*
X49250000Y44309524D01*
X46869047Y43928572D02*
X47630952Y43928572D01*
X47250000Y43547620D02*
X47250000Y44309524D01*
X45119047Y43928572D02*
X45880952Y43928572D01*
X45500000Y43547620D02*
X45500000Y44309524D01*
X48988095Y28000000D02*
X48892857Y28047620D01*
X48750000Y28047620D01*
X48607142Y28000000D01*
X48511904Y27904762D01*
X48464285Y27809524D01*
X48416666Y27619048D01*
X48416666Y27476191D01*
X48464285Y27285715D01*
X48511904Y27190477D01*
X48607142Y27095239D01*
X48750000Y27047620D01*
X48845238Y27047620D01*
X48988095Y27095239D01*
X49035714Y27142858D01*
X49035714Y27476191D01*
X48845238Y27476191D01*
X49464285Y27047620D02*
X49464285Y28047620D01*
X50035714Y27047620D01*
X50035714Y28047620D01*
X50511904Y27047620D02*
X50511904Y28047620D01*
X50750000Y28047620D01*
X50892857Y28000000D01*
X50988095Y27904762D01*
X51035714Y27809524D01*
X51083333Y27619048D01*
X51083333Y27476191D01*
X51035714Y27285715D01*
X50988095Y27190477D01*
X50892857Y27095239D01*
X50750000Y27047620D01*
X50511904Y27047620D01*
X50452380Y30547620D02*
X50547619Y30547620D01*
X50642857Y30500000D01*
X50690476Y30452381D01*
X50738095Y30357143D01*
X50785714Y30166667D01*
X50785714Y29928572D01*
X50738095Y29738096D01*
X50690476Y29642858D01*
X50642857Y29595239D01*
X50547619Y29547620D01*
X50452380Y29547620D01*
X50357142Y29595239D01*
X50309523Y29642858D01*
X50261904Y29738096D01*
X50214285Y29928572D01*
X50214285Y30166667D01*
X50261904Y30357143D01*
X50309523Y30452381D01*
X50357142Y30500000D01*
X50452380Y30547620D01*
X50785714Y32047620D02*
X50214285Y32047620D01*
X50500000Y32047620D02*
X50500000Y33047620D01*
X50404761Y32904762D01*
X50309523Y32809524D01*
X50214285Y32761905D01*
X50214285Y35452381D02*
X50261904Y35500000D01*
X50357142Y35547620D01*
X50595238Y35547620D01*
X50690476Y35500000D01*
X50738095Y35452381D01*
X50785714Y35357143D01*
X50785714Y35261905D01*
X50738095Y35119048D01*
X50166666Y34547620D01*
X50785714Y34547620D01*
X50690476Y37714286D02*
X50690476Y37047620D01*
X50452380Y38095239D02*
X50214285Y37380953D01*
X50833333Y37380953D01*
X60309523Y37047620D02*
X60500000Y37047620D01*
X60595238Y37095239D01*
X60642857Y37142858D01*
X60738095Y37285715D01*
X60785714Y37476191D01*
X60785714Y37857143D01*
X60738095Y37952381D01*
X60690476Y38000000D01*
X60595238Y38047620D01*
X60404761Y38047620D01*
X60309523Y38000000D01*
X60261904Y37952381D01*
X60214285Y37857143D01*
X60214285Y37619048D01*
X60261904Y37523810D01*
X60309523Y37476191D01*
X60404761Y37428572D01*
X60595238Y37428572D01*
X60690476Y37476191D01*
X60738095Y37523810D01*
X60785714Y37619048D01*
X60166666Y35547620D02*
X60833333Y35547620D01*
X60404761Y34547620D01*
X60309523Y32047620D02*
X59738095Y32047620D01*
X60023809Y32047620D02*
X60023809Y33047620D01*
X59928571Y32904762D01*
X59833333Y32809524D01*
X59738095Y32761905D01*
X60690476Y32952381D02*
X60738095Y33000000D01*
X60833333Y33047620D01*
X61071428Y33047620D01*
X61166666Y33000000D01*
X61214285Y32952381D01*
X61261904Y32857143D01*
X61261904Y32761905D01*
X61214285Y32619048D01*
X60642857Y32047620D01*
X61261904Y32047620D01*
X60309523Y29547620D02*
X59738095Y29547620D01*
X60023809Y29547620D02*
X60023809Y30547620D01*
X59928571Y30404762D01*
X59833333Y30309524D01*
X59738095Y30261905D01*
X60642857Y30547620D02*
X61261904Y30547620D01*
X60928571Y30166667D01*
X61071428Y30166667D01*
X61166666Y30119048D01*
X61214285Y30071429D01*
X61261904Y29976191D01*
X61261904Y29738096D01*
X61214285Y29642858D01*
X61166666Y29595239D01*
X61071428Y29547620D01*
X60785714Y29547620D01*
X60690476Y29595239D01*
X60642857Y29642858D01*
X60309523Y27047620D02*
X60500000Y27047620D01*
X60595238Y27095239D01*
X60642857Y27142858D01*
X60738095Y27285715D01*
X60785714Y27476191D01*
X60785714Y27857143D01*
X60738095Y27952381D01*
X60690476Y28000000D01*
X60595238Y28047620D01*
X60404761Y28047620D01*
X60309523Y28000000D01*
X60261904Y27952381D01*
X60214285Y27857143D01*
X60214285Y27619048D01*
X60261904Y27523810D01*
X60309523Y27476191D01*
X60404761Y27428572D01*
X60595238Y27428572D01*
X60690476Y27476191D01*
X60738095Y27523810D01*
X60785714Y27619048D01*
X60011904Y14047620D02*
X60630952Y14047620D01*
X60297619Y13666667D01*
X60440476Y13666667D01*
X60535714Y13619048D01*
X60583333Y13571429D01*
X60630952Y13476191D01*
X60630952Y13238096D01*
X60583333Y13142858D01*
X60535714Y13095239D01*
X60440476Y13047620D01*
X60154761Y13047620D01*
X60059523Y13095239D01*
X60011904Y13142858D01*
X60916666Y14047620D02*
X61250000Y13047620D01*
X61583333Y14047620D01*
X61821428Y14047620D02*
X62440476Y14047620D01*
X62107142Y13666667D01*
X62250000Y13666667D01*
X62345238Y13619048D01*
X62392857Y13571429D01*
X62440476Y13476191D01*
X62440476Y13238096D01*
X62392857Y13142858D01*
X62345238Y13095239D01*
X62250000Y13047620D01*
X61964285Y13047620D01*
X61869047Y13095239D01*
X61821428Y13142858D01*
X59940476Y15833334D02*
X60416666Y15833334D01*
X59845238Y15547620D02*
X60178571Y16547620D01*
X60511904Y15547620D01*
X61321428Y16547620D02*
X60845238Y16547620D01*
X60797619Y16071429D01*
X60845238Y16119048D01*
X60940476Y16166667D01*
X61178571Y16166667D01*
X61273809Y16119048D01*
X61321428Y16071429D01*
X61369047Y15976191D01*
X61369047Y15738096D01*
X61321428Y15642858D01*
X61273809Y15595239D01*
X61178571Y15547620D01*
X60940476Y15547620D01*
X60845238Y15595239D01*
X60797619Y15642858D01*
X61797619Y15928572D02*
X62559523Y15928572D01*
X62178571Y15547620D02*
X62178571Y16309524D01*
X63511904Y16547620D02*
X63035714Y16547620D01*
X62988095Y16071429D01*
X63035714Y16119048D01*
X63130952Y16166667D01*
X63369047Y16166667D01*
X63464285Y16119048D01*
X63511904Y16071429D01*
X63559523Y15976191D01*
X63559523Y15738096D01*
X63511904Y15642858D01*
X63464285Y15595239D01*
X63369047Y15547620D01*
X63130952Y15547620D01*
X63035714Y15595239D01*
X62988095Y15642858D01*
X59988095Y20547620D02*
X59988095Y21547620D01*
X60369047Y21547620D01*
X60464285Y21500000D01*
X60511904Y21452381D01*
X60559523Y21357143D01*
X60559523Y21214286D01*
X60511904Y21119048D01*
X60464285Y21071429D01*
X60369047Y21023810D01*
X59988095Y21023810D01*
X60988095Y20547620D02*
X60988095Y21547620D01*
X61226190Y21547620D01*
X61369047Y21500000D01*
X61464285Y21404762D01*
X61511904Y21309524D01*
X61559523Y21119048D01*
X61559523Y20976191D01*
X61511904Y20785715D01*
X61464285Y20690477D01*
X61369047Y20595239D01*
X61226190Y20547620D01*
X60988095Y20547620D01*
X60488095Y23047620D02*
X60011904Y23047620D01*
X60011904Y24047620D01*
X60821428Y23571429D02*
X61154761Y23571429D01*
X61297619Y23047620D02*
X60821428Y23047620D01*
X60821428Y24047620D01*
X61297619Y24047620D01*
X61726190Y23047620D02*
X61726190Y24047620D01*
X61964285Y24047620D01*
X62107142Y24000000D01*
X62202380Y23904762D01*
X62250000Y23809524D01*
X62297619Y23619048D01*
X62297619Y23476191D01*
X62250000Y23285715D01*
X62202380Y23190477D01*
X62107142Y23095239D01*
X61964285Y23047620D01*
X61726190Y23047620D01*
X62726190Y23428572D02*
X63488095Y23428572D01*
X63107142Y23047620D02*
X63107142Y23809524D01*
X60488095Y19000000D02*
X60392857Y19047620D01*
X60250000Y19047620D01*
X60107142Y19000000D01*
X60011904Y18904762D01*
X59964285Y18809524D01*
X59916666Y18619048D01*
X59916666Y18476191D01*
X59964285Y18285715D01*
X60011904Y18190477D01*
X60107142Y18095239D01*
X60250000Y18047620D01*
X60345238Y18047620D01*
X60488095Y18095239D01*
X60535714Y18142858D01*
X60535714Y18476191D01*
X60345238Y18476191D01*
X60964285Y18047620D02*
X60964285Y19047620D01*
X61535714Y18047620D01*
X61535714Y19047620D01*
X62011904Y18047620D02*
X62011904Y19047620D01*
X62250000Y19047620D01*
X62392857Y19000000D01*
X62488095Y18904762D01*
X62535714Y18809524D01*
X62583333Y18619048D01*
X62583333Y18476191D01*
X62535714Y18285715D01*
X62488095Y18190477D01*
X62392857Y18095239D01*
X62250000Y18047620D01*
X62011904Y18047620D01*
X49685714Y15833334D02*
X50161904Y15833334D01*
X49590476Y15547620D02*
X49923809Y16547620D01*
X50257142Y15547620D01*
X51019047Y16214286D02*
X51019047Y15547620D01*
X50780952Y16595239D02*
X50542857Y15880953D01*
X51161904Y15880953D01*
X48988095Y19000000D02*
X48892857Y19047620D01*
X48750000Y19047620D01*
X48607142Y19000000D01*
X48511904Y18904762D01*
X48464285Y18809524D01*
X48416666Y18619048D01*
X48416666Y18476191D01*
X48464285Y18285715D01*
X48511904Y18190477D01*
X48607142Y18095239D01*
X48750000Y18047620D01*
X48845238Y18047620D01*
X48988095Y18095239D01*
X49035714Y18142858D01*
X49035714Y18476191D01*
X48845238Y18476191D01*
X49464285Y18047620D02*
X49464285Y19047620D01*
X50035714Y18047620D01*
X50035714Y19047620D01*
X50511904Y18047620D02*
X50511904Y19047620D01*
X50750000Y19047620D01*
X50892857Y19000000D01*
X50988095Y18904762D01*
X51035714Y18809524D01*
X51083333Y18619048D01*
X51083333Y18476191D01*
X51035714Y18285715D01*
X50988095Y18190477D01*
X50892857Y18095239D01*
X50750000Y18047620D01*
X50511904Y18047620D01*
X50059523Y13947620D02*
X49583333Y13947620D01*
X49535714Y13471429D01*
X49583333Y13519048D01*
X49678571Y13566667D01*
X49916666Y13566667D01*
X50011904Y13519048D01*
X50059523Y13471429D01*
X50107142Y13376191D01*
X50107142Y13138096D01*
X50059523Y13042858D01*
X50011904Y12995239D01*
X49916666Y12947620D01*
X49678571Y12947620D01*
X49583333Y12995239D01*
X49535714Y13042858D01*
X50392857Y13947620D02*
X50726190Y12947620D01*
X51059523Y13947620D01*
X50059523Y24047620D02*
X49583333Y24047620D01*
X49535714Y23571429D01*
X49583333Y23619048D01*
X49678571Y23666667D01*
X49916666Y23666667D01*
X50011904Y23619048D01*
X50059523Y23571429D01*
X50107142Y23476191D01*
X50107142Y23238096D01*
X50059523Y23142858D01*
X50011904Y23095239D01*
X49916666Y23047620D01*
X49678571Y23047620D01*
X49583333Y23095239D01*
X49535714Y23142858D01*
X50392857Y24047620D02*
X50726190Y23047620D01*
X51059523Y24047620D01*
X45904761Y20547620D02*
X45428571Y20547620D01*
X45428571Y21547620D01*
X46238095Y20547620D02*
X46238095Y21547620D01*
X46571428Y20833334D01*
X46904761Y21547620D01*
X46904761Y20547620D01*
X47285714Y21547620D02*
X47904761Y21547620D01*
X47571428Y21166667D01*
X47714285Y21166667D01*
X47809523Y21119048D01*
X47857142Y21071429D01*
X47904761Y20976191D01*
X47904761Y20738096D01*
X47857142Y20642858D01*
X47809523Y20595239D01*
X47714285Y20547620D01*
X47428571Y20547620D01*
X47333333Y20595239D01*
X47285714Y20642858D01*
X48809523Y21547620D02*
X48333333Y21547620D01*
X48285714Y21071429D01*
X48333333Y21119048D01*
X48428571Y21166667D01*
X48666666Y21166667D01*
X48761904Y21119048D01*
X48809523Y21071429D01*
X48857142Y20976191D01*
X48857142Y20738096D01*
X48809523Y20642858D01*
X48761904Y20595239D01*
X48666666Y20547620D01*
X48428571Y20547620D01*
X48333333Y20595239D01*
X48285714Y20642858D01*
X50047619Y20547620D02*
X50047619Y21547620D01*
X50285714Y21547620D01*
X50428571Y21500000D01*
X50523809Y21404762D01*
X50571428Y21309524D01*
X50619047Y21119048D01*
X50619047Y20976191D01*
X50571428Y20785715D01*
X50523809Y20690477D01*
X50428571Y20595239D01*
X50285714Y20547620D01*
X50047619Y20547620D01*
X28392380Y5365715D02*
X28392380Y4794286D01*
X28392380Y5080000D02*
X27392380Y5080000D01*
X27535238Y4984762D01*
X27630476Y4889524D01*
X27678095Y4794286D01*
D12*
G04 #@! TO.C,G\002A\002A\002A*
G36*
X1503522Y25514128D02*
G01*
X1579511Y25951777D01*
X1707407Y26370282D01*
X1888309Y26773445D01*
X2063750Y27074778D01*
X2136804Y27184741D01*
X2212140Y27288734D01*
X2295886Y27393690D01*
X2394170Y27506539D01*
X2513120Y27634213D01*
X2658864Y27783645D01*
X2837528Y27961767D01*
X2917462Y28040516D01*
X3383223Y28498253D01*
X2846356Y29028293D01*
X2595260Y29282430D01*
X2384154Y29511322D01*
X2207503Y29723093D01*
X2059771Y29925866D01*
X1935422Y30127765D01*
X1828922Y30336912D01*
X1734734Y30561431D01*
X1661241Y30767370D01*
X1586132Y31012385D01*
X1533253Y31238891D01*
X1500254Y31464217D01*
X1484787Y31705690D01*
X1484500Y31980638D01*
X1486505Y32056000D01*
X1506134Y32388807D01*
X1545791Y32684194D01*
X1609848Y32958971D01*
X1702679Y33229948D01*
X1828656Y33513936D01*
X1905270Y33665733D01*
X2135201Y34046523D01*
X2410761Y34398356D01*
X2727099Y34717529D01*
X3079365Y35000344D01*
X3462710Y35243098D01*
X3872284Y35442090D01*
X4303236Y35593620D01*
X4498000Y35644216D01*
X4681075Y35676703D01*
X4903200Y35700493D01*
X5147579Y35715094D01*
X5397417Y35720012D01*
X5635921Y35714757D01*
X5846293Y35698836D01*
X5937669Y35686397D01*
X6402682Y35583099D01*
X6843835Y35429370D01*
X7264431Y35223810D01*
X7667771Y34965017D01*
X7708934Y34934936D01*
X7800000Y34867608D01*
X7799973Y33172526D01*
X7799945Y31477445D01*
X6960361Y31054112D01*
X6120778Y30630778D01*
X6054664Y30497512D01*
X6013163Y30397575D01*
X6001460Y30313269D01*
X6008142Y30248285D01*
X6017704Y30198995D01*
X6031236Y30154252D01*
X6052552Y30111631D01*
X6085462Y30068707D01*
X6133780Y30023056D01*
X6201319Y29972254D01*
X6291889Y29913877D01*
X6409305Y29845499D01*
X6557378Y29764698D01*
X6739920Y29669049D01*
X6960745Y29556126D01*
X7223665Y29423507D01*
X7532492Y29268766D01*
X7607570Y29231215D01*
X7868768Y29100468D01*
X8114192Y28977370D01*
X8339313Y28864208D01*
X8539603Y28763273D01*
X8710533Y28676850D01*
X8847575Y28607229D01*
X8946201Y28556698D01*
X9001882Y28527545D01*
X9012907Y28521112D01*
X8987718Y28508715D01*
X8915076Y28475094D01*
X8799048Y28422086D01*
X8643699Y28351530D01*
X8453096Y28265263D01*
X8231304Y28165124D01*
X7982389Y28052951D01*
X7710416Y27930581D01*
X7419452Y27799854D01*
X7157296Y27682217D01*
X6791910Y27517789D01*
X6458460Y27366590D01*
X6159428Y27229784D01*
X5897293Y27108536D01*
X5674535Y27004008D01*
X5493634Y26917363D01*
X5357069Y26849767D01*
X5267322Y26802382D01*
X5227011Y26776510D01*
X5145906Y26660264D01*
X5108617Y26523382D01*
X5115120Y26380784D01*
X5165390Y26247388D01*
X5227989Y26166094D01*
X5269533Y26136716D01*
X5350301Y26092983D01*
X5472386Y26033951D01*
X5637884Y25958675D01*
X5848888Y25866211D01*
X6107493Y25755616D01*
X6415795Y25625944D01*
X6553745Y25568421D01*
X7800000Y25049841D01*
X7800000Y22127947D01*
X7545120Y21953376D01*
X7144380Y21711270D01*
X6726974Y21522800D01*
X6291644Y21387583D01*
X5837130Y21305231D01*
X5362172Y21275360D01*
X5328474Y21275225D01*
X4948159Y21290787D01*
X4594680Y21339877D01*
X4247243Y21425734D01*
X4135621Y21460946D01*
X3708419Y21630696D01*
X3307196Y21847058D01*
X2935760Y22106243D01*
X2597915Y22404461D01*
X2297470Y22737921D01*
X2038229Y23102834D01*
X1823999Y23495409D01*
X1658587Y23911857D01*
X1651164Y23934807D01*
X1559586Y24267701D01*
X1503820Y24590344D01*
X1479911Y24928343D01*
X1478336Y25053531D01*
X1503522Y25514128D01*
G37*
X1503522Y25514128D02*
X1579511Y25951777D01*
X1707407Y26370282D01*
X1888309Y26773445D01*
X2063750Y27074778D01*
X2136804Y27184741D01*
X2212140Y27288734D01*
X2295886Y27393690D01*
X2394170Y27506539D01*
X2513120Y27634213D01*
X2658864Y27783645D01*
X2837528Y27961767D01*
X2917462Y28040516D01*
X3383223Y28498253D01*
X2846356Y29028293D01*
X2595260Y29282430D01*
X2384154Y29511322D01*
X2207503Y29723093D01*
X2059771Y29925866D01*
X1935422Y30127765D01*
X1828922Y30336912D01*
X1734734Y30561431D01*
X1661241Y30767370D01*
X1586132Y31012385D01*
X1533253Y31238891D01*
X1500254Y31464217D01*
X1484787Y31705690D01*
X1484500Y31980638D01*
X1486505Y32056000D01*
X1506134Y32388807D01*
X1545791Y32684194D01*
X1609848Y32958971D01*
X1702679Y33229948D01*
X1828656Y33513936D01*
X1905270Y33665733D01*
X2135201Y34046523D01*
X2410761Y34398356D01*
X2727099Y34717529D01*
X3079365Y35000344D01*
X3462710Y35243098D01*
X3872284Y35442090D01*
X4303236Y35593620D01*
X4498000Y35644216D01*
X4681075Y35676703D01*
X4903200Y35700493D01*
X5147579Y35715094D01*
X5397417Y35720012D01*
X5635921Y35714757D01*
X5846293Y35698836D01*
X5937669Y35686397D01*
X6402682Y35583099D01*
X6843835Y35429370D01*
X7264431Y35223810D01*
X7667771Y34965017D01*
X7708934Y34934936D01*
X7800000Y34867608D01*
X7799973Y33172526D01*
X7799945Y31477445D01*
X6960361Y31054112D01*
X6120778Y30630778D01*
X6054664Y30497512D01*
X6013163Y30397575D01*
X6001460Y30313269D01*
X6008142Y30248285D01*
X6017704Y30198995D01*
X6031236Y30154252D01*
X6052552Y30111631D01*
X6085462Y30068707D01*
X6133780Y30023056D01*
X6201319Y29972254D01*
X6291889Y29913877D01*
X6409305Y29845499D01*
X6557378Y29764698D01*
X6739920Y29669049D01*
X6960745Y29556126D01*
X7223665Y29423507D01*
X7532492Y29268766D01*
X7607570Y29231215D01*
X7868768Y29100468D01*
X8114192Y28977370D01*
X8339313Y28864208D01*
X8539603Y28763273D01*
X8710533Y28676850D01*
X8847575Y28607229D01*
X8946201Y28556698D01*
X9001882Y28527545D01*
X9012907Y28521112D01*
X8987718Y28508715D01*
X8915076Y28475094D01*
X8799048Y28422086D01*
X8643699Y28351530D01*
X8453096Y28265263D01*
X8231304Y28165124D01*
X7982389Y28052951D01*
X7710416Y27930581D01*
X7419452Y27799854D01*
X7157296Y27682217D01*
X6791910Y27517789D01*
X6458460Y27366590D01*
X6159428Y27229784D01*
X5897293Y27108536D01*
X5674535Y27004008D01*
X5493634Y26917363D01*
X5357069Y26849767D01*
X5267322Y26802382D01*
X5227011Y26776510D01*
X5145906Y26660264D01*
X5108617Y26523382D01*
X5115120Y26380784D01*
X5165390Y26247388D01*
X5227989Y26166094D01*
X5269533Y26136716D01*
X5350301Y26092983D01*
X5472386Y26033951D01*
X5637884Y25958675D01*
X5848888Y25866211D01*
X6107493Y25755616D01*
X6415795Y25625944D01*
X6553745Y25568421D01*
X7800000Y25049841D01*
X7800000Y22127947D01*
X7545120Y21953376D01*
X7144380Y21711270D01*
X6726974Y21522800D01*
X6291644Y21387583D01*
X5837130Y21305231D01*
X5362172Y21275360D01*
X5328474Y21275225D01*
X4948159Y21290787D01*
X4594680Y21339877D01*
X4247243Y21425734D01*
X4135621Y21460946D01*
X3708419Y21630696D01*
X3307196Y21847058D01*
X2935760Y22106243D01*
X2597915Y22404461D01*
X2297470Y22737921D01*
X2038229Y23102834D01*
X1823999Y23495409D01*
X1658587Y23911857D01*
X1651164Y23934807D01*
X1559586Y24267701D01*
X1503820Y24590344D01*
X1479911Y24928343D01*
X1478336Y25053531D01*
X1503522Y25514128D01*
G36*
X6721140Y26512536D02*
G01*
X6797098Y26548024D01*
X6916150Y26602728D01*
X7074076Y26674735D01*
X7266660Y26762134D01*
X7489684Y26863013D01*
X7738931Y26975460D01*
X8010182Y27097564D01*
X8299220Y27227412D01*
X8491445Y27313631D01*
X8855646Y27476973D01*
X9171806Y27619222D01*
X9443407Y27742334D01*
X9673932Y27848267D01*
X9866863Y27938979D01*
X10025682Y28016427D01*
X10153870Y28082569D01*
X10254911Y28139363D01*
X10332286Y28188765D01*
X10389478Y28232735D01*
X10429967Y28273228D01*
X10457238Y28312204D01*
X10474771Y28351618D01*
X10486049Y28393430D01*
X10494554Y28439597D01*
X10494582Y28439763D01*
X10501095Y28530367D01*
X10482200Y28614955D01*
X10448448Y28691289D01*
X10382334Y28824556D01*
X8921851Y29558334D01*
X8655543Y29692378D01*
X8404895Y29819014D01*
X8174350Y29935967D01*
X7968349Y30040960D01*
X7791337Y30131716D01*
X7647755Y30205959D01*
X7542045Y30261413D01*
X7478651Y30295800D01*
X7461351Y30306735D01*
X7485517Y30322816D01*
X7553465Y30360287D01*
X7658350Y30415579D01*
X7793329Y30485119D01*
X7951558Y30565335D01*
X8081985Y30630660D01*
X8702636Y30939960D01*
X8709929Y32477707D01*
X8717223Y34015455D01*
X11388564Y31398704D01*
X11827443Y30968398D01*
X12226038Y30576755D01*
X12584780Y30223342D01*
X12904101Y29907728D01*
X13184431Y29629482D01*
X13426201Y29388171D01*
X13629843Y29183366D01*
X13795786Y29014634D01*
X13924463Y28881543D01*
X14016304Y28783663D01*
X14071740Y28720561D01*
X14090842Y28693210D01*
X14117000Y28560823D01*
X14114512Y28416987D01*
X14084018Y28291485D01*
X14082110Y28287003D01*
X14057481Y28256692D01*
X13994686Y28189257D01*
X13895990Y28086959D01*
X13763660Y27952058D01*
X13599962Y27786814D01*
X13407162Y27593489D01*
X13187526Y27374342D01*
X12943322Y27131634D01*
X12676814Y26867626D01*
X12390270Y26584578D01*
X12085955Y26284750D01*
X11766137Y25970404D01*
X11433081Y25643799D01*
X11380936Y25592731D01*
X8717223Y22984457D01*
X8701381Y25635445D01*
X7686460Y26057581D01*
X7463027Y26151185D01*
X7257673Y26238512D01*
X7075854Y26317144D01*
X6923023Y26384663D01*
X6804636Y26438651D01*
X6726145Y26476691D01*
X6693006Y26496366D01*
X6692492Y26498176D01*
X6721140Y26512536D01*
G37*
X6721140Y26512536D02*
X6797098Y26548024D01*
X6916150Y26602728D01*
X7074076Y26674735D01*
X7266660Y26762134D01*
X7489684Y26863013D01*
X7738931Y26975460D01*
X8010182Y27097564D01*
X8299220Y27227412D01*
X8491445Y27313631D01*
X8855646Y27476973D01*
X9171806Y27619222D01*
X9443407Y27742334D01*
X9673932Y27848267D01*
X9866863Y27938979D01*
X10025682Y28016427D01*
X10153870Y28082569D01*
X10254911Y28139363D01*
X10332286Y28188765D01*
X10389478Y28232735D01*
X10429967Y28273228D01*
X10457238Y28312204D01*
X10474771Y28351618D01*
X10486049Y28393430D01*
X10494554Y28439597D01*
X10494582Y28439763D01*
X10501095Y28530367D01*
X10482200Y28614955D01*
X10448448Y28691289D01*
X10382334Y28824556D01*
X8921851Y29558334D01*
X8655543Y29692378D01*
X8404895Y29819014D01*
X8174350Y29935967D01*
X7968349Y30040960D01*
X7791337Y30131716D01*
X7647755Y30205959D01*
X7542045Y30261413D01*
X7478651Y30295800D01*
X7461351Y30306735D01*
X7485517Y30322816D01*
X7553465Y30360287D01*
X7658350Y30415579D01*
X7793329Y30485119D01*
X7951558Y30565335D01*
X8081985Y30630660D01*
X8702636Y30939960D01*
X8709929Y32477707D01*
X8717223Y34015455D01*
X11388564Y31398704D01*
X11827443Y30968398D01*
X12226038Y30576755D01*
X12584780Y30223342D01*
X12904101Y29907728D01*
X13184431Y29629482D01*
X13426201Y29388171D01*
X13629843Y29183366D01*
X13795786Y29014634D01*
X13924463Y28881543D01*
X14016304Y28783663D01*
X14071740Y28720561D01*
X14090842Y28693210D01*
X14117000Y28560823D01*
X14114512Y28416987D01*
X14084018Y28291485D01*
X14082110Y28287003D01*
X14057481Y28256692D01*
X13994686Y28189257D01*
X13895990Y28086959D01*
X13763660Y27952058D01*
X13599962Y27786814D01*
X13407162Y27593489D01*
X13187526Y27374342D01*
X12943322Y27131634D01*
X12676814Y26867626D01*
X12390270Y26584578D01*
X12085955Y26284750D01*
X11766137Y25970404D01*
X11433081Y25643799D01*
X11380936Y25592731D01*
X8717223Y22984457D01*
X8701381Y25635445D01*
X7686460Y26057581D01*
X7463027Y26151185D01*
X7257673Y26238512D01*
X7075854Y26317144D01*
X6923023Y26384663D01*
X6804636Y26438651D01*
X6726145Y26476691D01*
X6693006Y26496366D01*
X6692492Y26498176D01*
X6721140Y26512536D01*
G36*
X63725085Y22666733D02*
G01*
X63882639Y22639377D01*
X64033301Y22593334D01*
X64178439Y22528209D01*
X64286920Y22465051D01*
X64326506Y22438751D01*
X64363944Y22411630D01*
X64401728Y22381482D01*
X64442353Y22346099D01*
X64488316Y22303277D01*
X64542112Y22250810D01*
X64606235Y22186491D01*
X64634585Y22157714D01*
X64799370Y21990040D01*
X64990185Y22183313D01*
X65081674Y22273707D01*
X65164075Y22349705D01*
X65240313Y22413300D01*
X65313311Y22466483D01*
X65385995Y22511249D01*
X65461288Y22549589D01*
X65542114Y22583496D01*
X65616253Y22609954D01*
X65704458Y22636993D01*
X65786000Y22656030D01*
X65867117Y22667909D01*
X65954048Y22673477D01*
X66053029Y22673581D01*
X66080160Y22672859D01*
X66199970Y22665792D01*
X66306309Y22651516D01*
X66405229Y22628455D01*
X66502781Y22595036D01*
X66605016Y22549684D01*
X66659663Y22522103D01*
X66796748Y22439328D01*
X66923407Y22340127D01*
X67038310Y22226245D01*
X67140123Y22099429D01*
X67227514Y21961425D01*
X67299152Y21813978D01*
X67353702Y21658836D01*
X67371917Y21588720D01*
X67383613Y21522814D01*
X67392177Y21442849D01*
X67397433Y21354872D01*
X67399204Y21264930D01*
X67397312Y21179069D01*
X67391580Y21103335D01*
X67387102Y21070440D01*
X67349915Y20903035D01*
X67294573Y20744220D01*
X67220571Y20592805D01*
X67127405Y20447603D01*
X67116576Y20432784D01*
X67092338Y20400000D01*
X66482109Y20400011D01*
X65871880Y20400021D01*
X65719480Y20702271D01*
X65567080Y21004520D01*
X65519104Y21028322D01*
X65483126Y21043262D01*
X65452776Y21047475D01*
X65429382Y21045070D01*
X65411638Y21041627D01*
X65395530Y21036756D01*
X65380186Y21029082D01*
X65364734Y21017234D01*
X65348300Y20999840D01*
X65330011Y20975526D01*
X65308995Y20942921D01*
X65284379Y20900651D01*
X65255291Y20847345D01*
X65220857Y20781629D01*
X65180205Y20702132D01*
X65132462Y20607481D01*
X65076755Y20496304D01*
X65063237Y20469275D01*
X65016168Y20375244D01*
X64971852Y20286891D01*
X64931114Y20205848D01*
X64894777Y20133744D01*
X64863665Y20072209D01*
X64838602Y20022874D01*
X64820411Y19987368D01*
X64809916Y19967323D01*
X64807600Y19963354D01*
X64803137Y19972422D01*
X64791033Y19998573D01*
X64771950Y20040344D01*
X64746550Y20096269D01*
X64715494Y20164886D01*
X64679444Y20244731D01*
X64639062Y20334341D01*
X64595009Y20432251D01*
X64547947Y20536998D01*
X64505598Y20631374D01*
X64446403Y20762913D01*
X64391972Y20882955D01*
X64342722Y20990607D01*
X64299072Y21084975D01*
X64261442Y21165168D01*
X64230250Y21230293D01*
X64205915Y21279456D01*
X64188857Y21311765D01*
X64179543Y21326277D01*
X64137694Y21355474D01*
X64088417Y21368898D01*
X64037082Y21366558D01*
X63989059Y21348460D01*
X63959793Y21325925D01*
X63949217Y21310969D01*
X63933473Y21281892D01*
X63912222Y21237942D01*
X63885122Y21178363D01*
X63851835Y21102401D01*
X63812021Y21009303D01*
X63765339Y20898315D01*
X63744631Y20848653D01*
X63557942Y20400000D01*
X62506060Y20400000D01*
X62443215Y20491757D01*
X62356056Y20636024D01*
X62288207Y20786290D01*
X62239529Y20943009D01*
X62209883Y21106634D01*
X62199129Y21277619D01*
X62199080Y21289750D01*
X62204683Y21426663D01*
X62222355Y21553916D01*
X62253263Y21678993D01*
X62265940Y21719177D01*
X62327050Y21872970D01*
X62404940Y22017410D01*
X62498247Y22151127D01*
X62605605Y22272751D01*
X62725651Y22380912D01*
X62857020Y22474238D01*
X62998347Y22551361D01*
X63148268Y22610909D01*
X63156530Y22613582D01*
X63276372Y22646550D01*
X63392523Y22666625D01*
X63514203Y22675233D01*
X63559270Y22675800D01*
X63725085Y22666733D01*
G37*
X63725085Y22666733D02*
X63882639Y22639377D01*
X64033301Y22593334D01*
X64178439Y22528209D01*
X64286920Y22465051D01*
X64326506Y22438751D01*
X64363944Y22411630D01*
X64401728Y22381482D01*
X64442353Y22346099D01*
X64488316Y22303277D01*
X64542112Y22250810D01*
X64606235Y22186491D01*
X64634585Y22157714D01*
X64799370Y21990040D01*
X64990185Y22183313D01*
X65081674Y22273707D01*
X65164075Y22349705D01*
X65240313Y22413300D01*
X65313311Y22466483D01*
X65385995Y22511249D01*
X65461288Y22549589D01*
X65542114Y22583496D01*
X65616253Y22609954D01*
X65704458Y22636993D01*
X65786000Y22656030D01*
X65867117Y22667909D01*
X65954048Y22673477D01*
X66053029Y22673581D01*
X66080160Y22672859D01*
X66199970Y22665792D01*
X66306309Y22651516D01*
X66405229Y22628455D01*
X66502781Y22595036D01*
X66605016Y22549684D01*
X66659663Y22522103D01*
X66796748Y22439328D01*
X66923407Y22340127D01*
X67038310Y22226245D01*
X67140123Y22099429D01*
X67227514Y21961425D01*
X67299152Y21813978D01*
X67353702Y21658836D01*
X67371917Y21588720D01*
X67383613Y21522814D01*
X67392177Y21442849D01*
X67397433Y21354872D01*
X67399204Y21264930D01*
X67397312Y21179069D01*
X67391580Y21103335D01*
X67387102Y21070440D01*
X67349915Y20903035D01*
X67294573Y20744220D01*
X67220571Y20592805D01*
X67127405Y20447603D01*
X67116576Y20432784D01*
X67092338Y20400000D01*
X66482109Y20400011D01*
X65871880Y20400021D01*
X65719480Y20702271D01*
X65567080Y21004520D01*
X65519104Y21028322D01*
X65483126Y21043262D01*
X65452776Y21047475D01*
X65429382Y21045070D01*
X65411638Y21041627D01*
X65395530Y21036756D01*
X65380186Y21029082D01*
X65364734Y21017234D01*
X65348300Y20999840D01*
X65330011Y20975526D01*
X65308995Y20942921D01*
X65284379Y20900651D01*
X65255291Y20847345D01*
X65220857Y20781629D01*
X65180205Y20702132D01*
X65132462Y20607481D01*
X65076755Y20496304D01*
X65063237Y20469275D01*
X65016168Y20375244D01*
X64971852Y20286891D01*
X64931114Y20205848D01*
X64894777Y20133744D01*
X64863665Y20072209D01*
X64838602Y20022874D01*
X64820411Y19987368D01*
X64809916Y19967323D01*
X64807600Y19963354D01*
X64803137Y19972422D01*
X64791033Y19998573D01*
X64771950Y20040344D01*
X64746550Y20096269D01*
X64715494Y20164886D01*
X64679444Y20244731D01*
X64639062Y20334341D01*
X64595009Y20432251D01*
X64547947Y20536998D01*
X64505598Y20631374D01*
X64446403Y20762913D01*
X64391972Y20882955D01*
X64342722Y20990607D01*
X64299072Y21084975D01*
X64261442Y21165168D01*
X64230250Y21230293D01*
X64205915Y21279456D01*
X64188857Y21311765D01*
X64179543Y21326277D01*
X64137694Y21355474D01*
X64088417Y21368898D01*
X64037082Y21366558D01*
X63989059Y21348460D01*
X63959793Y21325925D01*
X63949217Y21310969D01*
X63933473Y21281892D01*
X63912222Y21237942D01*
X63885122Y21178363D01*
X63851835Y21102401D01*
X63812021Y21009303D01*
X63765339Y20898315D01*
X63744631Y20848653D01*
X63557942Y20400000D01*
X62506060Y20400000D01*
X62443215Y20491757D01*
X62356056Y20636024D01*
X62288207Y20786290D01*
X62239529Y20943009D01*
X62209883Y21106634D01*
X62199129Y21277619D01*
X62199080Y21289750D01*
X62204683Y21426663D01*
X62222355Y21553916D01*
X62253263Y21678993D01*
X62265940Y21719177D01*
X62327050Y21872970D01*
X62404940Y22017410D01*
X62498247Y22151127D01*
X62605605Y22272751D01*
X62725651Y22380912D01*
X62857020Y22474238D01*
X62998347Y22551361D01*
X63148268Y22610909D01*
X63156530Y22613582D01*
X63276372Y22646550D01*
X63392523Y22666625D01*
X63514203Y22675233D01*
X63559270Y22675800D01*
X63725085Y22666733D01*
G36*
X64084512Y20788390D02*
G01*
X64097288Y20761045D01*
X64116981Y20718187D01*
X64142904Y20661333D01*
X64174368Y20592003D01*
X64210684Y20511714D01*
X64251165Y20421986D01*
X64295122Y20324335D01*
X64341868Y20220281D01*
X64372906Y20151080D01*
X64431710Y20019968D01*
X64482919Y19906151D01*
X64527240Y19808374D01*
X64565376Y19725385D01*
X64598032Y19655930D01*
X64625913Y19598755D01*
X64649724Y19552607D01*
X64670170Y19516233D01*
X64687955Y19488378D01*
X64703784Y19467789D01*
X64718362Y19453212D01*
X64732393Y19443395D01*
X64746582Y19437083D01*
X64761634Y19433023D01*
X64778254Y19429961D01*
X64778314Y19429951D01*
X64810932Y19427606D01*
X64841383Y19434409D01*
X64868864Y19446559D01*
X64916840Y19470360D01*
X65181000Y19996134D01*
X65229255Y20092005D01*
X65274845Y20182238D01*
X65316948Y20265235D01*
X65354745Y20339395D01*
X65387417Y20403119D01*
X65414145Y20454809D01*
X65434108Y20492864D01*
X65446487Y20515686D01*
X65450424Y20521914D01*
X65456213Y20513214D01*
X65469703Y20488753D01*
X65489608Y20450995D01*
X65514642Y20402402D01*
X65543520Y20345440D01*
X65567037Y20298486D01*
X65678385Y20075052D01*
X66785563Y20069800D01*
X65843533Y19108118D01*
X65688623Y18950121D01*
X65547631Y18806627D01*
X65420402Y18677480D01*
X65306781Y18562524D01*
X65206613Y18461606D01*
X65119741Y18374568D01*
X65046011Y18301257D01*
X64985267Y18241518D01*
X64937355Y18195194D01*
X64902118Y18162131D01*
X64879401Y18142174D01*
X64869555Y18135298D01*
X64821896Y18125881D01*
X64770115Y18126776D01*
X64724934Y18137754D01*
X64723320Y18138441D01*
X64712408Y18147307D01*
X64688132Y18169914D01*
X64651305Y18205444D01*
X64602740Y18253083D01*
X64543252Y18312014D01*
X64473655Y18381422D01*
X64394762Y18460491D01*
X64307388Y18548405D01*
X64212345Y18644348D01*
X64110447Y18747503D01*
X64002509Y18857057D01*
X63889345Y18972191D01*
X63771767Y19092092D01*
X63753383Y19110864D01*
X62814404Y20069800D01*
X63768760Y20075504D01*
X63920729Y20440875D01*
X63954426Y20521311D01*
X63985864Y20595238D01*
X64014171Y20660693D01*
X64038478Y20715712D01*
X64057914Y20758332D01*
X64071608Y20786588D01*
X64078691Y20798519D01*
X64079343Y20798703D01*
X64084512Y20788390D01*
G37*
X64084512Y20788390D02*
X64097288Y20761045D01*
X64116981Y20718187D01*
X64142904Y20661333D01*
X64174368Y20592003D01*
X64210684Y20511714D01*
X64251165Y20421986D01*
X64295122Y20324335D01*
X64341868Y20220281D01*
X64372906Y20151080D01*
X64431710Y20019968D01*
X64482919Y19906151D01*
X64527240Y19808374D01*
X64565376Y19725385D01*
X64598032Y19655930D01*
X64625913Y19598755D01*
X64649724Y19552607D01*
X64670170Y19516233D01*
X64687955Y19488378D01*
X64703784Y19467789D01*
X64718362Y19453212D01*
X64732393Y19443395D01*
X64746582Y19437083D01*
X64761634Y19433023D01*
X64778254Y19429961D01*
X64778314Y19429951D01*
X64810932Y19427606D01*
X64841383Y19434409D01*
X64868864Y19446559D01*
X64916840Y19470360D01*
X65181000Y19996134D01*
X65229255Y20092005D01*
X65274845Y20182238D01*
X65316948Y20265235D01*
X65354745Y20339395D01*
X65387417Y20403119D01*
X65414145Y20454809D01*
X65434108Y20492864D01*
X65446487Y20515686D01*
X65450424Y20521914D01*
X65456213Y20513214D01*
X65469703Y20488753D01*
X65489608Y20450995D01*
X65514642Y20402402D01*
X65543520Y20345440D01*
X65567037Y20298486D01*
X65678385Y20075052D01*
X66785563Y20069800D01*
X65843533Y19108118D01*
X65688623Y18950121D01*
X65547631Y18806627D01*
X65420402Y18677480D01*
X65306781Y18562524D01*
X65206613Y18461606D01*
X65119741Y18374568D01*
X65046011Y18301257D01*
X64985267Y18241518D01*
X64937355Y18195194D01*
X64902118Y18162131D01*
X64879401Y18142174D01*
X64869555Y18135298D01*
X64821896Y18125881D01*
X64770115Y18126776D01*
X64724934Y18137754D01*
X64723320Y18138441D01*
X64712408Y18147307D01*
X64688132Y18169914D01*
X64651305Y18205444D01*
X64602740Y18253083D01*
X64543252Y18312014D01*
X64473655Y18381422D01*
X64394762Y18460491D01*
X64307388Y18548405D01*
X64212345Y18644348D01*
X64110447Y18747503D01*
X64002509Y18857057D01*
X63889345Y18972191D01*
X63771767Y19092092D01*
X63753383Y19110864D01*
X62814404Y20069800D01*
X63768760Y20075504D01*
X63920729Y20440875D01*
X63954426Y20521311D01*
X63985864Y20595238D01*
X64014171Y20660693D01*
X64038478Y20715712D01*
X64057914Y20758332D01*
X64071608Y20786588D01*
X64078691Y20798519D01*
X64079343Y20798703D01*
X64084512Y20788390D01*
G36*
X43558595Y21605360D02*
G01*
X43600248Y21601508D01*
X43632158Y21593546D01*
X43661526Y21580219D01*
X43666855Y21577290D01*
X43751008Y21516471D01*
X43818898Y21438393D01*
X43845463Y21394406D01*
X43881000Y21327050D01*
X43887810Y19886270D01*
X43939245Y19849113D01*
X43971053Y19822748D01*
X44011936Y19784174D01*
X44054868Y19740139D01*
X44071206Y19722324D01*
X44154424Y19612012D01*
X44215866Y19490723D01*
X44255384Y19358859D01*
X44272828Y19216821D01*
X44273738Y19174400D01*
X44264248Y19035233D01*
X44234997Y18908564D01*
X44184811Y18791461D01*
X44112515Y18680992D01*
X44044716Y18602448D01*
X43949968Y18514323D01*
X43853353Y18448406D01*
X43749959Y18401708D01*
X43681429Y18381374D01*
X43607000Y18368993D01*
X43519906Y18363762D01*
X43430354Y18365659D01*
X43348552Y18374666D01*
X43312672Y18382100D01*
X43201866Y18420412D01*
X43099270Y18477981D01*
X43000884Y18557271D01*
X42955122Y18602573D01*
X42882548Y18685200D01*
X42827923Y18764216D01*
X42787253Y18846695D01*
X42756542Y18939711D01*
X42749798Y18966070D01*
X42727794Y19106738D01*
X42728920Y19249422D01*
X42752797Y19390159D01*
X42799045Y19524984D01*
X42804518Y19537188D01*
X42842146Y19604707D01*
X42894021Y19678090D01*
X42953889Y19749717D01*
X43015498Y19811963D01*
X43059781Y19848408D01*
X43112190Y19886270D01*
X43119000Y21327050D01*
X43146738Y21381598D01*
X43198818Y21462638D01*
X43264153Y21530705D01*
X43323852Y21572451D01*
X43356467Y21588878D01*
X43386837Y21598998D01*
X43422606Y21604280D01*
X43471417Y21606198D01*
X43500000Y21606354D01*
X43558595Y21605360D01*
G37*
X43558595Y21605360D02*
X43600248Y21601508D01*
X43632158Y21593546D01*
X43661526Y21580219D01*
X43666855Y21577290D01*
X43751008Y21516471D01*
X43818898Y21438393D01*
X43845463Y21394406D01*
X43881000Y21327050D01*
X43887810Y19886270D01*
X43939245Y19849113D01*
X43971053Y19822748D01*
X44011936Y19784174D01*
X44054868Y19740139D01*
X44071206Y19722324D01*
X44154424Y19612012D01*
X44215866Y19490723D01*
X44255384Y19358859D01*
X44272828Y19216821D01*
X44273738Y19174400D01*
X44264248Y19035233D01*
X44234997Y18908564D01*
X44184811Y18791461D01*
X44112515Y18680992D01*
X44044716Y18602448D01*
X43949968Y18514323D01*
X43853353Y18448406D01*
X43749959Y18401708D01*
X43681429Y18381374D01*
X43607000Y18368993D01*
X43519906Y18363762D01*
X43430354Y18365659D01*
X43348552Y18374666D01*
X43312672Y18382100D01*
X43201866Y18420412D01*
X43099270Y18477981D01*
X43000884Y18557271D01*
X42955122Y18602573D01*
X42882548Y18685200D01*
X42827923Y18764216D01*
X42787253Y18846695D01*
X42756542Y18939711D01*
X42749798Y18966070D01*
X42727794Y19106738D01*
X42728920Y19249422D01*
X42752797Y19390159D01*
X42799045Y19524984D01*
X42804518Y19537188D01*
X42842146Y19604707D01*
X42894021Y19678090D01*
X42953889Y19749717D01*
X43015498Y19811963D01*
X43059781Y19848408D01*
X43112190Y19886270D01*
X43119000Y21327050D01*
X43146738Y21381598D01*
X43198818Y21462638D01*
X43264153Y21530705D01*
X43323852Y21572451D01*
X43356467Y21588878D01*
X43386837Y21598998D01*
X43422606Y21604280D01*
X43471417Y21606198D01*
X43500000Y21606354D01*
X43558595Y21605360D01*
G36*
X43578723Y24043285D02*
G01*
X43638565Y24042073D01*
X43684834Y24039353D01*
X43722837Y24034549D01*
X43757881Y24027090D01*
X43795273Y24016401D01*
X43817963Y24009196D01*
X43981423Y23943884D01*
X44129861Y23858834D01*
X44262590Y23754766D01*
X44378922Y23632403D01*
X44478168Y23492466D01*
X44559642Y23335676D01*
X44621730Y23165862D01*
X44655052Y23054250D01*
X44667190Y20247550D01*
X44728902Y20165000D01*
X44833561Y20004784D01*
X44919406Y19830305D01*
X44985107Y19644859D01*
X45029330Y19451743D01*
X45036739Y19403619D01*
X45043918Y19325743D01*
X45046813Y19232251D01*
X45045712Y19130502D01*
X45040899Y19027856D01*
X45032661Y18931671D01*
X45021284Y18849308D01*
X45013764Y18812450D01*
X44953581Y18609599D01*
X44873862Y18421348D01*
X44775399Y18248529D01*
X44658983Y18091973D01*
X44525407Y17952513D01*
X44375461Y17830979D01*
X44209939Y17728204D01*
X44029631Y17645018D01*
X43844714Y17584721D01*
X43781476Y17572206D01*
X43700595Y17562570D01*
X43608485Y17555993D01*
X43511555Y17552651D01*
X43416217Y17552722D01*
X43328883Y17556385D01*
X43255964Y17563817D01*
X43232958Y17567748D01*
X43045337Y17617453D01*
X42867241Y17689469D01*
X42700216Y17782361D01*
X42545811Y17894700D01*
X42405571Y18025051D01*
X42281046Y18171983D01*
X42173781Y18334064D01*
X42085325Y18509861D01*
X42019254Y18691146D01*
X41981455Y18842934D01*
X41959390Y18997877D01*
X41953559Y19126613D01*
X42539211Y19126613D01*
X42557785Y18972600D01*
X42598883Y18823983D01*
X42661678Y18683212D01*
X42745339Y18552740D01*
X42821934Y18462431D01*
X42937977Y18357863D01*
X43064983Y18275292D01*
X43200890Y18215310D01*
X43343638Y18178509D01*
X43491166Y18165481D01*
X43641413Y18176818D01*
X43741905Y18198160D01*
X43884854Y18249133D01*
X44015754Y18321387D01*
X44133116Y18413352D01*
X44235452Y18523456D01*
X44321273Y18650130D01*
X44389091Y18791803D01*
X44432471Y18926750D01*
X44449041Y19017566D01*
X44457687Y19122556D01*
X44458290Y19231850D01*
X44450726Y19335580D01*
X44438395Y19409350D01*
X44397028Y19540996D01*
X44332019Y19675413D01*
X44243702Y19812003D01*
X44142926Y19938181D01*
X44080571Y20009812D01*
X44080480Y21424081D01*
X44080348Y21669115D01*
X44079987Y21894066D01*
X44079402Y22098387D01*
X44078598Y22281527D01*
X44077579Y22442938D01*
X44076350Y22582070D01*
X44074915Y22698375D01*
X44073280Y22791303D01*
X44071448Y22860305D01*
X44069424Y22904832D01*
X44067934Y22920900D01*
X44039059Y23036728D01*
X43990554Y23141760D01*
X43925035Y23233957D01*
X43845118Y23311276D01*
X43753419Y23371677D01*
X43652553Y23413117D01*
X43545136Y23433557D01*
X43433785Y23430953D01*
X43417424Y23428534D01*
X43305145Y23397815D01*
X43202875Y23345543D01*
X43113003Y23274220D01*
X43037920Y23186344D01*
X42980018Y23084418D01*
X42941685Y22970941D01*
X42932066Y22920900D01*
X42929914Y22893415D01*
X42927951Y22841078D01*
X42926181Y22764441D01*
X42924608Y22664052D01*
X42923238Y22540460D01*
X42922075Y22394214D01*
X42921124Y22225864D01*
X42920389Y22035958D01*
X42919874Y21825046D01*
X42919585Y21593676D01*
X42919520Y21424081D01*
X42919429Y20009812D01*
X42858680Y19940019D01*
X42760736Y19819354D01*
X42683182Y19704652D01*
X42624131Y19591976D01*
X42581695Y19477389D01*
X42553987Y19356955D01*
X42543994Y19283567D01*
X42539211Y19126613D01*
X41953559Y19126613D01*
X41951829Y19164800D01*
X41951810Y19174400D01*
X41963136Y19376698D01*
X41996746Y19572136D01*
X42052083Y19758940D01*
X42128592Y19935336D01*
X42225718Y20099548D01*
X42253966Y20139600D01*
X42332810Y20247550D01*
X42344948Y23054250D01*
X42378270Y23165862D01*
X42441605Y23338511D01*
X42523390Y23495017D01*
X42622936Y23634658D01*
X42739556Y23756713D01*
X42872561Y23860460D01*
X43021263Y23945177D01*
X43182036Y24009196D01*
X43222844Y24021838D01*
X43258477Y24030946D01*
X43294244Y24037092D01*
X43335452Y24040849D01*
X43387408Y24042793D01*
X43455420Y24043496D01*
X43500000Y24043562D01*
X43578723Y24043285D01*
G37*
X43578723Y24043285D02*
X43638565Y24042073D01*
X43684834Y24039353D01*
X43722837Y24034549D01*
X43757881Y24027090D01*
X43795273Y24016401D01*
X43817963Y24009196D01*
X43981423Y23943884D01*
X44129861Y23858834D01*
X44262590Y23754766D01*
X44378922Y23632403D01*
X44478168Y23492466D01*
X44559642Y23335676D01*
X44621730Y23165862D01*
X44655052Y23054250D01*
X44667190Y20247550D01*
X44728902Y20165000D01*
X44833561Y20004784D01*
X44919406Y19830305D01*
X44985107Y19644859D01*
X45029330Y19451743D01*
X45036739Y19403619D01*
X45043918Y19325743D01*
X45046813Y19232251D01*
X45045712Y19130502D01*
X45040899Y19027856D01*
X45032661Y18931671D01*
X45021284Y18849308D01*
X45013764Y18812450D01*
X44953581Y18609599D01*
X44873862Y18421348D01*
X44775399Y18248529D01*
X44658983Y18091973D01*
X44525407Y17952513D01*
X44375461Y17830979D01*
X44209939Y17728204D01*
X44029631Y17645018D01*
X43844714Y17584721D01*
X43781476Y17572206D01*
X43700595Y17562570D01*
X43608485Y17555993D01*
X43511555Y17552651D01*
X43416217Y17552722D01*
X43328883Y17556385D01*
X43255964Y17563817D01*
X43232958Y17567748D01*
X43045337Y17617453D01*
X42867241Y17689469D01*
X42700216Y17782361D01*
X42545811Y17894700D01*
X42405571Y18025051D01*
X42281046Y18171983D01*
X42173781Y18334064D01*
X42085325Y18509861D01*
X42019254Y18691146D01*
X41981455Y18842934D01*
X41959390Y18997877D01*
X41953559Y19126613D01*
X42539211Y19126613D01*
X42557785Y18972600D01*
X42598883Y18823983D01*
X42661678Y18683212D01*
X42745339Y18552740D01*
X42821934Y18462431D01*
X42937977Y18357863D01*
X43064983Y18275292D01*
X43200890Y18215310D01*
X43343638Y18178509D01*
X43491166Y18165481D01*
X43641413Y18176818D01*
X43741905Y18198160D01*
X43884854Y18249133D01*
X44015754Y18321387D01*
X44133116Y18413352D01*
X44235452Y18523456D01*
X44321273Y18650130D01*
X44389091Y18791803D01*
X44432471Y18926750D01*
X44449041Y19017566D01*
X44457687Y19122556D01*
X44458290Y19231850D01*
X44450726Y19335580D01*
X44438395Y19409350D01*
X44397028Y19540996D01*
X44332019Y19675413D01*
X44243702Y19812003D01*
X44142926Y19938181D01*
X44080571Y20009812D01*
X44080480Y21424081D01*
X44080348Y21669115D01*
X44079987Y21894066D01*
X44079402Y22098387D01*
X44078598Y22281527D01*
X44077579Y22442938D01*
X44076350Y22582070D01*
X44074915Y22698375D01*
X44073280Y22791303D01*
X44071448Y22860305D01*
X44069424Y22904832D01*
X44067934Y22920900D01*
X44039059Y23036728D01*
X43990554Y23141760D01*
X43925035Y23233957D01*
X43845118Y23311276D01*
X43753419Y23371677D01*
X43652553Y23413117D01*
X43545136Y23433557D01*
X43433785Y23430953D01*
X43417424Y23428534D01*
X43305145Y23397815D01*
X43202875Y23345543D01*
X43113003Y23274220D01*
X43037920Y23186344D01*
X42980018Y23084418D01*
X42941685Y22970941D01*
X42932066Y22920900D01*
X42929914Y22893415D01*
X42927951Y22841078D01*
X42926181Y22764441D01*
X42924608Y22664052D01*
X42923238Y22540460D01*
X42922075Y22394214D01*
X42921124Y22225864D01*
X42920389Y22035958D01*
X42919874Y21825046D01*
X42919585Y21593676D01*
X42919520Y21424081D01*
X42919429Y20009812D01*
X42858680Y19940019D01*
X42760736Y19819354D01*
X42683182Y19704652D01*
X42624131Y19591976D01*
X42581695Y19477389D01*
X42553987Y19356955D01*
X42543994Y19283567D01*
X42539211Y19126613D01*
X41953559Y19126613D01*
X41951829Y19164800D01*
X41951810Y19174400D01*
X41963136Y19376698D01*
X41996746Y19572136D01*
X42052083Y19758940D01*
X42128592Y19935336D01*
X42225718Y20099548D01*
X42253966Y20139600D01*
X42332810Y20247550D01*
X42344948Y23054250D01*
X42378270Y23165862D01*
X42441605Y23338511D01*
X42523390Y23495017D01*
X42622936Y23634658D01*
X42739556Y23756713D01*
X42872561Y23860460D01*
X43021263Y23945177D01*
X43182036Y24009196D01*
X43222844Y24021838D01*
X43258477Y24030946D01*
X43294244Y24037092D01*
X43335452Y24040849D01*
X43387408Y24042793D01*
X43455420Y24043496D01*
X43500000Y24043562D01*
X43578723Y24043285D01*
D13*
G04 #@! TO.C,R13*
X24427064Y30335000D02*
X23972936Y30335000D01*
X24427064Y28865000D02*
X23972936Y28865000D01*
G04 #@! TO.C,R9*
X26685436Y43265000D02*
X27139564Y43265000D01*
X26685436Y44735000D02*
X27139564Y44735000D01*
D14*
G04 #@! TO.C,J1*
X57940000Y24211000D02*
X57940000Y24977000D01*
X57940000Y21671000D02*
X57940000Y22949000D01*
X57940000Y19131000D02*
X57940000Y20409000D01*
X57940000Y16591000D02*
X57940000Y17869000D01*
X57940000Y14051000D02*
X57940000Y15329000D01*
X52860000Y12789000D02*
X52860000Y12023000D01*
X52860000Y12023000D02*
X57940000Y12023000D01*
X57940000Y12023000D02*
X57940000Y12789000D01*
X52860000Y15329000D02*
X52860000Y14051000D01*
X52860000Y17869000D02*
X52860000Y16591000D01*
X52860000Y20409000D02*
X52860000Y19131000D01*
X52860000Y22949000D02*
X52860000Y21671000D01*
X57940000Y24977000D02*
X52860000Y24977000D01*
X52860000Y24977000D02*
X52860000Y24211000D01*
D13*
G04 #@! TO.C,R12*
X29837258Y11922500D02*
X29362742Y11922500D01*
X29837258Y10877500D02*
X29362742Y10877500D01*
G04 #@! TO.C,R11*
X46037258Y15122500D02*
X45562742Y15122500D01*
X46037258Y14077500D02*
X45562742Y14077500D01*
G04 #@! TO.C,C7*
X31440000Y11507836D02*
X31440000Y11292164D01*
X32160000Y11507836D02*
X32160000Y11292164D01*
G04 #@! TO.C,C2*
X34892164Y17360000D02*
X35107836Y17360000D01*
X34892164Y16640000D02*
X35107836Y16640000D01*
G04 #@! TO.C,C1*
X40040000Y14907836D02*
X40040000Y14692164D01*
X40760000Y14907836D02*
X40760000Y14692164D01*
D14*
G04 #@! TO.C,J2*
X52860000Y26789000D02*
X52860000Y26023000D01*
X52860000Y29329000D02*
X52860000Y28051000D01*
X52860000Y31869000D02*
X52860000Y30591000D01*
X52860000Y34409000D02*
X52860000Y33131000D01*
X52860000Y36949000D02*
X52860000Y35671000D01*
X57940000Y38211000D02*
X57940000Y38977000D01*
X57940000Y38977000D02*
X52860000Y38977000D01*
X52860000Y38977000D02*
X52860000Y38211000D01*
X57940000Y35671000D02*
X57940000Y36949000D01*
X57940000Y33131000D02*
X57940000Y34409000D01*
X57940000Y30591000D02*
X57940000Y31869000D01*
X57940000Y28051000D02*
X57940000Y29329000D01*
X52860000Y26023000D02*
X57940000Y26023000D01*
X57940000Y26023000D02*
X57940000Y26789000D01*
D15*
G04 #@! TO.C,RV2*
X23850000Y39450000D02*
X22704000Y39450000D01*
X19996000Y39450000D02*
X18850000Y39450000D01*
X18850000Y39450000D02*
X18850000Y43950000D01*
X18850000Y43950000D02*
X18896000Y43950000D01*
X23804000Y43950000D02*
X23850000Y43950000D01*
X23850000Y43950000D02*
X23850000Y39450000D01*
G04 #@! TO.C,RV1*
X34637000Y19375000D02*
X34637000Y20521000D01*
X34637000Y23229000D02*
X34637000Y24375000D01*
X34637000Y24375000D02*
X39137000Y24375000D01*
X39137000Y24375000D02*
X39137000Y24329000D01*
X39137000Y19421000D02*
X39137000Y19375000D01*
X39137000Y19375000D02*
X34637000Y19375000D01*
D13*
G04 #@! TO.C,RN1*
X49980000Y45400000D02*
X49980000Y46400000D01*
X46620000Y45400000D02*
X46620000Y46400000D01*
G04 #@! TO.C,D6*
X46560000Y40577500D02*
X46560000Y43262500D01*
X44640000Y40577500D02*
X46560000Y40577500D01*
X44640000Y43262500D02*
X44640000Y40577500D01*
G04 #@! TO.C,D5*
X48135000Y40927500D02*
X48135000Y43212500D01*
X46665000Y40927500D02*
X48135000Y40927500D01*
X46665000Y43212500D02*
X46665000Y40927500D01*
G04 #@! TO.C,D4*
X50160000Y40577500D02*
X50160000Y43262500D01*
X48240000Y40577500D02*
X50160000Y40577500D01*
X48240000Y43262500D02*
X48240000Y40577500D01*
G04 #@! TO.C,D3*
X52160000Y40577500D02*
X52160000Y43262500D01*
X50240000Y40577500D02*
X52160000Y40577500D01*
X50240000Y43262500D02*
X50240000Y40577500D01*
D14*
G04 #@! TO.C,SW1*
X35600000Y44540000D02*
X36870000Y44540000D01*
X36870000Y44540000D02*
X36870000Y39460000D01*
X36870000Y39460000D02*
X35600000Y39460000D01*
X35600000Y39460000D02*
X35600000Y44540000D01*
X35600000Y44540000D02*
X35600000Y39460000D01*
X35600000Y39460000D02*
X35600000Y44540000D01*
X35600000Y44540000D02*
X34330000Y44540000D01*
X34330000Y44540000D02*
X34330000Y39460000D01*
X34330000Y39460000D02*
X34330000Y44540000D01*
X34330000Y44540000D02*
X34330000Y39460000D01*
X34330000Y39460000D02*
X34330000Y44540000D01*
X34330000Y44540000D02*
X33060000Y44540000D01*
X33060000Y44540000D02*
X33060000Y39460000D01*
X33060000Y39460000D02*
X34330000Y39460000D01*
X34330000Y39460000D02*
X35600000Y39460000D01*
X35600000Y41365000D02*
X36870000Y41365000D01*
X36870000Y41365000D02*
X38140000Y40095000D01*
X38140000Y40095000D02*
X36870000Y40095000D01*
X36870000Y40095000D02*
X35600000Y40095000D01*
X35600000Y40095000D02*
X34330000Y41365000D01*
X34330000Y41365000D02*
X35600000Y41365000D01*
X35600000Y41365000D02*
X36870000Y40095000D01*
X34330000Y41365000D02*
X33060000Y41365000D01*
X33060000Y41365000D02*
X34330000Y40095000D01*
X34330000Y40095000D02*
X35600000Y40095000D01*
X33695000Y41365000D02*
X34330000Y40730000D01*
X34330000Y40730000D02*
X34965000Y40095000D01*
X34965000Y41365000D02*
X35600000Y40730000D01*
X35600000Y40730000D02*
X36235000Y40095000D01*
X36235000Y41365000D02*
X36870000Y40730000D01*
X36870000Y40730000D02*
X37505000Y40095000D01*
X36870000Y44540000D02*
X38140000Y44540000D01*
X38140000Y44540000D02*
X38140000Y39460000D01*
X38140000Y39460000D02*
X36870000Y39460000D01*
X36870000Y39460000D02*
X36870000Y44540000D01*
X36870000Y41365000D02*
X38140000Y41365000D01*
X37505000Y41365000D02*
X38140000Y40730000D01*
X33060000Y40730000D02*
X33695000Y40095000D01*
X33060000Y40095000D02*
X34330000Y40095000D01*
D13*
G04 #@! TO.C,U1*
X30000000Y12890000D02*
X33600000Y12890000D01*
X30000000Y12890000D02*
X27800000Y12890000D01*
X30000000Y18110000D02*
X32200000Y18110000D01*
X30000000Y18110000D02*
X27800000Y18110000D01*
G04 #@! TO.C,R10*
X54977500Y44737258D02*
X54977500Y44262742D01*
X56022500Y44737258D02*
X56022500Y44262742D01*
G04 #@! TO.C,R8*
X24022500Y13262742D02*
X24022500Y13737258D01*
X22977500Y13262742D02*
X22977500Y13737258D01*
G04 #@! TO.C,R7*
X21262742Y15477500D02*
X21737258Y15477500D01*
X21262742Y16522500D02*
X21737258Y16522500D01*
G04 #@! TO.C,R6*
X21062258Y14522500D02*
X20587742Y14522500D01*
X21062258Y13477500D02*
X20587742Y13477500D01*
G04 #@! TO.C,R5*
X23477500Y16912258D02*
X23477500Y16437742D01*
X24522500Y16912258D02*
X24522500Y16437742D01*
G04 #@! TO.C,R4*
X22022500Y18262742D02*
X22022500Y18737258D01*
X20977500Y18262742D02*
X20977500Y18737258D01*
G04 #@! TO.C,R3*
X35247500Y13337742D02*
X35247500Y13812258D01*
X34202500Y13337742D02*
X34202500Y13812258D01*
G04 #@! TO.C,R2*
X25437742Y18977500D02*
X25912258Y18977500D01*
X25437742Y20022500D02*
X25912258Y20022500D01*
G04 #@! TO.C,R1*
X36837742Y14702500D02*
X37312258Y14702500D01*
X36837742Y15747500D02*
X37312258Y15747500D01*
G04 #@! TO.C,D2*
X4377500Y29040000D02*
X7062500Y29040000D01*
X4377500Y30960000D02*
X4377500Y29040000D01*
X7062500Y30960000D02*
X4377500Y30960000D01*
G04 #@! TO.C,D1*
X8185000Y28635000D02*
X4300000Y28635000D01*
X8185000Y26365000D02*
X8185000Y28635000D01*
X4300000Y26365000D02*
X8185000Y26365000D01*
G04 #@! TO.C,C6*
X54360000Y44392164D02*
X54360000Y44607836D01*
X53640000Y44392164D02*
X53640000Y44607836D01*
G04 #@! TO.C,C5*
X25360000Y13392164D02*
X25360000Y13607836D01*
X24640000Y13392164D02*
X24640000Y13607836D01*
G04 #@! TO.C,C4*
X18410000Y14788748D02*
X18410000Y16211252D01*
X16590000Y14788748D02*
X16590000Y16211252D01*
G04 #@! TO.C,C3*
X34892164Y17840000D02*
X35107836Y17840000D01*
X34892164Y18560000D02*
X35107836Y18560000D01*
D10*
G04 #@! TO.C,P1*
X29210000Y1270000D02*
X46990000Y1270000D01*
X46990000Y1270000D02*
X46990000Y3810000D01*
X46990000Y3810000D02*
X29210000Y3810000D01*
X26390000Y990000D02*
X27940000Y990000D01*
X29210000Y1270000D02*
X29210000Y3810000D01*
X27940000Y4090000D02*
X26390000Y4090000D01*
X26390000Y4090000D02*
X26390000Y990000D01*
G04 #@! TO.C,P2*
X52070000Y1270000D02*
X64770000Y1270000D01*
X64770000Y1270000D02*
X64770000Y3810000D01*
X64770000Y3810000D02*
X52070000Y3810000D01*
X49250000Y990000D02*
X50800000Y990000D01*
X52070000Y1270000D02*
X52070000Y3810000D01*
X50800000Y4090000D02*
X49250000Y4090000D01*
X49250000Y4090000D02*
X49250000Y990000D01*
G04 #@! TO.C,P3*
X20066000Y49530000D02*
X42926000Y49530000D01*
X42926000Y49530000D02*
X42926000Y52070000D01*
X42926000Y52070000D02*
X20066000Y52070000D01*
X17246000Y49250000D02*
X18796000Y49250000D01*
X20066000Y49530000D02*
X20066000Y52070000D01*
X18796000Y52350000D02*
X17246000Y52350000D01*
X17246000Y52350000D02*
X17246000Y49250000D01*
G04 #@! TO.C,P4*
X46990000Y49530000D02*
X64770000Y49530000D01*
X64770000Y49530000D02*
X64770000Y52070000D01*
X64770000Y52070000D02*
X46990000Y52070000D01*
X44170000Y49250000D02*
X45720000Y49250000D01*
X46990000Y49530000D02*
X46990000Y52070000D01*
X45720000Y52350000D02*
X44170000Y52350000D01*
X44170000Y52350000D02*
X44170000Y49250000D01*
G04 #@! TO.C,P5*
X16256000Y2540000D02*
G75*
G03X16256000Y2540000I-2286000J0D01*
G01*
G04 #@! TO.C,P6*
X68326000Y7620000D02*
G75*
G03X68326000Y7620000I-2286000J0D01*
G01*
G04 #@! TO.C,P7*
X17526000Y50800000D02*
G75*
G03X17526000Y50800000I-2286000J0D01*
G01*
G04 #@! TO.C,P8*
X68326000Y35560000D02*
G75*
G03X68326000Y35560000I-2286000J0D01*
G01*
G04 #@! TO.C,*
X176159666Y-107037380D02*
X176159666Y-106432619D01*
X176522523Y-107158333D02*
X175252523Y-106735000D01*
X176522523Y-106311666D01*
X175252523Y-105888333D02*
X176280619Y-105888333D01*
X176401571Y-105827857D01*
X176462047Y-105767380D01*
X176522523Y-105646428D01*
X176522523Y-105404523D01*
X176462047Y-105283571D01*
X176401571Y-105223095D01*
X176280619Y-105162619D01*
X175252523Y-105162619D01*
X175252523Y-104678809D02*
X176522523Y-103832142D01*
X175252523Y-103832142D02*
X176522523Y-104678809D01*
G04 #@! TO.C,R13*
X23557142Y27497620D02*
X23223809Y27973810D01*
X22985714Y27497620D02*
X22985714Y28497620D01*
X23366666Y28497620D01*
X23461904Y28450000D01*
X23509523Y28402381D01*
X23557142Y28307143D01*
X23557142Y28164286D01*
X23509523Y28069048D01*
X23461904Y28021429D01*
X23366666Y27973810D01*
X22985714Y27973810D01*
X24509523Y27497620D02*
X23938095Y27497620D01*
X24223809Y27497620D02*
X24223809Y28497620D01*
X24128571Y28354762D01*
X24033333Y28259524D01*
X23938095Y28211905D01*
X24842857Y28497620D02*
X25461904Y28497620D01*
X25128571Y28116667D01*
X25271428Y28116667D01*
X25366666Y28069048D01*
X25414285Y28021429D01*
X25461904Y27926191D01*
X25461904Y27688096D01*
X25414285Y27592858D01*
X25366666Y27545239D01*
X25271428Y27497620D01*
X24985714Y27497620D01*
X24890476Y27545239D01*
X24842857Y27592858D01*
G04 #@! TO.C,R9*
X26745833Y45197620D02*
X26412500Y45673810D01*
X26174404Y45197620D02*
X26174404Y46197620D01*
X26555357Y46197620D01*
X26650595Y46150000D01*
X26698214Y46102381D01*
X26745833Y46007143D01*
X26745833Y45864286D01*
X26698214Y45769048D01*
X26650595Y45721429D01*
X26555357Y45673810D01*
X26174404Y45673810D01*
X27222023Y45197620D02*
X27412500Y45197620D01*
X27507738Y45245239D01*
X27555357Y45292858D01*
X27650595Y45435715D01*
X27698214Y45626191D01*
X27698214Y46007143D01*
X27650595Y46102381D01*
X27602976Y46150000D01*
X27507738Y46197620D01*
X27317261Y46197620D01*
X27222023Y46150000D01*
X27174404Y46102381D01*
X27126785Y46007143D01*
X27126785Y45769048D01*
X27174404Y45673810D01*
X27222023Y45626191D01*
X27317261Y45578572D01*
X27507738Y45578572D01*
X27602976Y45626191D01*
X27650595Y45673810D01*
X27698214Y45769048D01*
G04 #@! TO.C,J1*
X55016666Y11383334D02*
X55016666Y10883334D01*
X54983333Y10783334D01*
X54916666Y10716667D01*
X54816666Y10683334D01*
X54750000Y10683334D01*
X55716666Y10683334D02*
X55316666Y10683334D01*
X55516666Y10683334D02*
X55516666Y11383334D01*
X55450000Y11283334D01*
X55383333Y11216667D01*
X55316666Y11183334D01*
X55514047Y12914048D02*
X55574523Y13095477D01*
X55574523Y13397858D01*
X55514047Y13518810D01*
X55453571Y13579286D01*
X55332619Y13639762D01*
X55211666Y13639762D01*
X55090714Y13579286D01*
X55030238Y13518810D01*
X54969761Y13397858D01*
X54909285Y13155953D01*
X54848809Y13035000D01*
X54788333Y12974524D01*
X54667380Y12914048D01*
X54546428Y12914048D01*
X54425476Y12974524D01*
X54365000Y13035000D01*
X54304523Y13155953D01*
X54304523Y13458334D01*
X54365000Y13639762D01*
X55514047Y14667858D02*
X55574523Y14546905D01*
X55574523Y14305000D01*
X55514047Y14184048D01*
X55393095Y14123572D01*
X54909285Y14123572D01*
X54788333Y14184048D01*
X54727857Y14305000D01*
X54727857Y14546905D01*
X54788333Y14667858D01*
X54909285Y14728334D01*
X55030238Y14728334D01*
X55151190Y14123572D01*
X54727857Y15272620D02*
X55574523Y15272620D01*
X54848809Y15272620D02*
X54788333Y15333096D01*
X54727857Y15454048D01*
X54727857Y15635477D01*
X54788333Y15756429D01*
X54909285Y15816905D01*
X55574523Y15816905D01*
X55514047Y16361191D02*
X55574523Y16482143D01*
X55574523Y16724048D01*
X55514047Y16845000D01*
X55393095Y16905477D01*
X55332619Y16905477D01*
X55211666Y16845000D01*
X55151190Y16724048D01*
X55151190Y16542620D01*
X55090714Y16421667D01*
X54969761Y16361191D01*
X54909285Y16361191D01*
X54788333Y16421667D01*
X54727857Y16542620D01*
X54727857Y16724048D01*
X54788333Y16845000D01*
X55574523Y17631191D02*
X55514047Y17510239D01*
X55453571Y17449762D01*
X55332619Y17389286D01*
X54969761Y17389286D01*
X54848809Y17449762D01*
X54788333Y17510239D01*
X54727857Y17631191D01*
X54727857Y17812620D01*
X54788333Y17933572D01*
X54848809Y17994048D01*
X54969761Y18054524D01*
X55332619Y18054524D01*
X55453571Y17994048D01*
X55514047Y17933572D01*
X55574523Y17812620D01*
X55574523Y17631191D01*
X55574523Y18598810D02*
X54727857Y18598810D01*
X54969761Y18598810D02*
X54848809Y18659286D01*
X54788333Y18719762D01*
X54727857Y18840715D01*
X54727857Y18961667D01*
X55514047Y19324524D02*
X55574523Y19445477D01*
X55574523Y19687381D01*
X55514047Y19808334D01*
X55393095Y19868810D01*
X55332619Y19868810D01*
X55211666Y19808334D01*
X55151190Y19687381D01*
X55151190Y19505953D01*
X55090714Y19385000D01*
X54969761Y19324524D01*
X54909285Y19324524D01*
X54788333Y19385000D01*
X54727857Y19505953D01*
X54727857Y19687381D01*
X54788333Y19808334D01*
X55453571Y21138810D02*
X55514047Y21078334D01*
X55574523Y20896905D01*
X55574523Y20775953D01*
X55514047Y20594524D01*
X55393095Y20473572D01*
X55272142Y20413096D01*
X55030238Y20352620D01*
X54848809Y20352620D01*
X54606904Y20413096D01*
X54485952Y20473572D01*
X54365000Y20594524D01*
X54304523Y20775953D01*
X54304523Y20896905D01*
X54365000Y21078334D01*
X54425476Y21138810D01*
X55574523Y21864524D02*
X55514047Y21743572D01*
X55453571Y21683096D01*
X55332619Y21622620D01*
X54969761Y21622620D01*
X54848809Y21683096D01*
X54788333Y21743572D01*
X54727857Y21864524D01*
X54727857Y22045953D01*
X54788333Y22166905D01*
X54848809Y22227381D01*
X54969761Y22287858D01*
X55332619Y22287858D01*
X55453571Y22227381D01*
X55514047Y22166905D01*
X55574523Y22045953D01*
X55574523Y21864524D01*
X54727857Y22832143D02*
X55574523Y22832143D01*
X54848809Y22832143D02*
X54788333Y22892620D01*
X54727857Y23013572D01*
X54727857Y23195000D01*
X54788333Y23315953D01*
X54909285Y23376429D01*
X55574523Y23376429D01*
X54727857Y23981191D02*
X55574523Y23981191D01*
X54848809Y23981191D02*
X54788333Y24041667D01*
X54727857Y24162620D01*
X54727857Y24344048D01*
X54788333Y24465000D01*
X54909285Y24525477D01*
X55574523Y24525477D01*
G04 #@! TO.C,R12*
X29150000Y9483334D02*
X28916666Y9816667D01*
X28750000Y9483334D02*
X28750000Y10183334D01*
X29016666Y10183334D01*
X29083333Y10150000D01*
X29116666Y10116667D01*
X29150000Y10050000D01*
X29150000Y9950000D01*
X29116666Y9883334D01*
X29083333Y9850000D01*
X29016666Y9816667D01*
X28750000Y9816667D01*
X29816666Y9483334D02*
X29416666Y9483334D01*
X29616666Y9483334D02*
X29616666Y10183334D01*
X29550000Y10083334D01*
X29483333Y10016667D01*
X29416666Y9983334D01*
X30083333Y10116667D02*
X30116666Y10150000D01*
X30183333Y10183334D01*
X30350000Y10183334D01*
X30416666Y10150000D01*
X30450000Y10116667D01*
X30483333Y10050000D01*
X30483333Y9983334D01*
X30450000Y9883334D01*
X30050000Y9483334D01*
X30483333Y9483334D01*
G04 #@! TO.C,R11*
X45157142Y12717620D02*
X44823809Y13193810D01*
X44585714Y12717620D02*
X44585714Y13717620D01*
X44966666Y13717620D01*
X45061904Y13670000D01*
X45109523Y13622381D01*
X45157142Y13527143D01*
X45157142Y13384286D01*
X45109523Y13289048D01*
X45061904Y13241429D01*
X44966666Y13193810D01*
X44585714Y13193810D01*
X46109523Y12717620D02*
X45538095Y12717620D01*
X45823809Y12717620D02*
X45823809Y13717620D01*
X45728571Y13574762D01*
X45633333Y13479524D01*
X45538095Y13431905D01*
X47061904Y12717620D02*
X46490476Y12717620D01*
X46776190Y12717620D02*
X46776190Y13717620D01*
X46680952Y13574762D01*
X46585714Y13479524D01*
X46490476Y13431905D01*
G04 #@! TO.C,C7*
X33210000Y11283334D02*
X33243333Y11250000D01*
X33276666Y11150000D01*
X33276666Y11083334D01*
X33243333Y10983334D01*
X33176666Y10916667D01*
X33110000Y10883334D01*
X32976666Y10850000D01*
X32876666Y10850000D01*
X32743333Y10883334D01*
X32676666Y10916667D01*
X32610000Y10983334D01*
X32576666Y11083334D01*
X32576666Y11150000D01*
X32610000Y11250000D01*
X32643333Y11283334D01*
X32576666Y11516667D02*
X32576666Y11983334D01*
X33276666Y11683334D01*
G04 #@! TO.C,C2*
X36483333Y16750000D02*
X36450000Y16716667D01*
X36350000Y16683334D01*
X36283333Y16683334D01*
X36183333Y16716667D01*
X36116666Y16783334D01*
X36083333Y16850000D01*
X36050000Y16983334D01*
X36050000Y17083334D01*
X36083333Y17216667D01*
X36116666Y17283334D01*
X36183333Y17350000D01*
X36283333Y17383334D01*
X36350000Y17383334D01*
X36450000Y17350000D01*
X36483333Y17316667D01*
X36750000Y17316667D02*
X36783333Y17350000D01*
X36850000Y17383334D01*
X37016666Y17383334D01*
X37083333Y17350000D01*
X37116666Y17316667D01*
X37150000Y17250000D01*
X37150000Y17183334D01*
X37116666Y17083334D01*
X36716666Y16683334D01*
X37150000Y16683334D01*
G04 #@! TO.C,C1*
X41917142Y14633334D02*
X41964761Y14585715D01*
X42012380Y14442858D01*
X42012380Y14347620D01*
X41964761Y14204762D01*
X41869523Y14109524D01*
X41774285Y14061905D01*
X41583809Y14014286D01*
X41440952Y14014286D01*
X41250476Y14061905D01*
X41155238Y14109524D01*
X41060000Y14204762D01*
X41012380Y14347620D01*
X41012380Y14442858D01*
X41060000Y14585715D01*
X41107619Y14633334D01*
X42012380Y15585715D02*
X42012380Y15014286D01*
X42012380Y15300000D02*
X41012380Y15300000D01*
X41155238Y15204762D01*
X41250476Y15109524D01*
X41298095Y15014286D01*
G04 #@! TO.C,J2*
X52016666Y26633334D02*
X52016666Y26133334D01*
X51983333Y26033334D01*
X51916666Y25966667D01*
X51816666Y25933334D01*
X51750000Y25933334D01*
X52316666Y26566667D02*
X52350000Y26600000D01*
X52416666Y26633334D01*
X52583333Y26633334D01*
X52650000Y26600000D01*
X52683333Y26566667D01*
X52716666Y26500000D01*
X52716666Y26433334D01*
X52683333Y26333334D01*
X52283333Y25933334D01*
X52716666Y25933334D01*
X53677619Y39788334D02*
X54282380Y39788334D01*
X53556666Y39425477D02*
X53980000Y40695477D01*
X54403333Y39425477D01*
X54826666Y40695477D02*
X54826666Y39667381D01*
X54887142Y39546429D01*
X54947619Y39485953D01*
X55068571Y39425477D01*
X55310476Y39425477D01*
X55431428Y39485953D01*
X55491904Y39546429D01*
X55552380Y39667381D01*
X55552380Y40695477D01*
X56036190Y40695477D02*
X56882857Y39425477D01*
X56882857Y40695477D02*
X56036190Y39425477D01*
G04 #@! TO.C,RV2*
X20783333Y45483334D02*
X20550000Y45816667D01*
X20383333Y45483334D02*
X20383333Y46183334D01*
X20650000Y46183334D01*
X20716666Y46150000D01*
X20750000Y46116667D01*
X20783333Y46050000D01*
X20783333Y45950000D01*
X20750000Y45883334D01*
X20716666Y45850000D01*
X20650000Y45816667D01*
X20383333Y45816667D01*
X20983333Y46183334D02*
X21216666Y45483334D01*
X21450000Y46183334D01*
X21650000Y46116667D02*
X21683333Y46150000D01*
X21750000Y46183334D01*
X21916666Y46183334D01*
X21983333Y46150000D01*
X22016666Y46116667D01*
X22050000Y46050000D01*
X22050000Y45983334D01*
X22016666Y45883334D01*
X21616666Y45483334D01*
X22050000Y45483334D01*
G04 #@! TO.C,RV1*
X32533666Y21458334D02*
X32200333Y21225000D01*
X32533666Y21058334D02*
X31833666Y21058334D01*
X31833666Y21325000D01*
X31867000Y21391667D01*
X31900333Y21425000D01*
X31967000Y21458334D01*
X32067000Y21458334D01*
X32133666Y21425000D01*
X32167000Y21391667D01*
X32200333Y21325000D01*
X32200333Y21058334D01*
X31833666Y21658334D02*
X32533666Y21891667D01*
X31833666Y22125000D01*
X32533666Y22725000D02*
X32533666Y22325000D01*
X32533666Y22525000D02*
X31833666Y22525000D01*
X31933666Y22458334D01*
X32000333Y22391667D01*
X32033666Y22325000D01*
G04 #@! TO.C,RN1*
X51416666Y45416667D02*
X51083333Y45183334D01*
X51416666Y45016667D02*
X50716666Y45016667D01*
X50716666Y45283334D01*
X50750000Y45350000D01*
X50783333Y45383334D01*
X50850000Y45416667D01*
X50950000Y45416667D01*
X51016666Y45383334D01*
X51050000Y45350000D01*
X51083333Y45283334D01*
X51083333Y45016667D01*
X51416666Y45716667D02*
X50716666Y45716667D01*
X51416666Y46116667D01*
X50716666Y46116667D01*
X51416666Y46816667D02*
X51416666Y46416667D01*
X51416666Y46616667D02*
X50716666Y46616667D01*
X50816666Y46550000D01*
X50883333Y46483334D01*
X50916666Y46416667D01*
G04 #@! TO.C,D6*
X45816666Y39233334D02*
X45116666Y39233334D01*
X45116666Y39400000D01*
X45150000Y39500000D01*
X45216666Y39566667D01*
X45283333Y39600000D01*
X45416666Y39633334D01*
X45516666Y39633334D01*
X45650000Y39600000D01*
X45716666Y39566667D01*
X45783333Y39500000D01*
X45816666Y39400000D01*
X45816666Y39233334D01*
X45116666Y40233334D02*
X45116666Y40100000D01*
X45150000Y40033334D01*
X45183333Y40000000D01*
X45283333Y39933334D01*
X45416666Y39900000D01*
X45683333Y39900000D01*
X45750000Y39933334D01*
X45783333Y39966667D01*
X45816666Y40033334D01*
X45816666Y40166667D01*
X45783333Y40233334D01*
X45750000Y40266667D01*
X45683333Y40300000D01*
X45516666Y40300000D01*
X45450000Y40266667D01*
X45416666Y40233334D01*
X45383333Y40166667D01*
X45383333Y40033334D01*
X45416666Y39966667D01*
X45450000Y39933334D01*
X45516666Y39900000D01*
G04 #@! TO.C,D5*
X47816666Y39233334D02*
X47116666Y39233334D01*
X47116666Y39400000D01*
X47150000Y39500000D01*
X47216666Y39566667D01*
X47283333Y39600000D01*
X47416666Y39633334D01*
X47516666Y39633334D01*
X47650000Y39600000D01*
X47716666Y39566667D01*
X47783333Y39500000D01*
X47816666Y39400000D01*
X47816666Y39233334D01*
X47116666Y40266667D02*
X47116666Y39933334D01*
X47450000Y39900000D01*
X47416666Y39933334D01*
X47383333Y40000000D01*
X47383333Y40166667D01*
X47416666Y40233334D01*
X47450000Y40266667D01*
X47516666Y40300000D01*
X47683333Y40300000D01*
X47750000Y40266667D01*
X47783333Y40233334D01*
X47816666Y40166667D01*
X47816666Y40000000D01*
X47783333Y39933334D01*
X47750000Y39900000D01*
G04 #@! TO.C,D4*
X49566666Y39233334D02*
X48866666Y39233334D01*
X48866666Y39400000D01*
X48900000Y39500000D01*
X48966666Y39566667D01*
X49033333Y39600000D01*
X49166666Y39633334D01*
X49266666Y39633334D01*
X49400000Y39600000D01*
X49466666Y39566667D01*
X49533333Y39500000D01*
X49566666Y39400000D01*
X49566666Y39233334D01*
X49100000Y40233334D02*
X49566666Y40233334D01*
X48833333Y40066667D02*
X49333333Y39900000D01*
X49333333Y40333334D01*
G04 #@! TO.C,D3*
X51566666Y39233334D02*
X50866666Y39233334D01*
X50866666Y39400000D01*
X50900000Y39500000D01*
X50966666Y39566667D01*
X51033333Y39600000D01*
X51166666Y39633334D01*
X51266666Y39633334D01*
X51400000Y39600000D01*
X51466666Y39566667D01*
X51533333Y39500000D01*
X51566666Y39400000D01*
X51566666Y39233334D01*
X50866666Y39866667D02*
X50866666Y40300000D01*
X51133333Y40066667D01*
X51133333Y40166667D01*
X51166666Y40233334D01*
X51200000Y40266667D01*
X51266666Y40300000D01*
X51433333Y40300000D01*
X51500000Y40266667D01*
X51533333Y40233334D01*
X51566666Y40166667D01*
X51566666Y39966667D01*
X51533333Y39900000D01*
X51500000Y39866667D01*
G04 #@! TO.C,SW1*
X38466666Y44916667D02*
X38566666Y44883334D01*
X38733333Y44883334D01*
X38800000Y44916667D01*
X38833333Y44950000D01*
X38866666Y45016667D01*
X38866666Y45083334D01*
X38833333Y45150000D01*
X38800000Y45183334D01*
X38733333Y45216667D01*
X38600000Y45250000D01*
X38533333Y45283334D01*
X38500000Y45316667D01*
X38466666Y45383334D01*
X38466666Y45450000D01*
X38500000Y45516667D01*
X38533333Y45550000D01*
X38600000Y45583334D01*
X38766666Y45583334D01*
X38866666Y45550000D01*
X39100000Y45583334D02*
X39266666Y44883334D01*
X39400000Y45383334D01*
X39533333Y44883334D01*
X39700000Y45583334D01*
X40333333Y44883334D02*
X39933333Y44883334D01*
X40133333Y44883334D02*
X40133333Y45583334D01*
X40066666Y45483334D01*
X40000000Y45416667D01*
X39933333Y45383334D01*
G04 #@! TO.C,U1*
X29466666Y12883334D02*
X29466666Y12316667D01*
X29500000Y12250000D01*
X29533333Y12216667D01*
X29600000Y12183334D01*
X29733333Y12183334D01*
X29800000Y12216667D01*
X29833333Y12250000D01*
X29866666Y12316667D01*
X29866666Y12883334D01*
X30566666Y12183334D02*
X30166666Y12183334D01*
X30366666Y12183334D02*
X30366666Y12883334D01*
X30300000Y12783334D01*
X30233333Y12716667D01*
X30166666Y12683334D01*
G04 #@! TO.C,R10*
X57246666Y44050000D02*
X56913333Y43816667D01*
X57246666Y43650000D02*
X56546666Y43650000D01*
X56546666Y43916667D01*
X56580000Y43983334D01*
X56613333Y44016667D01*
X56680000Y44050000D01*
X56780000Y44050000D01*
X56846666Y44016667D01*
X56880000Y43983334D01*
X56913333Y43916667D01*
X56913333Y43650000D01*
X57246666Y44716667D02*
X57246666Y44316667D01*
X57246666Y44516667D02*
X56546666Y44516667D01*
X56646666Y44450000D01*
X56713333Y44383334D01*
X56746666Y44316667D01*
X56546666Y45150000D02*
X56546666Y45216667D01*
X56580000Y45283334D01*
X56613333Y45316667D01*
X56680000Y45350000D01*
X56813333Y45383334D01*
X56980000Y45383334D01*
X57113333Y45350000D01*
X57180000Y45316667D01*
X57213333Y45283334D01*
X57246666Y45216667D01*
X57246666Y45150000D01*
X57213333Y45083334D01*
X57180000Y45050000D01*
X57113333Y45016667D01*
X56980000Y44983334D01*
X56813333Y44983334D01*
X56680000Y45016667D01*
X56613333Y45050000D01*
X56580000Y45083334D01*
X56546666Y45150000D01*
G04 #@! TO.C,R8*
X22816666Y12883334D02*
X22483333Y12650000D01*
X22816666Y12483334D02*
X22116666Y12483334D01*
X22116666Y12750000D01*
X22150000Y12816667D01*
X22183333Y12850000D01*
X22250000Y12883334D01*
X22350000Y12883334D01*
X22416666Y12850000D01*
X22450000Y12816667D01*
X22483333Y12750000D01*
X22483333Y12483334D01*
X22416666Y13283334D02*
X22383333Y13216667D01*
X22350000Y13183334D01*
X22283333Y13150000D01*
X22250000Y13150000D01*
X22183333Y13183334D01*
X22150000Y13216667D01*
X22116666Y13283334D01*
X22116666Y13416667D01*
X22150000Y13483334D01*
X22183333Y13516667D01*
X22250000Y13550000D01*
X22283333Y13550000D01*
X22350000Y13516667D01*
X22383333Y13483334D01*
X22416666Y13416667D01*
X22416666Y13283334D01*
X22450000Y13216667D01*
X22483333Y13183334D01*
X22550000Y13150000D01*
X22683333Y13150000D01*
X22750000Y13183334D01*
X22783333Y13216667D01*
X22816666Y13283334D01*
X22816666Y13416667D01*
X22783333Y13483334D01*
X22750000Y13516667D01*
X22683333Y13550000D01*
X22550000Y13550000D01*
X22483333Y13516667D01*
X22450000Y13483334D01*
X22416666Y13416667D01*
G04 #@! TO.C,R7*
X19883333Y16683334D02*
X19650000Y17016667D01*
X19483333Y16683334D02*
X19483333Y17383334D01*
X19750000Y17383334D01*
X19816666Y17350000D01*
X19850000Y17316667D01*
X19883333Y17250000D01*
X19883333Y17150000D01*
X19850000Y17083334D01*
X19816666Y17050000D01*
X19750000Y17016667D01*
X19483333Y17016667D01*
X20116666Y17383334D02*
X20583333Y17383334D01*
X20283333Y16683334D01*
G04 #@! TO.C,R6*
X20708333Y12933334D02*
X20475000Y13266667D01*
X20308333Y12933334D02*
X20308333Y13633334D01*
X20575000Y13633334D01*
X20641666Y13600000D01*
X20675000Y13566667D01*
X20708333Y13500000D01*
X20708333Y13400000D01*
X20675000Y13333334D01*
X20641666Y13300000D01*
X20575000Y13266667D01*
X20308333Y13266667D01*
X21308333Y13633334D02*
X21175000Y13633334D01*
X21108333Y13600000D01*
X21075000Y13566667D01*
X21008333Y13466667D01*
X20975000Y13333334D01*
X20975000Y13066667D01*
X21008333Y13000000D01*
X21041666Y12966667D01*
X21108333Y12933334D01*
X21241666Y12933334D01*
X21308333Y12966667D01*
X21341666Y13000000D01*
X21375000Y13066667D01*
X21375000Y13233334D01*
X21341666Y13300000D01*
X21308333Y13333334D01*
X21241666Y13366667D01*
X21108333Y13366667D01*
X21041666Y13333334D01*
X21008333Y13300000D01*
X20975000Y13233334D01*
G04 #@! TO.C,R5*
X25746666Y16558334D02*
X25413333Y16325000D01*
X25746666Y16158334D02*
X25046666Y16158334D01*
X25046666Y16425000D01*
X25080000Y16491667D01*
X25113333Y16525000D01*
X25180000Y16558334D01*
X25280000Y16558334D01*
X25346666Y16525000D01*
X25380000Y16491667D01*
X25413333Y16425000D01*
X25413333Y16158334D01*
X25046666Y17191667D02*
X25046666Y16858334D01*
X25380000Y16825000D01*
X25346666Y16858334D01*
X25313333Y16925000D01*
X25313333Y17091667D01*
X25346666Y17158334D01*
X25380000Y17191667D01*
X25446666Y17225000D01*
X25613333Y17225000D01*
X25680000Y17191667D01*
X25713333Y17158334D01*
X25746666Y17091667D01*
X25746666Y16925000D01*
X25713333Y16858334D01*
X25680000Y16825000D01*
G04 #@! TO.C,R4*
X20566666Y18633334D02*
X20233333Y18400000D01*
X20566666Y18233334D02*
X19866666Y18233334D01*
X19866666Y18500000D01*
X19900000Y18566667D01*
X19933333Y18600000D01*
X20000000Y18633334D01*
X20100000Y18633334D01*
X20166666Y18600000D01*
X20200000Y18566667D01*
X20233333Y18500000D01*
X20233333Y18233334D01*
X20100000Y19233334D02*
X20566666Y19233334D01*
X19833333Y19066667D02*
X20333333Y18900000D01*
X20333333Y19333334D01*
G04 #@! TO.C,R3*
X36116666Y12833334D02*
X35783333Y12600000D01*
X36116666Y12433334D02*
X35416666Y12433334D01*
X35416666Y12700000D01*
X35450000Y12766667D01*
X35483333Y12800000D01*
X35550000Y12833334D01*
X35650000Y12833334D01*
X35716666Y12800000D01*
X35750000Y12766667D01*
X35783333Y12700000D01*
X35783333Y12433334D01*
X35416666Y13066667D02*
X35416666Y13500000D01*
X35683333Y13266667D01*
X35683333Y13366667D01*
X35716666Y13433334D01*
X35750000Y13466667D01*
X35816666Y13500000D01*
X35983333Y13500000D01*
X36050000Y13466667D01*
X36083333Y13433334D01*
X36116666Y13366667D01*
X36116666Y13166667D01*
X36083333Y13100000D01*
X36050000Y13066667D01*
G04 #@! TO.C,R2*
X25558333Y20613334D02*
X25325000Y20946667D01*
X25158333Y20613334D02*
X25158333Y21313334D01*
X25425000Y21313334D01*
X25491666Y21280000D01*
X25525000Y21246667D01*
X25558333Y21180000D01*
X25558333Y21080000D01*
X25525000Y21013334D01*
X25491666Y20980000D01*
X25425000Y20946667D01*
X25158333Y20946667D01*
X25825000Y21246667D02*
X25858333Y21280000D01*
X25925000Y21313334D01*
X26091666Y21313334D01*
X26158333Y21280000D01*
X26191666Y21246667D01*
X26225000Y21180000D01*
X26225000Y21113334D01*
X26191666Y21013334D01*
X25791666Y20613334D01*
X26225000Y20613334D01*
G04 #@! TO.C,R1*
X38883333Y14283334D02*
X38650000Y14616667D01*
X38483333Y14283334D02*
X38483333Y14983334D01*
X38750000Y14983334D01*
X38816666Y14950000D01*
X38850000Y14916667D01*
X38883333Y14850000D01*
X38883333Y14750000D01*
X38850000Y14683334D01*
X38816666Y14650000D01*
X38750000Y14616667D01*
X38483333Y14616667D01*
X39550000Y14283334D02*
X39150000Y14283334D01*
X39350000Y14283334D02*
X39350000Y14983334D01*
X39283333Y14883334D01*
X39216666Y14816667D01*
X39150000Y14783334D01*
G04 #@! TO.C,D2*
X7283333Y30683334D02*
X7283333Y31383334D01*
X7450000Y31383334D01*
X7550000Y31350000D01*
X7616666Y31283334D01*
X7650000Y31216667D01*
X7683333Y31083334D01*
X7683333Y30983334D01*
X7650000Y30850000D01*
X7616666Y30783334D01*
X7550000Y30716667D01*
X7450000Y30683334D01*
X7283333Y30683334D01*
X7950000Y31316667D02*
X7983333Y31350000D01*
X8050000Y31383334D01*
X8216666Y31383334D01*
X8283333Y31350000D01*
X8316666Y31316667D01*
X8350000Y31250000D01*
X8350000Y31183334D01*
X8316666Y31083334D01*
X7916666Y30683334D01*
X8350000Y30683334D01*
G04 #@! TO.C,D1*
X5483333Y25883334D02*
X5483333Y26583334D01*
X5650000Y26583334D01*
X5750000Y26550000D01*
X5816666Y26483334D01*
X5850000Y26416667D01*
X5883333Y26283334D01*
X5883333Y26183334D01*
X5850000Y26050000D01*
X5816666Y25983334D01*
X5750000Y25916667D01*
X5650000Y25883334D01*
X5483333Y25883334D01*
X6550000Y25883334D02*
X6150000Y25883334D01*
X6350000Y25883334D02*
X6350000Y26583334D01*
X6283333Y26483334D01*
X6216666Y26416667D01*
X6150000Y26383334D01*
G04 #@! TO.C,C6*
X53090000Y44383334D02*
X53123333Y44350000D01*
X53156666Y44250000D01*
X53156666Y44183334D01*
X53123333Y44083334D01*
X53056666Y44016667D01*
X52990000Y43983334D01*
X52856666Y43950000D01*
X52756666Y43950000D01*
X52623333Y43983334D01*
X52556666Y44016667D01*
X52490000Y44083334D01*
X52456666Y44183334D01*
X52456666Y44250000D01*
X52490000Y44350000D01*
X52523333Y44383334D01*
X52456666Y44983334D02*
X52456666Y44850000D01*
X52490000Y44783334D01*
X52523333Y44750000D01*
X52623333Y44683334D01*
X52756666Y44650000D01*
X53023333Y44650000D01*
X53090000Y44683334D01*
X53123333Y44716667D01*
X53156666Y44783334D01*
X53156666Y44916667D01*
X53123333Y44983334D01*
X53090000Y45016667D01*
X53023333Y45050000D01*
X52856666Y45050000D01*
X52790000Y45016667D01*
X52756666Y44983334D01*
X52723333Y44916667D01*
X52723333Y44783334D01*
X52756666Y44716667D01*
X52790000Y44683334D01*
X52856666Y44650000D01*
G04 #@! TO.C,C5*
X26000000Y13383334D02*
X26033333Y13350000D01*
X26066666Y13250000D01*
X26066666Y13183334D01*
X26033333Y13083334D01*
X25966666Y13016667D01*
X25900000Y12983334D01*
X25766666Y12950000D01*
X25666666Y12950000D01*
X25533333Y12983334D01*
X25466666Y13016667D01*
X25400000Y13083334D01*
X25366666Y13183334D01*
X25366666Y13250000D01*
X25400000Y13350000D01*
X25433333Y13383334D01*
X25366666Y14016667D02*
X25366666Y13683334D01*
X25700000Y13650000D01*
X25666666Y13683334D01*
X25633333Y13750000D01*
X25633333Y13916667D01*
X25666666Y13983334D01*
X25700000Y14016667D01*
X25766666Y14050000D01*
X25933333Y14050000D01*
X26000000Y14016667D01*
X26033333Y13983334D01*
X26066666Y13916667D01*
X26066666Y13750000D01*
X26033333Y13683334D01*
X26000000Y13650000D01*
G04 #@! TO.C,C4*
X16250000Y15383334D02*
X16283333Y15350000D01*
X16316666Y15250000D01*
X16316666Y15183334D01*
X16283333Y15083334D01*
X16216666Y15016667D01*
X16150000Y14983334D01*
X16016666Y14950000D01*
X15916666Y14950000D01*
X15783333Y14983334D01*
X15716666Y15016667D01*
X15650000Y15083334D01*
X15616666Y15183334D01*
X15616666Y15250000D01*
X15650000Y15350000D01*
X15683333Y15383334D01*
X15850000Y15983334D02*
X16316666Y15983334D01*
X15583333Y15816667D02*
X16083333Y15650000D01*
X16083333Y16083334D01*
G04 #@! TO.C,C3*
X36483333Y17950000D02*
X36450000Y17916667D01*
X36350000Y17883334D01*
X36283333Y17883334D01*
X36183333Y17916667D01*
X36116666Y17983334D01*
X36083333Y18050000D01*
X36050000Y18183334D01*
X36050000Y18283334D01*
X36083333Y18416667D01*
X36116666Y18483334D01*
X36183333Y18550000D01*
X36283333Y18583334D01*
X36350000Y18583334D01*
X36450000Y18550000D01*
X36483333Y18516667D01*
X36716666Y18583334D02*
X37150000Y18583334D01*
X36916666Y18316667D01*
X37016666Y18316667D01*
X37083333Y18283334D01*
X37116666Y18250000D01*
X37150000Y18183334D01*
X37150000Y18016667D01*
X37116666Y17950000D01*
X37083333Y17916667D01*
X37016666Y17883334D01*
X36816666Y17883334D01*
X36750000Y17916667D01*
X36716666Y17950000D01*
G04 #@! TO.C,P1*
X36313333Y4763334D02*
X36313333Y5463334D01*
X36580000Y5463334D01*
X36646666Y5430000D01*
X36680000Y5396667D01*
X36713333Y5330000D01*
X36713333Y5230000D01*
X36680000Y5163334D01*
X36646666Y5130000D01*
X36580000Y5096667D01*
X36313333Y5096667D01*
X37380000Y4763334D02*
X36980000Y4763334D01*
X37180000Y4763334D02*
X37180000Y5463334D01*
X37113333Y5363334D01*
X37046666Y5296667D01*
X36980000Y5263334D01*
G04 #@! TO.C,P2*
X56887333Y4763334D02*
X56887333Y5463334D01*
X57154000Y5463334D01*
X57220666Y5430000D01*
X57254000Y5396667D01*
X57287333Y5330000D01*
X57287333Y5230000D01*
X57254000Y5163334D01*
X57220666Y5130000D01*
X57154000Y5096667D01*
X56887333Y5096667D01*
X57554000Y5396667D02*
X57587333Y5430000D01*
X57654000Y5463334D01*
X57820666Y5463334D01*
X57887333Y5430000D01*
X57920666Y5396667D01*
X57954000Y5330000D01*
X57954000Y5263334D01*
X57920666Y5163334D01*
X57520666Y4763334D01*
X57954000Y4763334D01*
G04 #@! TO.C,P3*
X29709333Y47689334D02*
X29709333Y48389334D01*
X29976000Y48389334D01*
X30042666Y48356000D01*
X30076000Y48322667D01*
X30109333Y48256000D01*
X30109333Y48156000D01*
X30076000Y48089334D01*
X30042666Y48056000D01*
X29976000Y48022667D01*
X29709333Y48022667D01*
X30342666Y48389334D02*
X30776000Y48389334D01*
X30542666Y48122667D01*
X30642666Y48122667D01*
X30709333Y48089334D01*
X30742666Y48056000D01*
X30776000Y47989334D01*
X30776000Y47822667D01*
X30742666Y47756000D01*
X30709333Y47722667D01*
X30642666Y47689334D01*
X30442666Y47689334D01*
X30376000Y47722667D01*
X30342666Y47756000D01*
G04 #@! TO.C,P4*
X54093333Y47689334D02*
X54093333Y48389334D01*
X54360000Y48389334D01*
X54426666Y48356000D01*
X54460000Y48322667D01*
X54493333Y48256000D01*
X54493333Y48156000D01*
X54460000Y48089334D01*
X54426666Y48056000D01*
X54360000Y48022667D01*
X54093333Y48022667D01*
X55093333Y48156000D02*
X55093333Y47689334D01*
X54926666Y48422667D02*
X54760000Y47922667D01*
X55193333Y47922667D01*
G04 #@! TD*
M02*
