M48
; DRILL file {KiCad 5.1.5+dfsg1-2build2} date Tue Nov 30 21:55:48 2021
; FORMAT={-:-/ absolute / metric / decimal}
; #@! TF.CreationDate,2021-11-30T21:55:48+00:00
; #@! TF.GenerationSoftware,Kicad,Pcbnew,5.1.5+dfsg1-2build2
FMAT,2
METRIC
T1C0.400
T2C1.016
T3C3.048
%
G90
G05
T1
X11.75Y26.5
X12.0Y31.0
X15.75Y31.0
X15.75Y26.5
X15.75Y17.0
X17.5Y18.5
X19.0Y15.4
X19.0Y13.0
X19.4Y17.4
X19.5Y31.0
X19.5Y26.5
X21.3Y41.7
X23.75Y11.25
X25.6Y6.4
X25.8Y15.6
X28.5Y33.5
X29.0Y34.6
X30.0Y44.5
X30.0Y24.25
X30.4Y36.0
X30.75Y25.0
X31.8Y46.4
X31.8Y8.5
X31.8Y6.5
X32.2Y37.8
X33.5Y28.0
X34.75Y6.5
X34.8Y42.8
X34.8Y8.5
X35.0Y29.5
X36.4Y10.8
X37.2Y34.6
X37.531Y21.719
X38.8Y10.8
X39.0Y19.0
X39.1Y14.3
X39.2Y26.2
X40.3Y28.2
X40.4Y40.0
X41.0Y26.2
X44.0Y44.6
X44.25Y6.5
X44.6Y10.8
X45.0Y22.0
X45.25Y5.5
X46.25Y4.5
X47.0Y6.75
X47.75Y17.25
X48.0Y5.75
X48.6Y26.0
X48.75Y18.25
X48.8Y14.8
X49.0Y4.75
X50.0Y40.0
X50.0Y38.8
X50.0Y26.0
X50.5Y17.0
X52.0Y45.0
X54.5Y40.0
X54.75Y22.0
X55.25Y21.5
X55.5Y13.3
X55.9Y27.5
X56.5Y18.6
X56.71Y35.04
X56.75Y30.36
X57.0Y37.0
X57.0Y32.5
X57.0Y10.25
X57.0Y8.25
X60.25Y25.75
X60.75Y10.75
X60.75Y6.25
X63.75Y43.25
X63.75Y42.25
X63.75Y41.25
X63.75Y40.25
T2
X18.796Y50.8
X21.336Y50.8
X23.876Y50.8
X26.416Y50.8
X28.956Y50.8
X31.496Y50.8
X34.036Y50.8
X36.576Y50.8
X39.116Y50.8
X41.656Y50.8
X45.72Y50.8
X48.26Y50.8
X50.8Y50.8
X53.34Y50.8
X55.88Y50.8
X58.42Y50.8
X60.96Y50.8
X63.5Y50.8
X50.8Y2.54
X53.34Y2.54
X55.88Y2.54
X58.42Y2.54
X60.96Y2.54
X63.5Y2.54
X27.94Y2.54
X30.48Y2.54
X33.02Y2.54
X35.56Y2.54
X38.1Y2.54
X40.64Y2.54
X43.18Y2.54
X45.72Y2.54
T3
X13.97Y2.54
X66.04Y35.56
X15.24Y50.8
X66.04Y7.62
T0
M30
