G04 #@! TF.GenerationSoftware,KiCad,Pcbnew,5.1.5+dfsg1-2build2*
G04 #@! TF.CreationDate,2021-11-30T21:55:48+00:00*
G04 #@! TF.ProjectId,shield,73686965-6c64-42e6-9b69-6361645f7063,rev?*
G04 #@! TF.SameCoordinates,Original*
G04 #@! TF.FileFunction,Copper,L2,Bot*
G04 #@! TF.FilePolarity,Positive*
%FSLAX46Y46*%
G04 Gerber Fmt 4.6, Leading zero omitted, Abs format (unit mm)*
G04 Created by KiCad (PCBNEW 5.1.5+dfsg1-2build2) date 2021-11-30 21:55:48*
%MOMM*%
%LPD*%
G04 APERTURE LIST*
G04 #@! TA.AperFunction,ComponentPad*
%ADD10O,1.727200X2.032000*%
G04 #@! TD*
G04 #@! TA.AperFunction,ComponentPad*
%ADD11C,4.064000*%
G04 #@! TD*
G04 #@! TA.AperFunction,ViaPad*
%ADD12C,0.600000*%
G04 #@! TD*
G04 #@! TA.AperFunction,Conductor*
%ADD13C,0.400000*%
G04 #@! TD*
G04 #@! TA.AperFunction,Conductor*
%ADD14C,0.250000*%
G04 #@! TD*
G04 #@! TA.AperFunction,Conductor*
%ADD15C,0.254000*%
G04 #@! TD*
G04 APERTURE END LIST*
D10*
G04 #@! TO.P,P1,1*
G04 #@! TO.N,Net-(P1-Pad1)*
X27940000Y2540000D03*
G04 #@! TO.P,P1,2*
G04 #@! TO.N,/IOREF*
X30480000Y2540000D03*
G04 #@! TO.P,P1,3*
G04 #@! TO.N,/Reset*
X33020000Y2540000D03*
G04 #@! TO.P,P1,4*
G04 #@! TO.N,+3V3*
X35560000Y2540000D03*
G04 #@! TO.P,P1,5*
G04 #@! TO.N,+5V*
X38100000Y2540000D03*
G04 #@! TO.P,P1,6*
G04 #@! TO.N,GND*
X40640000Y2540000D03*
G04 #@! TO.P,P1,7*
X43180000Y2540000D03*
G04 #@! TO.P,P1,8*
G04 #@! TO.N,/Vin*
X45720000Y2540000D03*
G04 #@! TD*
G04 #@! TO.P,P2,1*
G04 #@! TO.N,PHOTODIODE_DC*
X50800000Y2540000D03*
G04 #@! TO.P,P2,2*
G04 #@! TO.N,PHOTODIODE_AMPLIFIED*
X53340000Y2540000D03*
G04 #@! TO.P,P2,3*
G04 #@! TO.N,LM35_AMPLIFIED*
X55880000Y2540000D03*
G04 #@! TO.P,P2,4*
G04 #@! TO.N,LM35_DATA_FILTERED*
X58420000Y2540000D03*
G04 #@! TO.P,P2,5*
G04 #@! TO.N,A4*
X60960000Y2540000D03*
G04 #@! TO.P,P2,6*
G04 #@! TO.N,A5*
X63500000Y2540000D03*
G04 #@! TD*
G04 #@! TO.P,P3,1*
G04 #@! TO.N,Net-(P3-Pad1)*
X18796000Y50800000D03*
G04 #@! TO.P,P3,2*
G04 #@! TO.N,Net-(P3-Pad2)*
X21336000Y50800000D03*
G04 #@! TO.P,P3,3*
G04 #@! TO.N,/AREF*
X23876000Y50800000D03*
G04 #@! TO.P,P3,4*
G04 #@! TO.N,GND*
X26416000Y50800000D03*
G04 #@! TO.P,P3,5*
G04 #@! TO.N,/13(SCK)*
X28956000Y50800000D03*
G04 #@! TO.P,P3,6*
G04 #@! TO.N,/12(MISO)*
X31496000Y50800000D03*
G04 #@! TO.P,P3,7*
G04 #@! TO.N,/11(\002A\002A/MOSI)*
X34036000Y50800000D03*
G04 #@! TO.P,P3,8*
G04 #@! TO.N,/10(\002A\002A/SS)*
X36576000Y50800000D03*
G04 #@! TO.P,P3,9*
G04 #@! TO.N,/9(\002A\002A)*
X39116000Y50800000D03*
G04 #@! TO.P,P3,10*
G04 #@! TO.N,LED4*
X41656000Y50800000D03*
G04 #@! TD*
G04 #@! TO.P,P4,1*
G04 #@! TO.N,LED3*
X45720000Y50800000D03*
G04 #@! TO.P,P4,2*
G04 #@! TO.N,LED2*
X48260000Y50800000D03*
G04 #@! TO.P,P4,3*
G04 #@! TO.N,LED1*
X50800000Y50800000D03*
G04 #@! TO.P,P4,4*
G04 #@! TO.N,/4*
X53340000Y50800000D03*
G04 #@! TO.P,P4,5*
G04 #@! TO.N,A5*
X55880000Y50800000D03*
G04 #@! TO.P,P4,6*
G04 #@! TO.N,/2*
X58420000Y50800000D03*
G04 #@! TO.P,P4,7*
G04 #@! TO.N,/1(Tx)*
X60960000Y50800000D03*
G04 #@! TO.P,P4,8*
G04 #@! TO.N,/0(Rx)*
X63500000Y50800000D03*
G04 #@! TD*
D11*
G04 #@! TO.P,P5,1*
G04 #@! TO.N,Net-(P5-Pad1)*
X13970000Y2540000D03*
G04 #@! TD*
G04 #@! TO.P,P6,1*
G04 #@! TO.N,Net-(P6-Pad1)*
X66040000Y7620000D03*
G04 #@! TD*
G04 #@! TO.P,P7,1*
G04 #@! TO.N,Net-(P7-Pad1)*
X15240000Y50800000D03*
G04 #@! TD*
G04 #@! TO.P,P8,1*
G04 #@! TO.N,Net-(P8-Pad1)*
X66040000Y35560000D03*
G04 #@! TD*
D12*
G04 #@! TO.N,+5V*
X37531000Y21719000D03*
X28500000Y33500000D03*
G04 #@! TO.N,GND*
X25800000Y15600000D03*
X39000000Y19000000D03*
X30750000Y25000000D03*
X30000000Y24250000D03*
X23750000Y11250000D03*
X17500000Y18500000D03*
X15750000Y17000000D03*
X49000000Y4750000D03*
X48000000Y5750000D03*
X47000000Y6750000D03*
X44250000Y6500000D03*
X45250000Y5500000D03*
X46250000Y4500000D03*
X31800000Y8500000D03*
X34800000Y8500000D03*
X31800000Y6500000D03*
X34750000Y6500000D03*
X48750000Y18250000D03*
X47750000Y17250000D03*
X50500000Y17000000D03*
X54750000Y22000000D03*
X55250000Y21500000D03*
X57000000Y10250000D03*
X57000000Y8250000D03*
X60750000Y6250000D03*
X60750000Y10750000D03*
X60250000Y25750000D03*
X63750000Y43250000D03*
X63750000Y42250000D03*
X63750000Y41250000D03*
X63750000Y40250000D03*
X33500000Y28000000D03*
X35000000Y29500000D03*
X37200000Y34600000D03*
X15750000Y31000000D03*
X15750000Y26500000D03*
X12000000Y31000000D03*
X11750000Y26500000D03*
X19500000Y31000000D03*
X19500000Y26500000D03*
X52000000Y45000000D03*
X48600000Y26000000D03*
X45000000Y22000000D03*
X19000000Y13000000D03*
X19000000Y15400000D03*
X19400000Y17400000D03*
X25600000Y6400000D03*
X50000000Y40000000D03*
X50000000Y38800000D03*
X44600000Y10800000D03*
X48800000Y14800000D03*
X38800000Y10800000D03*
X36400000Y10800000D03*
X32200000Y37800000D03*
X30400000Y36000000D03*
X29000000Y34600000D03*
X31800000Y46400000D03*
X44000000Y44600000D03*
X40300000Y28200000D03*
X41000000Y26200000D03*
X21300000Y41700000D03*
X40400000Y40000000D03*
X55900000Y27500000D03*
X55500000Y13300000D03*
X56500000Y18600000D03*
G04 #@! TO.N,/4*
X54500000Y40000000D03*
G04 #@! TO.N,/13(SCK)*
X56750000Y30360000D03*
G04 #@! TO.N,/10(\002A\002A/SS)*
X57000000Y37000000D03*
G04 #@! TO.N,/12(MISO)*
X57000000Y32500000D03*
G04 #@! TO.N,/11(\002A\002A/MOSI)*
X56710000Y35040000D03*
G04 #@! TO.N,LED_POWER*
X34800000Y42800000D03*
X50000000Y26000000D03*
X30000000Y44500000D03*
G04 #@! TO.N,LM35_DATA_FILTERED*
X39100000Y14300000D03*
X39200000Y26200000D03*
G04 #@! TD*
D13*
G04 #@! TO.N,+5V*
X28500000Y30750000D02*
X37531000Y21719000D01*
X28500000Y33500000D02*
X28500000Y30750000D01*
X37531000Y3109000D02*
X38100000Y2540000D01*
X37531000Y21719000D02*
X37531000Y3109000D01*
D14*
G04 #@! TO.N,/4*
X53340000Y41160000D02*
X54500000Y40000000D01*
X53340000Y50800000D02*
X53340000Y41160000D01*
G04 #@! TO.N,/13(SCK)*
X30440010Y48049990D02*
X28956000Y49534000D01*
X28956000Y49534000D02*
X28956000Y50800000D01*
X34375012Y48049990D02*
X30440010Y48049990D01*
X52065002Y30360000D02*
X34375012Y48049990D01*
X56750000Y30360000D02*
X52065002Y30360000D01*
G04 #@! TO.N,/10(\002A\002A/SS)*
X36576000Y49534000D02*
X36576000Y50800000D01*
X49110000Y37000000D02*
X36576000Y49534000D01*
X57000000Y37000000D02*
X49110000Y37000000D01*
G04 #@! TO.N,/12(MISO)*
X57000000Y32500000D02*
X52337180Y32500000D01*
X52337180Y32500000D02*
X36337180Y48500000D01*
X31496000Y49534000D02*
X31496000Y50800000D01*
X32530000Y48500000D02*
X31496000Y49534000D01*
X36337180Y48500000D02*
X32530000Y48500000D01*
G04 #@! TO.N,/11(\002A\002A/MOSI)*
X55624274Y36549990D02*
X48923600Y36549990D01*
X56710000Y35464264D02*
X55624274Y36549990D01*
X56710000Y35040000D02*
X56710000Y35464264D01*
X48923600Y36549990D02*
X36473590Y49000000D01*
X34036000Y49534000D02*
X34036000Y50800000D01*
X34570000Y49000000D02*
X34036000Y49534000D01*
X36473590Y49000000D02*
X34570000Y49000000D01*
D13*
G04 #@! TO.N,LED_POWER*
X50000000Y27600000D02*
X34800000Y42800000D01*
X50000000Y26000000D02*
X50000000Y27600000D01*
X33100000Y44500000D02*
X34800000Y42800000D01*
X30000000Y44500000D02*
X33100000Y44500000D01*
D14*
G04 #@! TO.N,LM35_DATA_FILTERED*
X39399999Y14599999D02*
X39100000Y14300000D01*
X39625001Y14825001D02*
X39399999Y14599999D01*
X39625001Y25774999D02*
X39625001Y14825001D01*
X39200000Y26200000D02*
X39625001Y25774999D01*
G04 #@! TD*
D15*
G04 #@! TO.N,GND*
G36*
X12876536Y52063298D02*
G01*
X12675492Y51577935D01*
X12573000Y51062677D01*
X12573000Y50537323D01*
X12675492Y50022065D01*
X12876536Y49536702D01*
X13168406Y49099887D01*
X13539887Y48728406D01*
X13976702Y48436536D01*
X14462065Y48235492D01*
X14977323Y48133000D01*
X15502677Y48133000D01*
X16017935Y48235492D01*
X16503298Y48436536D01*
X16940113Y48728406D01*
X17311594Y49099887D01*
X17603464Y49536702D01*
X17659001Y49670781D01*
X17731203Y49582803D01*
X17959395Y49395531D01*
X18219737Y49256375D01*
X18502224Y49170684D01*
X18796000Y49141749D01*
X19089777Y49170684D01*
X19372264Y49256375D01*
X19632606Y49395531D01*
X19860797Y49582803D01*
X20048069Y49810994D01*
X20066000Y49844541D01*
X20083931Y49810994D01*
X20271203Y49582803D01*
X20499395Y49395531D01*
X20759737Y49256375D01*
X21042224Y49170684D01*
X21336000Y49141749D01*
X21629777Y49170684D01*
X21912264Y49256375D01*
X22172606Y49395531D01*
X22400797Y49582803D01*
X22588069Y49810994D01*
X22606000Y49844541D01*
X22623931Y49810994D01*
X22811203Y49582803D01*
X23039395Y49395531D01*
X23299737Y49256375D01*
X23582224Y49170684D01*
X23876000Y49141749D01*
X24169777Y49170684D01*
X24452264Y49256375D01*
X24712606Y49395531D01*
X24940797Y49582803D01*
X25128069Y49810994D01*
X25149424Y49850947D01*
X25297514Y49648271D01*
X25513965Y49449267D01*
X25765081Y49296314D01*
X26041211Y49195291D01*
X26056974Y49192642D01*
X26289000Y49313783D01*
X26289000Y50673000D01*
X26269000Y50673000D01*
X26269000Y50927000D01*
X26289000Y50927000D01*
X26289000Y50947000D01*
X26543000Y50947000D01*
X26543000Y50927000D01*
X26563000Y50927000D01*
X26563000Y50673000D01*
X26543000Y50673000D01*
X26543000Y49313783D01*
X26775026Y49192642D01*
X26790789Y49195291D01*
X27066919Y49296314D01*
X27318035Y49449267D01*
X27534486Y49648271D01*
X27682576Y49850947D01*
X27703931Y49810994D01*
X27891203Y49582803D01*
X28119395Y49395531D01*
X28220142Y49341680D01*
X28235138Y49292246D01*
X28250454Y49241754D01*
X28321026Y49109724D01*
X28358716Y49063799D01*
X28415999Y48993999D01*
X28445003Y48970196D01*
X29876210Y47538988D01*
X29900009Y47509989D01*
X29929007Y47486191D01*
X30015733Y47415016D01*
X30147763Y47344444D01*
X30291024Y47300987D01*
X30402677Y47289990D01*
X30402686Y47289990D01*
X30440009Y47286314D01*
X30477332Y47289990D01*
X34060211Y47289990D01*
X51501203Y29848997D01*
X51525001Y29819999D01*
X51640726Y29725026D01*
X51772755Y29654454D01*
X51916016Y29610997D01*
X52027669Y29600000D01*
X52027677Y29600000D01*
X52065002Y29596324D01*
X52102327Y29600000D01*
X56204465Y29600000D01*
X56307111Y29531414D01*
X56477271Y29460932D01*
X56657911Y29425000D01*
X56842089Y29425000D01*
X57022729Y29460932D01*
X57192889Y29531414D01*
X57346028Y29633738D01*
X57476262Y29763972D01*
X57578586Y29917111D01*
X57649068Y30087271D01*
X57685000Y30267911D01*
X57685000Y30452089D01*
X57649068Y30632729D01*
X57578586Y30802889D01*
X57476262Y30956028D01*
X57346028Y31086262D01*
X57192889Y31188586D01*
X57022729Y31259068D01*
X56842089Y31295000D01*
X56657911Y31295000D01*
X56477271Y31259068D01*
X56307111Y31188586D01*
X56204465Y31120000D01*
X52379804Y31120000D01*
X35759803Y47740000D01*
X36022379Y47740000D01*
X51773381Y31988997D01*
X51797179Y31959999D01*
X51826177Y31936201D01*
X51912903Y31865026D01*
X52044933Y31794454D01*
X52188194Y31750997D01*
X52299847Y31740000D01*
X52299857Y31740000D01*
X52337180Y31736324D01*
X52374502Y31740000D01*
X56454465Y31740000D01*
X56557111Y31671414D01*
X56727271Y31600932D01*
X56907911Y31565000D01*
X57092089Y31565000D01*
X57272729Y31600932D01*
X57442889Y31671414D01*
X57596028Y31773738D01*
X57726262Y31903972D01*
X57828586Y32057111D01*
X57899068Y32227271D01*
X57935000Y32407911D01*
X57935000Y32592089D01*
X57899068Y32772729D01*
X57828586Y32942889D01*
X57726262Y33096028D01*
X57596028Y33226262D01*
X57442889Y33328586D01*
X57272729Y33399068D01*
X57092089Y33435000D01*
X56907911Y33435000D01*
X56727271Y33399068D01*
X56557111Y33328586D01*
X56454465Y33260000D01*
X52651982Y33260000D01*
X50121992Y35789990D01*
X55309473Y35789990D01*
X55806917Y35292545D01*
X55775000Y35132089D01*
X55775000Y34947911D01*
X55810932Y34767271D01*
X55881414Y34597111D01*
X55983738Y34443972D01*
X56113972Y34313738D01*
X56267111Y34211414D01*
X56437271Y34140932D01*
X56617911Y34105000D01*
X56802089Y34105000D01*
X56982729Y34140932D01*
X57152889Y34211414D01*
X57306028Y34313738D01*
X57436262Y34443972D01*
X57538586Y34597111D01*
X57609068Y34767271D01*
X57645000Y34947911D01*
X57645000Y35132089D01*
X57609068Y35312729D01*
X57538586Y35482889D01*
X57460303Y35600048D01*
X57459003Y35613250D01*
X57415546Y35756511D01*
X57344974Y35888540D01*
X57303507Y35939068D01*
X57273799Y35975268D01*
X57273795Y35975272D01*
X57250001Y36004265D01*
X57221008Y36028059D01*
X57168807Y36080260D01*
X57272729Y36100932D01*
X57442889Y36171414D01*
X57596028Y36273738D01*
X57726262Y36403972D01*
X57828586Y36557111D01*
X57899068Y36727271D01*
X57935000Y36907911D01*
X57935000Y37092089D01*
X57899068Y37272729D01*
X57828586Y37442889D01*
X57726262Y37596028D01*
X57596028Y37726262D01*
X57442889Y37828586D01*
X57272729Y37899068D01*
X57092089Y37935000D01*
X56907911Y37935000D01*
X56727271Y37899068D01*
X56557111Y37828586D01*
X56454465Y37760000D01*
X49424802Y37760000D01*
X37619487Y49565314D01*
X37640797Y49582803D01*
X37828069Y49810994D01*
X37846000Y49844541D01*
X37863931Y49810994D01*
X38051203Y49582803D01*
X38279395Y49395531D01*
X38539737Y49256375D01*
X38822224Y49170684D01*
X39116000Y49141749D01*
X39409777Y49170684D01*
X39692264Y49256375D01*
X39952606Y49395531D01*
X40180797Y49582803D01*
X40368069Y49810994D01*
X40386000Y49844541D01*
X40403931Y49810994D01*
X40591203Y49582803D01*
X40819395Y49395531D01*
X41079737Y49256375D01*
X41362224Y49170684D01*
X41656000Y49141749D01*
X41949777Y49170684D01*
X42232264Y49256375D01*
X42492606Y49395531D01*
X42720797Y49582803D01*
X42908069Y49810994D01*
X43047225Y50071337D01*
X43132916Y50353824D01*
X43154600Y50573982D01*
X43154600Y51026019D01*
X43132916Y51246177D01*
X43047225Y51528664D01*
X42908069Y51789006D01*
X42720797Y52017197D01*
X42492605Y52204469D01*
X42232263Y52343625D01*
X42135426Y52373000D01*
X45240573Y52373000D01*
X45143736Y52343625D01*
X44883394Y52204469D01*
X44655203Y52017197D01*
X44467931Y51789005D01*
X44328775Y51528663D01*
X44243084Y51246176D01*
X44221400Y51026018D01*
X44221400Y50573981D01*
X44243084Y50353823D01*
X44328775Y50071336D01*
X44467931Y49810994D01*
X44655203Y49582803D01*
X44883395Y49395531D01*
X45143737Y49256375D01*
X45426224Y49170684D01*
X45720000Y49141749D01*
X46013777Y49170684D01*
X46296264Y49256375D01*
X46556606Y49395531D01*
X46784797Y49582803D01*
X46972069Y49810994D01*
X46990000Y49844541D01*
X47007931Y49810994D01*
X47195203Y49582803D01*
X47423395Y49395531D01*
X47683737Y49256375D01*
X47966224Y49170684D01*
X48260000Y49141749D01*
X48553777Y49170684D01*
X48836264Y49256375D01*
X49096606Y49395531D01*
X49324797Y49582803D01*
X49512069Y49810994D01*
X49530000Y49844541D01*
X49547931Y49810994D01*
X49735203Y49582803D01*
X49963395Y49395531D01*
X50223737Y49256375D01*
X50506224Y49170684D01*
X50800000Y49141749D01*
X51093777Y49170684D01*
X51376264Y49256375D01*
X51636606Y49395531D01*
X51864797Y49582803D01*
X52052069Y49810994D01*
X52070000Y49844541D01*
X52087931Y49810994D01*
X52275203Y49582803D01*
X52503395Y49395531D01*
X52580000Y49354585D01*
X52580001Y41197332D01*
X52576324Y41160000D01*
X52590998Y41011015D01*
X52634454Y40867754D01*
X52705026Y40735724D01*
X52767977Y40659019D01*
X52800000Y40619999D01*
X52828998Y40596201D01*
X53576847Y39848351D01*
X53600932Y39727271D01*
X53671414Y39557111D01*
X53773738Y39403972D01*
X53903972Y39273738D01*
X54057111Y39171414D01*
X54227271Y39100932D01*
X54407911Y39065000D01*
X54592089Y39065000D01*
X54772729Y39100932D01*
X54942889Y39171414D01*
X55096028Y39273738D01*
X55226262Y39403972D01*
X55328586Y39557111D01*
X55399068Y39727271D01*
X55435000Y39907911D01*
X55435000Y40092089D01*
X55399068Y40272729D01*
X55328586Y40442889D01*
X55226262Y40596028D01*
X55096028Y40726262D01*
X54942889Y40828586D01*
X54772729Y40899068D01*
X54651649Y40923153D01*
X54100000Y41474801D01*
X54100000Y49354584D01*
X54176606Y49395531D01*
X54404797Y49582803D01*
X54592069Y49810994D01*
X54610000Y49844541D01*
X54627931Y49810994D01*
X54815203Y49582803D01*
X55043395Y49395531D01*
X55303737Y49256375D01*
X55586224Y49170684D01*
X55880000Y49141749D01*
X56173777Y49170684D01*
X56456264Y49256375D01*
X56716606Y49395531D01*
X56944797Y49582803D01*
X57132069Y49810994D01*
X57150000Y49844541D01*
X57167931Y49810994D01*
X57355203Y49582803D01*
X57583395Y49395531D01*
X57843737Y49256375D01*
X58126224Y49170684D01*
X58420000Y49141749D01*
X58713777Y49170684D01*
X58996264Y49256375D01*
X59256606Y49395531D01*
X59484797Y49582803D01*
X59672069Y49810994D01*
X59690000Y49844541D01*
X59707931Y49810994D01*
X59895203Y49582803D01*
X60123395Y49395531D01*
X60383737Y49256375D01*
X60666224Y49170684D01*
X60960000Y49141749D01*
X61253777Y49170684D01*
X61536264Y49256375D01*
X61796606Y49395531D01*
X62024797Y49582803D01*
X62212069Y49810994D01*
X62230000Y49844541D01*
X62247931Y49810994D01*
X62435203Y49582803D01*
X62663395Y49395531D01*
X62923737Y49256375D01*
X63206224Y49170684D01*
X63500000Y49141749D01*
X63793777Y49170684D01*
X64076264Y49256375D01*
X64336606Y49395531D01*
X64564797Y49582803D01*
X64752069Y49810994D01*
X64891225Y50071337D01*
X64896189Y50087701D01*
X65012215Y38021017D01*
X64776702Y37923464D01*
X64339887Y37631594D01*
X63968406Y37260113D01*
X63676536Y36823298D01*
X63475492Y36337935D01*
X63373000Y35822677D01*
X63373000Y35297323D01*
X63475492Y34782065D01*
X63676536Y34296702D01*
X63968406Y33859887D01*
X64339887Y33488406D01*
X64776702Y33196536D01*
X65059731Y33079301D01*
X65279840Y10188044D01*
X65262065Y10184508D01*
X64776702Y9983464D01*
X64339887Y9691594D01*
X63968406Y9320113D01*
X63676536Y8883298D01*
X63475492Y8397935D01*
X63373000Y7882677D01*
X63373000Y7357323D01*
X63475492Y6842065D01*
X63676536Y6356702D01*
X63968406Y5919887D01*
X64339887Y5548406D01*
X64776702Y5256536D01*
X65262065Y5055492D01*
X65329320Y5042114D01*
X65351679Y2716781D01*
X65340274Y2679184D01*
X65326565Y2540000D01*
X65330001Y2505115D01*
X65330000Y710000D01*
X15911707Y710000D01*
X16041594Y839887D01*
X16333464Y1276702D01*
X16534508Y1762065D01*
X16637000Y2277323D01*
X16637000Y2766018D01*
X26441400Y2766018D01*
X26441400Y2313981D01*
X26463084Y2093823D01*
X26548775Y1811336D01*
X26687931Y1550994D01*
X26875203Y1322803D01*
X27103395Y1135531D01*
X27363737Y996375D01*
X27646224Y910684D01*
X27940000Y881749D01*
X28233777Y910684D01*
X28516264Y996375D01*
X28776606Y1135531D01*
X29004797Y1322803D01*
X29192069Y1550994D01*
X29210000Y1584541D01*
X29227931Y1550994D01*
X29415203Y1322803D01*
X29643395Y1135531D01*
X29903737Y996375D01*
X30186224Y910684D01*
X30480000Y881749D01*
X30773777Y910684D01*
X31056264Y996375D01*
X31316606Y1135531D01*
X31544797Y1322803D01*
X31732069Y1550994D01*
X31750000Y1584541D01*
X31767931Y1550994D01*
X31955203Y1322803D01*
X32183395Y1135531D01*
X32443737Y996375D01*
X32726224Y910684D01*
X33020000Y881749D01*
X33313777Y910684D01*
X33596264Y996375D01*
X33856606Y1135531D01*
X34084797Y1322803D01*
X34272069Y1550994D01*
X34290000Y1584541D01*
X34307931Y1550994D01*
X34495203Y1322803D01*
X34723395Y1135531D01*
X34983737Y996375D01*
X35266224Y910684D01*
X35560000Y881749D01*
X35853777Y910684D01*
X36136264Y996375D01*
X36396606Y1135531D01*
X36624797Y1322803D01*
X36812069Y1550994D01*
X36830000Y1584541D01*
X36847931Y1550994D01*
X37035203Y1322803D01*
X37263395Y1135531D01*
X37523737Y996375D01*
X37806224Y910684D01*
X38100000Y881749D01*
X38393777Y910684D01*
X38676264Y996375D01*
X38936606Y1135531D01*
X39164797Y1322803D01*
X39352069Y1550994D01*
X39373424Y1590947D01*
X39521514Y1388271D01*
X39737965Y1189267D01*
X39989081Y1036314D01*
X40265211Y935291D01*
X40280974Y932642D01*
X40513000Y1053783D01*
X40513000Y2413000D01*
X40767000Y2413000D01*
X40767000Y1053783D01*
X40999026Y932642D01*
X41014789Y935291D01*
X41290919Y1036314D01*
X41542035Y1189267D01*
X41758486Y1388271D01*
X41910000Y1595633D01*
X42061514Y1388271D01*
X42277965Y1189267D01*
X42529081Y1036314D01*
X42805211Y935291D01*
X42820974Y932642D01*
X43053000Y1053783D01*
X43053000Y2413000D01*
X40767000Y2413000D01*
X40513000Y2413000D01*
X40493000Y2413000D01*
X40493000Y2667000D01*
X40513000Y2667000D01*
X40513000Y4026217D01*
X40767000Y4026217D01*
X40767000Y2667000D01*
X43053000Y2667000D01*
X43053000Y4026217D01*
X43307000Y4026217D01*
X43307000Y2667000D01*
X43327000Y2667000D01*
X43327000Y2413000D01*
X43307000Y2413000D01*
X43307000Y1053783D01*
X43539026Y932642D01*
X43554789Y935291D01*
X43830919Y1036314D01*
X44082035Y1189267D01*
X44298486Y1388271D01*
X44446576Y1590947D01*
X44467931Y1550994D01*
X44655203Y1322803D01*
X44883395Y1135531D01*
X45143737Y996375D01*
X45426224Y910684D01*
X45720000Y881749D01*
X46013777Y910684D01*
X46296264Y996375D01*
X46556606Y1135531D01*
X46784797Y1322803D01*
X46972069Y1550994D01*
X47111225Y1811337D01*
X47196916Y2093824D01*
X47218600Y2313982D01*
X47218600Y2766018D01*
X49301400Y2766018D01*
X49301400Y2313981D01*
X49323084Y2093823D01*
X49408775Y1811336D01*
X49547931Y1550994D01*
X49735203Y1322803D01*
X49963395Y1135531D01*
X50223737Y996375D01*
X50506224Y910684D01*
X50800000Y881749D01*
X51093777Y910684D01*
X51376264Y996375D01*
X51636606Y1135531D01*
X51864797Y1322803D01*
X52052069Y1550994D01*
X52070000Y1584541D01*
X52087931Y1550994D01*
X52275203Y1322803D01*
X52503395Y1135531D01*
X52763737Y996375D01*
X53046224Y910684D01*
X53340000Y881749D01*
X53633777Y910684D01*
X53916264Y996375D01*
X54176606Y1135531D01*
X54404797Y1322803D01*
X54592069Y1550994D01*
X54610000Y1584541D01*
X54627931Y1550994D01*
X54815203Y1322803D01*
X55043395Y1135531D01*
X55303737Y996375D01*
X55586224Y910684D01*
X55880000Y881749D01*
X56173777Y910684D01*
X56456264Y996375D01*
X56716606Y1135531D01*
X56944797Y1322803D01*
X57132069Y1550994D01*
X57150000Y1584541D01*
X57167931Y1550994D01*
X57355203Y1322803D01*
X57583395Y1135531D01*
X57843737Y996375D01*
X58126224Y910684D01*
X58420000Y881749D01*
X58713777Y910684D01*
X58996264Y996375D01*
X59256606Y1135531D01*
X59484797Y1322803D01*
X59672069Y1550994D01*
X59690000Y1584541D01*
X59707931Y1550994D01*
X59895203Y1322803D01*
X60123395Y1135531D01*
X60383737Y996375D01*
X60666224Y910684D01*
X60960000Y881749D01*
X61253777Y910684D01*
X61536264Y996375D01*
X61796606Y1135531D01*
X62024797Y1322803D01*
X62212069Y1550994D01*
X62230000Y1584541D01*
X62247931Y1550994D01*
X62435203Y1322803D01*
X62663395Y1135531D01*
X62923737Y996375D01*
X63206224Y910684D01*
X63500000Y881749D01*
X63793777Y910684D01*
X64076264Y996375D01*
X64336606Y1135531D01*
X64564797Y1322803D01*
X64752069Y1550994D01*
X64891225Y1811337D01*
X64976916Y2093824D01*
X64998600Y2313982D01*
X64998600Y2766019D01*
X64976916Y2986177D01*
X64891225Y3268664D01*
X64752069Y3529006D01*
X64564797Y3757197D01*
X64336605Y3944469D01*
X64076263Y4083625D01*
X63793776Y4169316D01*
X63500000Y4198251D01*
X63206223Y4169316D01*
X62923736Y4083625D01*
X62663394Y3944469D01*
X62435203Y3757197D01*
X62247931Y3529005D01*
X62230000Y3495459D01*
X62212069Y3529006D01*
X62024797Y3757197D01*
X61796605Y3944469D01*
X61536263Y4083625D01*
X61253776Y4169316D01*
X60960000Y4198251D01*
X60666223Y4169316D01*
X60383736Y4083625D01*
X60123394Y3944469D01*
X59895203Y3757197D01*
X59707931Y3529005D01*
X59690000Y3495459D01*
X59672069Y3529006D01*
X59484797Y3757197D01*
X59256605Y3944469D01*
X58996263Y4083625D01*
X58713776Y4169316D01*
X58420000Y4198251D01*
X58126223Y4169316D01*
X57843736Y4083625D01*
X57583394Y3944469D01*
X57355203Y3757197D01*
X57167931Y3529005D01*
X57150000Y3495459D01*
X57132069Y3529006D01*
X56944797Y3757197D01*
X56716605Y3944469D01*
X56456263Y4083625D01*
X56173776Y4169316D01*
X55880000Y4198251D01*
X55586223Y4169316D01*
X55303736Y4083625D01*
X55043394Y3944469D01*
X54815203Y3757197D01*
X54627931Y3529005D01*
X54610000Y3495459D01*
X54592069Y3529006D01*
X54404797Y3757197D01*
X54176605Y3944469D01*
X53916263Y4083625D01*
X53633776Y4169316D01*
X53340000Y4198251D01*
X53046223Y4169316D01*
X52763736Y4083625D01*
X52503394Y3944469D01*
X52275203Y3757197D01*
X52087931Y3529005D01*
X52070000Y3495459D01*
X52052069Y3529006D01*
X51864797Y3757197D01*
X51636605Y3944469D01*
X51376263Y4083625D01*
X51093776Y4169316D01*
X50800000Y4198251D01*
X50506223Y4169316D01*
X50223736Y4083625D01*
X49963394Y3944469D01*
X49735203Y3757197D01*
X49547931Y3529005D01*
X49408775Y3268663D01*
X49323084Y2986176D01*
X49301400Y2766018D01*
X47218600Y2766018D01*
X47218600Y2766019D01*
X47196916Y2986177D01*
X47111225Y3268664D01*
X46972069Y3529006D01*
X46784797Y3757197D01*
X46556605Y3944469D01*
X46296263Y4083625D01*
X46013776Y4169316D01*
X45720000Y4198251D01*
X45426223Y4169316D01*
X45143736Y4083625D01*
X44883394Y3944469D01*
X44655203Y3757197D01*
X44467931Y3529005D01*
X44446576Y3489053D01*
X44298486Y3691729D01*
X44082035Y3890733D01*
X43830919Y4043686D01*
X43554789Y4144709D01*
X43539026Y4147358D01*
X43307000Y4026217D01*
X43053000Y4026217D01*
X42820974Y4147358D01*
X42805211Y4144709D01*
X42529081Y4043686D01*
X42277965Y3890733D01*
X42061514Y3691729D01*
X41910000Y3484367D01*
X41758486Y3691729D01*
X41542035Y3890733D01*
X41290919Y4043686D01*
X41014789Y4144709D01*
X40999026Y4147358D01*
X40767000Y4026217D01*
X40513000Y4026217D01*
X40280974Y4147358D01*
X40265211Y4144709D01*
X39989081Y4043686D01*
X39737965Y3890733D01*
X39521514Y3691729D01*
X39373424Y3489053D01*
X39352069Y3529006D01*
X39164797Y3757197D01*
X38936605Y3944469D01*
X38676263Y4083625D01*
X38393776Y4169316D01*
X38366000Y4172052D01*
X38366000Y13715553D01*
X38373738Y13703972D01*
X38503972Y13573738D01*
X38657111Y13471414D01*
X38827271Y13400932D01*
X39007911Y13365000D01*
X39192089Y13365000D01*
X39372729Y13400932D01*
X39542889Y13471414D01*
X39696028Y13573738D01*
X39826262Y13703972D01*
X39928586Y13857111D01*
X39999068Y14027271D01*
X40023153Y14148352D01*
X40135998Y14261197D01*
X40165002Y14285000D01*
X40259975Y14400725D01*
X40330547Y14532754D01*
X40374004Y14676015D01*
X40385001Y14787668D01*
X40385001Y14787678D01*
X40388677Y14825001D01*
X40385001Y14862324D01*
X40385001Y25737677D01*
X40388677Y25775000D01*
X40385001Y25812323D01*
X40385001Y25812332D01*
X40374004Y25923985D01*
X40330547Y26067246D01*
X40259975Y26199275D01*
X40165002Y26315000D01*
X40135999Y26338802D01*
X40123153Y26351648D01*
X40099068Y26472729D01*
X40028586Y26642889D01*
X39926262Y26796028D01*
X39796028Y26926262D01*
X39642889Y27028586D01*
X39472729Y27099068D01*
X39292089Y27135000D01*
X39107911Y27135000D01*
X38927271Y27099068D01*
X38757111Y27028586D01*
X38603972Y26926262D01*
X38473738Y26796028D01*
X38371414Y26642889D01*
X38300932Y26472729D01*
X38265000Y26292089D01*
X38265000Y26107911D01*
X38300932Y25927271D01*
X38371414Y25757111D01*
X38473738Y25603972D01*
X38603972Y25473738D01*
X38757111Y25371414D01*
X38865001Y25326725D01*
X38865002Y15206573D01*
X38827271Y15199068D01*
X38657111Y15128586D01*
X38503972Y15026262D01*
X38373738Y14896028D01*
X38366000Y14884447D01*
X38366000Y21291596D01*
X38430068Y21446271D01*
X38466000Y21626911D01*
X38466000Y21811089D01*
X38430068Y21991729D01*
X38359586Y22161889D01*
X38257262Y22315028D01*
X38127028Y22445262D01*
X37973889Y22547586D01*
X37819216Y22611653D01*
X29335000Y31095867D01*
X29335000Y33072596D01*
X29399068Y33227271D01*
X29435000Y33407911D01*
X29435000Y33592089D01*
X29399068Y33772729D01*
X29328586Y33942889D01*
X29226262Y34096028D01*
X29096028Y34226262D01*
X28942889Y34328586D01*
X28772729Y34399068D01*
X28592089Y34435000D01*
X28407911Y34435000D01*
X28227271Y34399068D01*
X28057111Y34328586D01*
X27903972Y34226262D01*
X27773738Y34096028D01*
X27671414Y33942889D01*
X27600932Y33772729D01*
X27565000Y33592089D01*
X27565000Y33407911D01*
X27600932Y33227271D01*
X27665000Y33072595D01*
X27665001Y30791028D01*
X27660960Y30750000D01*
X27677082Y30586312D01*
X27724828Y30428914D01*
X27802364Y30283855D01*
X27802365Y30283854D01*
X27906710Y30156709D01*
X27938574Y30130559D01*
X36638347Y21430784D01*
X36696000Y21291596D01*
X36696001Y3670435D01*
X36624797Y3757197D01*
X36396605Y3944469D01*
X36136263Y4083625D01*
X35853776Y4169316D01*
X35560000Y4198251D01*
X35266223Y4169316D01*
X34983736Y4083625D01*
X34723394Y3944469D01*
X34495203Y3757197D01*
X34307931Y3529005D01*
X34290000Y3495459D01*
X34272069Y3529006D01*
X34084797Y3757197D01*
X33856605Y3944469D01*
X33596263Y4083625D01*
X33313776Y4169316D01*
X33020000Y4198251D01*
X32726223Y4169316D01*
X32443736Y4083625D01*
X32183394Y3944469D01*
X31955203Y3757197D01*
X31767931Y3529005D01*
X31750000Y3495459D01*
X31732069Y3529006D01*
X31544797Y3757197D01*
X31316605Y3944469D01*
X31056263Y4083625D01*
X30773776Y4169316D01*
X30480000Y4198251D01*
X30186223Y4169316D01*
X29903736Y4083625D01*
X29643394Y3944469D01*
X29415203Y3757197D01*
X29227931Y3529005D01*
X29210000Y3495459D01*
X29192069Y3529006D01*
X29004797Y3757197D01*
X28776605Y3944469D01*
X28516263Y4083625D01*
X28233776Y4169316D01*
X27940000Y4198251D01*
X27646223Y4169316D01*
X27363736Y4083625D01*
X27103394Y3944469D01*
X26875203Y3757197D01*
X26687931Y3529005D01*
X26548775Y3268663D01*
X26463084Y2986176D01*
X26441400Y2766018D01*
X16637000Y2766018D01*
X16637000Y2802677D01*
X16534508Y3317935D01*
X16333464Y3803298D01*
X16041594Y4240113D01*
X15670113Y4611594D01*
X15233298Y4903464D01*
X14747935Y5104508D01*
X14232677Y5207000D01*
X13707323Y5207000D01*
X13192065Y5104508D01*
X12706702Y4903464D01*
X12269887Y4611594D01*
X11898406Y4240113D01*
X11606536Y3803298D01*
X11405492Y3317935D01*
X11303000Y2802677D01*
X11303000Y2277323D01*
X11405492Y1762065D01*
X11606536Y1276702D01*
X11898406Y839887D01*
X12028293Y710000D01*
X1627000Y710000D01*
X1627000Y44592089D01*
X29065000Y44592089D01*
X29065000Y44407911D01*
X29100932Y44227271D01*
X29171414Y44057111D01*
X29273738Y43903972D01*
X29403972Y43773738D01*
X29557111Y43671414D01*
X29727271Y43600932D01*
X29907911Y43565000D01*
X30092089Y43565000D01*
X30272729Y43600932D01*
X30427404Y43665000D01*
X32754133Y43665000D01*
X33907346Y42511786D01*
X33971414Y42357111D01*
X34073738Y42203972D01*
X34203972Y42073738D01*
X34357111Y41971414D01*
X34511788Y41907345D01*
X49165001Y27254131D01*
X49165000Y26427405D01*
X49100932Y26272729D01*
X49065000Y26092089D01*
X49065000Y25907911D01*
X49100932Y25727271D01*
X49171414Y25557111D01*
X49273738Y25403972D01*
X49403972Y25273738D01*
X49557111Y25171414D01*
X49727271Y25100932D01*
X49907911Y25065000D01*
X50092089Y25065000D01*
X50272729Y25100932D01*
X50442889Y25171414D01*
X50596028Y25273738D01*
X50726262Y25403972D01*
X50828586Y25557111D01*
X50899068Y25727271D01*
X50935000Y25907911D01*
X50935000Y26092089D01*
X50899068Y26272729D01*
X50835000Y26427404D01*
X50835000Y27558982D01*
X50839040Y27600001D01*
X50822918Y27763689D01*
X50775172Y27921087D01*
X50697636Y28066146D01*
X50593291Y28193291D01*
X50561427Y28219441D01*
X35692655Y43088212D01*
X35628586Y43242889D01*
X35526262Y43396028D01*
X35396028Y43526262D01*
X35242889Y43628586D01*
X35088214Y43692654D01*
X33719446Y45061421D01*
X33693291Y45093291D01*
X33566146Y45197636D01*
X33421087Y45275172D01*
X33263689Y45322918D01*
X33141019Y45335000D01*
X33141018Y45335000D01*
X33100000Y45339040D01*
X33058982Y45335000D01*
X30427404Y45335000D01*
X30272729Y45399068D01*
X30092089Y45435000D01*
X29907911Y45435000D01*
X29727271Y45399068D01*
X29557111Y45328586D01*
X29403972Y45226262D01*
X29273738Y45096028D01*
X29171414Y44942889D01*
X29100932Y44772729D01*
X29065000Y44592089D01*
X1627000Y44592089D01*
X1627000Y49599034D01*
X4359631Y49599034D01*
X4359631Y49206966D01*
X4436119Y48822431D01*
X4586157Y48460207D01*
X4803979Y48134213D01*
X5081213Y47856979D01*
X5407207Y47639157D01*
X5769431Y47489119D01*
X6153966Y47412631D01*
X6546034Y47412631D01*
X6930569Y47489119D01*
X7292793Y47639157D01*
X7618787Y47856979D01*
X7896021Y48134213D01*
X8113843Y48460207D01*
X8263881Y48822431D01*
X8340369Y49206966D01*
X8340369Y49599034D01*
X8263881Y49983569D01*
X8113843Y50345793D01*
X7896021Y50671787D01*
X7618787Y50949021D01*
X7292793Y51166843D01*
X6930569Y51316881D01*
X6546034Y51393369D01*
X6153966Y51393369D01*
X5769431Y51316881D01*
X5407207Y51166843D01*
X5081213Y50949021D01*
X4803979Y50671787D01*
X4586157Y50345793D01*
X4436119Y49983569D01*
X4359631Y49599034D01*
X1627000Y49599034D01*
X1627000Y52373000D01*
X13083472Y52373000D01*
X12876536Y52063298D01*
G37*
X12876536Y52063298D02*
X12675492Y51577935D01*
X12573000Y51062677D01*
X12573000Y50537323D01*
X12675492Y50022065D01*
X12876536Y49536702D01*
X13168406Y49099887D01*
X13539887Y48728406D01*
X13976702Y48436536D01*
X14462065Y48235492D01*
X14977323Y48133000D01*
X15502677Y48133000D01*
X16017935Y48235492D01*
X16503298Y48436536D01*
X16940113Y48728406D01*
X17311594Y49099887D01*
X17603464Y49536702D01*
X17659001Y49670781D01*
X17731203Y49582803D01*
X17959395Y49395531D01*
X18219737Y49256375D01*
X18502224Y49170684D01*
X18796000Y49141749D01*
X19089777Y49170684D01*
X19372264Y49256375D01*
X19632606Y49395531D01*
X19860797Y49582803D01*
X20048069Y49810994D01*
X20066000Y49844541D01*
X20083931Y49810994D01*
X20271203Y49582803D01*
X20499395Y49395531D01*
X20759737Y49256375D01*
X21042224Y49170684D01*
X21336000Y49141749D01*
X21629777Y49170684D01*
X21912264Y49256375D01*
X22172606Y49395531D01*
X22400797Y49582803D01*
X22588069Y49810994D01*
X22606000Y49844541D01*
X22623931Y49810994D01*
X22811203Y49582803D01*
X23039395Y49395531D01*
X23299737Y49256375D01*
X23582224Y49170684D01*
X23876000Y49141749D01*
X24169777Y49170684D01*
X24452264Y49256375D01*
X24712606Y49395531D01*
X24940797Y49582803D01*
X25128069Y49810994D01*
X25149424Y49850947D01*
X25297514Y49648271D01*
X25513965Y49449267D01*
X25765081Y49296314D01*
X26041211Y49195291D01*
X26056974Y49192642D01*
X26289000Y49313783D01*
X26289000Y50673000D01*
X26269000Y50673000D01*
X26269000Y50927000D01*
X26289000Y50927000D01*
X26289000Y50947000D01*
X26543000Y50947000D01*
X26543000Y50927000D01*
X26563000Y50927000D01*
X26563000Y50673000D01*
X26543000Y50673000D01*
X26543000Y49313783D01*
X26775026Y49192642D01*
X26790789Y49195291D01*
X27066919Y49296314D01*
X27318035Y49449267D01*
X27534486Y49648271D01*
X27682576Y49850947D01*
X27703931Y49810994D01*
X27891203Y49582803D01*
X28119395Y49395531D01*
X28220142Y49341680D01*
X28235138Y49292246D01*
X28250454Y49241754D01*
X28321026Y49109724D01*
X28358716Y49063799D01*
X28415999Y48993999D01*
X28445003Y48970196D01*
X29876210Y47538988D01*
X29900009Y47509989D01*
X29929007Y47486191D01*
X30015733Y47415016D01*
X30147763Y47344444D01*
X30291024Y47300987D01*
X30402677Y47289990D01*
X30402686Y47289990D01*
X30440009Y47286314D01*
X30477332Y47289990D01*
X34060211Y47289990D01*
X51501203Y29848997D01*
X51525001Y29819999D01*
X51640726Y29725026D01*
X51772755Y29654454D01*
X51916016Y29610997D01*
X52027669Y29600000D01*
X52027677Y29600000D01*
X52065002Y29596324D01*
X52102327Y29600000D01*
X56204465Y29600000D01*
X56307111Y29531414D01*
X56477271Y29460932D01*
X56657911Y29425000D01*
X56842089Y29425000D01*
X57022729Y29460932D01*
X57192889Y29531414D01*
X57346028Y29633738D01*
X57476262Y29763972D01*
X57578586Y29917111D01*
X57649068Y30087271D01*
X57685000Y30267911D01*
X57685000Y30452089D01*
X57649068Y30632729D01*
X57578586Y30802889D01*
X57476262Y30956028D01*
X57346028Y31086262D01*
X57192889Y31188586D01*
X57022729Y31259068D01*
X56842089Y31295000D01*
X56657911Y31295000D01*
X56477271Y31259068D01*
X56307111Y31188586D01*
X56204465Y31120000D01*
X52379804Y31120000D01*
X35759803Y47740000D01*
X36022379Y47740000D01*
X51773381Y31988997D01*
X51797179Y31959999D01*
X51826177Y31936201D01*
X51912903Y31865026D01*
X52044933Y31794454D01*
X52188194Y31750997D01*
X52299847Y31740000D01*
X52299857Y31740000D01*
X52337180Y31736324D01*
X52374502Y31740000D01*
X56454465Y31740000D01*
X56557111Y31671414D01*
X56727271Y31600932D01*
X56907911Y31565000D01*
X57092089Y31565000D01*
X57272729Y31600932D01*
X57442889Y31671414D01*
X57596028Y31773738D01*
X57726262Y31903972D01*
X57828586Y32057111D01*
X57899068Y32227271D01*
X57935000Y32407911D01*
X57935000Y32592089D01*
X57899068Y32772729D01*
X57828586Y32942889D01*
X57726262Y33096028D01*
X57596028Y33226262D01*
X57442889Y33328586D01*
X57272729Y33399068D01*
X57092089Y33435000D01*
X56907911Y33435000D01*
X56727271Y33399068D01*
X56557111Y33328586D01*
X56454465Y33260000D01*
X52651982Y33260000D01*
X50121992Y35789990D01*
X55309473Y35789990D01*
X55806917Y35292545D01*
X55775000Y35132089D01*
X55775000Y34947911D01*
X55810932Y34767271D01*
X55881414Y34597111D01*
X55983738Y34443972D01*
X56113972Y34313738D01*
X56267111Y34211414D01*
X56437271Y34140932D01*
X56617911Y34105000D01*
X56802089Y34105000D01*
X56982729Y34140932D01*
X57152889Y34211414D01*
X57306028Y34313738D01*
X57436262Y34443972D01*
X57538586Y34597111D01*
X57609068Y34767271D01*
X57645000Y34947911D01*
X57645000Y35132089D01*
X57609068Y35312729D01*
X57538586Y35482889D01*
X57460303Y35600048D01*
X57459003Y35613250D01*
X57415546Y35756511D01*
X57344974Y35888540D01*
X57303507Y35939068D01*
X57273799Y35975268D01*
X57273795Y35975272D01*
X57250001Y36004265D01*
X57221008Y36028059D01*
X57168807Y36080260D01*
X57272729Y36100932D01*
X57442889Y36171414D01*
X57596028Y36273738D01*
X57726262Y36403972D01*
X57828586Y36557111D01*
X57899068Y36727271D01*
X57935000Y36907911D01*
X57935000Y37092089D01*
X57899068Y37272729D01*
X57828586Y37442889D01*
X57726262Y37596028D01*
X57596028Y37726262D01*
X57442889Y37828586D01*
X57272729Y37899068D01*
X57092089Y37935000D01*
X56907911Y37935000D01*
X56727271Y37899068D01*
X56557111Y37828586D01*
X56454465Y37760000D01*
X49424802Y37760000D01*
X37619487Y49565314D01*
X37640797Y49582803D01*
X37828069Y49810994D01*
X37846000Y49844541D01*
X37863931Y49810994D01*
X38051203Y49582803D01*
X38279395Y49395531D01*
X38539737Y49256375D01*
X38822224Y49170684D01*
X39116000Y49141749D01*
X39409777Y49170684D01*
X39692264Y49256375D01*
X39952606Y49395531D01*
X40180797Y49582803D01*
X40368069Y49810994D01*
X40386000Y49844541D01*
X40403931Y49810994D01*
X40591203Y49582803D01*
X40819395Y49395531D01*
X41079737Y49256375D01*
X41362224Y49170684D01*
X41656000Y49141749D01*
X41949777Y49170684D01*
X42232264Y49256375D01*
X42492606Y49395531D01*
X42720797Y49582803D01*
X42908069Y49810994D01*
X43047225Y50071337D01*
X43132916Y50353824D01*
X43154600Y50573982D01*
X43154600Y51026019D01*
X43132916Y51246177D01*
X43047225Y51528664D01*
X42908069Y51789006D01*
X42720797Y52017197D01*
X42492605Y52204469D01*
X42232263Y52343625D01*
X42135426Y52373000D01*
X45240573Y52373000D01*
X45143736Y52343625D01*
X44883394Y52204469D01*
X44655203Y52017197D01*
X44467931Y51789005D01*
X44328775Y51528663D01*
X44243084Y51246176D01*
X44221400Y51026018D01*
X44221400Y50573981D01*
X44243084Y50353823D01*
X44328775Y50071336D01*
X44467931Y49810994D01*
X44655203Y49582803D01*
X44883395Y49395531D01*
X45143737Y49256375D01*
X45426224Y49170684D01*
X45720000Y49141749D01*
X46013777Y49170684D01*
X46296264Y49256375D01*
X46556606Y49395531D01*
X46784797Y49582803D01*
X46972069Y49810994D01*
X46990000Y49844541D01*
X47007931Y49810994D01*
X47195203Y49582803D01*
X47423395Y49395531D01*
X47683737Y49256375D01*
X47966224Y49170684D01*
X48260000Y49141749D01*
X48553777Y49170684D01*
X48836264Y49256375D01*
X49096606Y49395531D01*
X49324797Y49582803D01*
X49512069Y49810994D01*
X49530000Y49844541D01*
X49547931Y49810994D01*
X49735203Y49582803D01*
X49963395Y49395531D01*
X50223737Y49256375D01*
X50506224Y49170684D01*
X50800000Y49141749D01*
X51093777Y49170684D01*
X51376264Y49256375D01*
X51636606Y49395531D01*
X51864797Y49582803D01*
X52052069Y49810994D01*
X52070000Y49844541D01*
X52087931Y49810994D01*
X52275203Y49582803D01*
X52503395Y49395531D01*
X52580000Y49354585D01*
X52580001Y41197332D01*
X52576324Y41160000D01*
X52590998Y41011015D01*
X52634454Y40867754D01*
X52705026Y40735724D01*
X52767977Y40659019D01*
X52800000Y40619999D01*
X52828998Y40596201D01*
X53576847Y39848351D01*
X53600932Y39727271D01*
X53671414Y39557111D01*
X53773738Y39403972D01*
X53903972Y39273738D01*
X54057111Y39171414D01*
X54227271Y39100932D01*
X54407911Y39065000D01*
X54592089Y39065000D01*
X54772729Y39100932D01*
X54942889Y39171414D01*
X55096028Y39273738D01*
X55226262Y39403972D01*
X55328586Y39557111D01*
X55399068Y39727271D01*
X55435000Y39907911D01*
X55435000Y40092089D01*
X55399068Y40272729D01*
X55328586Y40442889D01*
X55226262Y40596028D01*
X55096028Y40726262D01*
X54942889Y40828586D01*
X54772729Y40899068D01*
X54651649Y40923153D01*
X54100000Y41474801D01*
X54100000Y49354584D01*
X54176606Y49395531D01*
X54404797Y49582803D01*
X54592069Y49810994D01*
X54610000Y49844541D01*
X54627931Y49810994D01*
X54815203Y49582803D01*
X55043395Y49395531D01*
X55303737Y49256375D01*
X55586224Y49170684D01*
X55880000Y49141749D01*
X56173777Y49170684D01*
X56456264Y49256375D01*
X56716606Y49395531D01*
X56944797Y49582803D01*
X57132069Y49810994D01*
X57150000Y49844541D01*
X57167931Y49810994D01*
X57355203Y49582803D01*
X57583395Y49395531D01*
X57843737Y49256375D01*
X58126224Y49170684D01*
X58420000Y49141749D01*
X58713777Y49170684D01*
X58996264Y49256375D01*
X59256606Y49395531D01*
X59484797Y49582803D01*
X59672069Y49810994D01*
X59690000Y49844541D01*
X59707931Y49810994D01*
X59895203Y49582803D01*
X60123395Y49395531D01*
X60383737Y49256375D01*
X60666224Y49170684D01*
X60960000Y49141749D01*
X61253777Y49170684D01*
X61536264Y49256375D01*
X61796606Y49395531D01*
X62024797Y49582803D01*
X62212069Y49810994D01*
X62230000Y49844541D01*
X62247931Y49810994D01*
X62435203Y49582803D01*
X62663395Y49395531D01*
X62923737Y49256375D01*
X63206224Y49170684D01*
X63500000Y49141749D01*
X63793777Y49170684D01*
X64076264Y49256375D01*
X64336606Y49395531D01*
X64564797Y49582803D01*
X64752069Y49810994D01*
X64891225Y50071337D01*
X64896189Y50087701D01*
X65012215Y38021017D01*
X64776702Y37923464D01*
X64339887Y37631594D01*
X63968406Y37260113D01*
X63676536Y36823298D01*
X63475492Y36337935D01*
X63373000Y35822677D01*
X63373000Y35297323D01*
X63475492Y34782065D01*
X63676536Y34296702D01*
X63968406Y33859887D01*
X64339887Y33488406D01*
X64776702Y33196536D01*
X65059731Y33079301D01*
X65279840Y10188044D01*
X65262065Y10184508D01*
X64776702Y9983464D01*
X64339887Y9691594D01*
X63968406Y9320113D01*
X63676536Y8883298D01*
X63475492Y8397935D01*
X63373000Y7882677D01*
X63373000Y7357323D01*
X63475492Y6842065D01*
X63676536Y6356702D01*
X63968406Y5919887D01*
X64339887Y5548406D01*
X64776702Y5256536D01*
X65262065Y5055492D01*
X65329320Y5042114D01*
X65351679Y2716781D01*
X65340274Y2679184D01*
X65326565Y2540000D01*
X65330001Y2505115D01*
X65330000Y710000D01*
X15911707Y710000D01*
X16041594Y839887D01*
X16333464Y1276702D01*
X16534508Y1762065D01*
X16637000Y2277323D01*
X16637000Y2766018D01*
X26441400Y2766018D01*
X26441400Y2313981D01*
X26463084Y2093823D01*
X26548775Y1811336D01*
X26687931Y1550994D01*
X26875203Y1322803D01*
X27103395Y1135531D01*
X27363737Y996375D01*
X27646224Y910684D01*
X27940000Y881749D01*
X28233777Y910684D01*
X28516264Y996375D01*
X28776606Y1135531D01*
X29004797Y1322803D01*
X29192069Y1550994D01*
X29210000Y1584541D01*
X29227931Y1550994D01*
X29415203Y1322803D01*
X29643395Y1135531D01*
X29903737Y996375D01*
X30186224Y910684D01*
X30480000Y881749D01*
X30773777Y910684D01*
X31056264Y996375D01*
X31316606Y1135531D01*
X31544797Y1322803D01*
X31732069Y1550994D01*
X31750000Y1584541D01*
X31767931Y1550994D01*
X31955203Y1322803D01*
X32183395Y1135531D01*
X32443737Y996375D01*
X32726224Y910684D01*
X33020000Y881749D01*
X33313777Y910684D01*
X33596264Y996375D01*
X33856606Y1135531D01*
X34084797Y1322803D01*
X34272069Y1550994D01*
X34290000Y1584541D01*
X34307931Y1550994D01*
X34495203Y1322803D01*
X34723395Y1135531D01*
X34983737Y996375D01*
X35266224Y910684D01*
X35560000Y881749D01*
X35853777Y910684D01*
X36136264Y996375D01*
X36396606Y1135531D01*
X36624797Y1322803D01*
X36812069Y1550994D01*
X36830000Y1584541D01*
X36847931Y1550994D01*
X37035203Y1322803D01*
X37263395Y1135531D01*
X37523737Y996375D01*
X37806224Y910684D01*
X38100000Y881749D01*
X38393777Y910684D01*
X38676264Y996375D01*
X38936606Y1135531D01*
X39164797Y1322803D01*
X39352069Y1550994D01*
X39373424Y1590947D01*
X39521514Y1388271D01*
X39737965Y1189267D01*
X39989081Y1036314D01*
X40265211Y935291D01*
X40280974Y932642D01*
X40513000Y1053783D01*
X40513000Y2413000D01*
X40767000Y2413000D01*
X40767000Y1053783D01*
X40999026Y932642D01*
X41014789Y935291D01*
X41290919Y1036314D01*
X41542035Y1189267D01*
X41758486Y1388271D01*
X41910000Y1595633D01*
X42061514Y1388271D01*
X42277965Y1189267D01*
X42529081Y1036314D01*
X42805211Y935291D01*
X42820974Y932642D01*
X43053000Y1053783D01*
X43053000Y2413000D01*
X40767000Y2413000D01*
X40513000Y2413000D01*
X40493000Y2413000D01*
X40493000Y2667000D01*
X40513000Y2667000D01*
X40513000Y4026217D01*
X40767000Y4026217D01*
X40767000Y2667000D01*
X43053000Y2667000D01*
X43053000Y4026217D01*
X43307000Y4026217D01*
X43307000Y2667000D01*
X43327000Y2667000D01*
X43327000Y2413000D01*
X43307000Y2413000D01*
X43307000Y1053783D01*
X43539026Y932642D01*
X43554789Y935291D01*
X43830919Y1036314D01*
X44082035Y1189267D01*
X44298486Y1388271D01*
X44446576Y1590947D01*
X44467931Y1550994D01*
X44655203Y1322803D01*
X44883395Y1135531D01*
X45143737Y996375D01*
X45426224Y910684D01*
X45720000Y881749D01*
X46013777Y910684D01*
X46296264Y996375D01*
X46556606Y1135531D01*
X46784797Y1322803D01*
X46972069Y1550994D01*
X47111225Y1811337D01*
X47196916Y2093824D01*
X47218600Y2313982D01*
X47218600Y2766018D01*
X49301400Y2766018D01*
X49301400Y2313981D01*
X49323084Y2093823D01*
X49408775Y1811336D01*
X49547931Y1550994D01*
X49735203Y1322803D01*
X49963395Y1135531D01*
X50223737Y996375D01*
X50506224Y910684D01*
X50800000Y881749D01*
X51093777Y910684D01*
X51376264Y996375D01*
X51636606Y1135531D01*
X51864797Y1322803D01*
X52052069Y1550994D01*
X52070000Y1584541D01*
X52087931Y1550994D01*
X52275203Y1322803D01*
X52503395Y1135531D01*
X52763737Y996375D01*
X53046224Y910684D01*
X53340000Y881749D01*
X53633777Y910684D01*
X53916264Y996375D01*
X54176606Y1135531D01*
X54404797Y1322803D01*
X54592069Y1550994D01*
X54610000Y1584541D01*
X54627931Y1550994D01*
X54815203Y1322803D01*
X55043395Y1135531D01*
X55303737Y996375D01*
X55586224Y910684D01*
X55880000Y881749D01*
X56173777Y910684D01*
X56456264Y996375D01*
X56716606Y1135531D01*
X56944797Y1322803D01*
X57132069Y1550994D01*
X57150000Y1584541D01*
X57167931Y1550994D01*
X57355203Y1322803D01*
X57583395Y1135531D01*
X57843737Y996375D01*
X58126224Y910684D01*
X58420000Y881749D01*
X58713777Y910684D01*
X58996264Y996375D01*
X59256606Y1135531D01*
X59484797Y1322803D01*
X59672069Y1550994D01*
X59690000Y1584541D01*
X59707931Y1550994D01*
X59895203Y1322803D01*
X60123395Y1135531D01*
X60383737Y996375D01*
X60666224Y910684D01*
X60960000Y881749D01*
X61253777Y910684D01*
X61536264Y996375D01*
X61796606Y1135531D01*
X62024797Y1322803D01*
X62212069Y1550994D01*
X62230000Y1584541D01*
X62247931Y1550994D01*
X62435203Y1322803D01*
X62663395Y1135531D01*
X62923737Y996375D01*
X63206224Y910684D01*
X63500000Y881749D01*
X63793777Y910684D01*
X64076264Y996375D01*
X64336606Y1135531D01*
X64564797Y1322803D01*
X64752069Y1550994D01*
X64891225Y1811337D01*
X64976916Y2093824D01*
X64998600Y2313982D01*
X64998600Y2766019D01*
X64976916Y2986177D01*
X64891225Y3268664D01*
X64752069Y3529006D01*
X64564797Y3757197D01*
X64336605Y3944469D01*
X64076263Y4083625D01*
X63793776Y4169316D01*
X63500000Y4198251D01*
X63206223Y4169316D01*
X62923736Y4083625D01*
X62663394Y3944469D01*
X62435203Y3757197D01*
X62247931Y3529005D01*
X62230000Y3495459D01*
X62212069Y3529006D01*
X62024797Y3757197D01*
X61796605Y3944469D01*
X61536263Y4083625D01*
X61253776Y4169316D01*
X60960000Y4198251D01*
X60666223Y4169316D01*
X60383736Y4083625D01*
X60123394Y3944469D01*
X59895203Y3757197D01*
X59707931Y3529005D01*
X59690000Y3495459D01*
X59672069Y3529006D01*
X59484797Y3757197D01*
X59256605Y3944469D01*
X58996263Y4083625D01*
X58713776Y4169316D01*
X58420000Y4198251D01*
X58126223Y4169316D01*
X57843736Y4083625D01*
X57583394Y3944469D01*
X57355203Y3757197D01*
X57167931Y3529005D01*
X57150000Y3495459D01*
X57132069Y3529006D01*
X56944797Y3757197D01*
X56716605Y3944469D01*
X56456263Y4083625D01*
X56173776Y4169316D01*
X55880000Y4198251D01*
X55586223Y4169316D01*
X55303736Y4083625D01*
X55043394Y3944469D01*
X54815203Y3757197D01*
X54627931Y3529005D01*
X54610000Y3495459D01*
X54592069Y3529006D01*
X54404797Y3757197D01*
X54176605Y3944469D01*
X53916263Y4083625D01*
X53633776Y4169316D01*
X53340000Y4198251D01*
X53046223Y4169316D01*
X52763736Y4083625D01*
X52503394Y3944469D01*
X52275203Y3757197D01*
X52087931Y3529005D01*
X52070000Y3495459D01*
X52052069Y3529006D01*
X51864797Y3757197D01*
X51636605Y3944469D01*
X51376263Y4083625D01*
X51093776Y4169316D01*
X50800000Y4198251D01*
X50506223Y4169316D01*
X50223736Y4083625D01*
X49963394Y3944469D01*
X49735203Y3757197D01*
X49547931Y3529005D01*
X49408775Y3268663D01*
X49323084Y2986176D01*
X49301400Y2766018D01*
X47218600Y2766018D01*
X47218600Y2766019D01*
X47196916Y2986177D01*
X47111225Y3268664D01*
X46972069Y3529006D01*
X46784797Y3757197D01*
X46556605Y3944469D01*
X46296263Y4083625D01*
X46013776Y4169316D01*
X45720000Y4198251D01*
X45426223Y4169316D01*
X45143736Y4083625D01*
X44883394Y3944469D01*
X44655203Y3757197D01*
X44467931Y3529005D01*
X44446576Y3489053D01*
X44298486Y3691729D01*
X44082035Y3890733D01*
X43830919Y4043686D01*
X43554789Y4144709D01*
X43539026Y4147358D01*
X43307000Y4026217D01*
X43053000Y4026217D01*
X42820974Y4147358D01*
X42805211Y4144709D01*
X42529081Y4043686D01*
X42277965Y3890733D01*
X42061514Y3691729D01*
X41910000Y3484367D01*
X41758486Y3691729D01*
X41542035Y3890733D01*
X41290919Y4043686D01*
X41014789Y4144709D01*
X40999026Y4147358D01*
X40767000Y4026217D01*
X40513000Y4026217D01*
X40280974Y4147358D01*
X40265211Y4144709D01*
X39989081Y4043686D01*
X39737965Y3890733D01*
X39521514Y3691729D01*
X39373424Y3489053D01*
X39352069Y3529006D01*
X39164797Y3757197D01*
X38936605Y3944469D01*
X38676263Y4083625D01*
X38393776Y4169316D01*
X38366000Y4172052D01*
X38366000Y13715553D01*
X38373738Y13703972D01*
X38503972Y13573738D01*
X38657111Y13471414D01*
X38827271Y13400932D01*
X39007911Y13365000D01*
X39192089Y13365000D01*
X39372729Y13400932D01*
X39542889Y13471414D01*
X39696028Y13573738D01*
X39826262Y13703972D01*
X39928586Y13857111D01*
X39999068Y14027271D01*
X40023153Y14148352D01*
X40135998Y14261197D01*
X40165002Y14285000D01*
X40259975Y14400725D01*
X40330547Y14532754D01*
X40374004Y14676015D01*
X40385001Y14787668D01*
X40385001Y14787678D01*
X40388677Y14825001D01*
X40385001Y14862324D01*
X40385001Y25737677D01*
X40388677Y25775000D01*
X40385001Y25812323D01*
X40385001Y25812332D01*
X40374004Y25923985D01*
X40330547Y26067246D01*
X40259975Y26199275D01*
X40165002Y26315000D01*
X40135999Y26338802D01*
X40123153Y26351648D01*
X40099068Y26472729D01*
X40028586Y26642889D01*
X39926262Y26796028D01*
X39796028Y26926262D01*
X39642889Y27028586D01*
X39472729Y27099068D01*
X39292089Y27135000D01*
X39107911Y27135000D01*
X38927271Y27099068D01*
X38757111Y27028586D01*
X38603972Y26926262D01*
X38473738Y26796028D01*
X38371414Y26642889D01*
X38300932Y26472729D01*
X38265000Y26292089D01*
X38265000Y26107911D01*
X38300932Y25927271D01*
X38371414Y25757111D01*
X38473738Y25603972D01*
X38603972Y25473738D01*
X38757111Y25371414D01*
X38865001Y25326725D01*
X38865002Y15206573D01*
X38827271Y15199068D01*
X38657111Y15128586D01*
X38503972Y15026262D01*
X38373738Y14896028D01*
X38366000Y14884447D01*
X38366000Y21291596D01*
X38430068Y21446271D01*
X38466000Y21626911D01*
X38466000Y21811089D01*
X38430068Y21991729D01*
X38359586Y22161889D01*
X38257262Y22315028D01*
X38127028Y22445262D01*
X37973889Y22547586D01*
X37819216Y22611653D01*
X29335000Y31095867D01*
X29335000Y33072596D01*
X29399068Y33227271D01*
X29435000Y33407911D01*
X29435000Y33592089D01*
X29399068Y33772729D01*
X29328586Y33942889D01*
X29226262Y34096028D01*
X29096028Y34226262D01*
X28942889Y34328586D01*
X28772729Y34399068D01*
X28592089Y34435000D01*
X28407911Y34435000D01*
X28227271Y34399068D01*
X28057111Y34328586D01*
X27903972Y34226262D01*
X27773738Y34096028D01*
X27671414Y33942889D01*
X27600932Y33772729D01*
X27565000Y33592089D01*
X27565000Y33407911D01*
X27600932Y33227271D01*
X27665000Y33072595D01*
X27665001Y30791028D01*
X27660960Y30750000D01*
X27677082Y30586312D01*
X27724828Y30428914D01*
X27802364Y30283855D01*
X27802365Y30283854D01*
X27906710Y30156709D01*
X27938574Y30130559D01*
X36638347Y21430784D01*
X36696000Y21291596D01*
X36696001Y3670435D01*
X36624797Y3757197D01*
X36396605Y3944469D01*
X36136263Y4083625D01*
X35853776Y4169316D01*
X35560000Y4198251D01*
X35266223Y4169316D01*
X34983736Y4083625D01*
X34723394Y3944469D01*
X34495203Y3757197D01*
X34307931Y3529005D01*
X34290000Y3495459D01*
X34272069Y3529006D01*
X34084797Y3757197D01*
X33856605Y3944469D01*
X33596263Y4083625D01*
X33313776Y4169316D01*
X33020000Y4198251D01*
X32726223Y4169316D01*
X32443736Y4083625D01*
X32183394Y3944469D01*
X31955203Y3757197D01*
X31767931Y3529005D01*
X31750000Y3495459D01*
X31732069Y3529006D01*
X31544797Y3757197D01*
X31316605Y3944469D01*
X31056263Y4083625D01*
X30773776Y4169316D01*
X30480000Y4198251D01*
X30186223Y4169316D01*
X29903736Y4083625D01*
X29643394Y3944469D01*
X29415203Y3757197D01*
X29227931Y3529005D01*
X29210000Y3495459D01*
X29192069Y3529006D01*
X29004797Y3757197D01*
X28776605Y3944469D01*
X28516263Y4083625D01*
X28233776Y4169316D01*
X27940000Y4198251D01*
X27646223Y4169316D01*
X27363736Y4083625D01*
X27103394Y3944469D01*
X26875203Y3757197D01*
X26687931Y3529005D01*
X26548775Y3268663D01*
X26463084Y2986176D01*
X26441400Y2766018D01*
X16637000Y2766018D01*
X16637000Y2802677D01*
X16534508Y3317935D01*
X16333464Y3803298D01*
X16041594Y4240113D01*
X15670113Y4611594D01*
X15233298Y4903464D01*
X14747935Y5104508D01*
X14232677Y5207000D01*
X13707323Y5207000D01*
X13192065Y5104508D01*
X12706702Y4903464D01*
X12269887Y4611594D01*
X11898406Y4240113D01*
X11606536Y3803298D01*
X11405492Y3317935D01*
X11303000Y2802677D01*
X11303000Y2277323D01*
X11405492Y1762065D01*
X11606536Y1276702D01*
X11898406Y839887D01*
X12028293Y710000D01*
X1627000Y710000D01*
X1627000Y44592089D01*
X29065000Y44592089D01*
X29065000Y44407911D01*
X29100932Y44227271D01*
X29171414Y44057111D01*
X29273738Y43903972D01*
X29403972Y43773738D01*
X29557111Y43671414D01*
X29727271Y43600932D01*
X29907911Y43565000D01*
X30092089Y43565000D01*
X30272729Y43600932D01*
X30427404Y43665000D01*
X32754133Y43665000D01*
X33907346Y42511786D01*
X33971414Y42357111D01*
X34073738Y42203972D01*
X34203972Y42073738D01*
X34357111Y41971414D01*
X34511788Y41907345D01*
X49165001Y27254131D01*
X49165000Y26427405D01*
X49100932Y26272729D01*
X49065000Y26092089D01*
X49065000Y25907911D01*
X49100932Y25727271D01*
X49171414Y25557111D01*
X49273738Y25403972D01*
X49403972Y25273738D01*
X49557111Y25171414D01*
X49727271Y25100932D01*
X49907911Y25065000D01*
X50092089Y25065000D01*
X50272729Y25100932D01*
X50442889Y25171414D01*
X50596028Y25273738D01*
X50726262Y25403972D01*
X50828586Y25557111D01*
X50899068Y25727271D01*
X50935000Y25907911D01*
X50935000Y26092089D01*
X50899068Y26272729D01*
X50835000Y26427404D01*
X50835000Y27558982D01*
X50839040Y27600001D01*
X50822918Y27763689D01*
X50775172Y27921087D01*
X50697636Y28066146D01*
X50593291Y28193291D01*
X50561427Y28219441D01*
X35692655Y43088212D01*
X35628586Y43242889D01*
X35526262Y43396028D01*
X35396028Y43526262D01*
X35242889Y43628586D01*
X35088214Y43692654D01*
X33719446Y45061421D01*
X33693291Y45093291D01*
X33566146Y45197636D01*
X33421087Y45275172D01*
X33263689Y45322918D01*
X33141019Y45335000D01*
X33141018Y45335000D01*
X33100000Y45339040D01*
X33058982Y45335000D01*
X30427404Y45335000D01*
X30272729Y45399068D01*
X30092089Y45435000D01*
X29907911Y45435000D01*
X29727271Y45399068D01*
X29557111Y45328586D01*
X29403972Y45226262D01*
X29273738Y45096028D01*
X29171414Y44942889D01*
X29100932Y44772729D01*
X29065000Y44592089D01*
X1627000Y44592089D01*
X1627000Y49599034D01*
X4359631Y49599034D01*
X4359631Y49206966D01*
X4436119Y48822431D01*
X4586157Y48460207D01*
X4803979Y48134213D01*
X5081213Y47856979D01*
X5407207Y47639157D01*
X5769431Y47489119D01*
X6153966Y47412631D01*
X6546034Y47412631D01*
X6930569Y47489119D01*
X7292793Y47639157D01*
X7618787Y47856979D01*
X7896021Y48134213D01*
X8113843Y48460207D01*
X8263881Y48822431D01*
X8340369Y49206966D01*
X8340369Y49599034D01*
X8263881Y49983569D01*
X8113843Y50345793D01*
X7896021Y50671787D01*
X7618787Y50949021D01*
X7292793Y51166843D01*
X6930569Y51316881D01*
X6546034Y51393369D01*
X6153966Y51393369D01*
X5769431Y51316881D01*
X5407207Y51166843D01*
X5081213Y50949021D01*
X4803979Y50671787D01*
X4586157Y50345793D01*
X4436119Y49983569D01*
X4359631Y49599034D01*
X1627000Y49599034D01*
X1627000Y52373000D01*
X13083472Y52373000D01*
X12876536Y52063298D01*
G04 #@! TD*
M02*
